{
.appVersion = "1193";
DisplayStrings = (
Demais
);
copyright = "Copyright 2019 Tomorrow Authors (https://github.com/googlefonts/Tomorrow), with Reserved Font Name “Tomorrow”.";
date = "2019-04-25 13:37:46 +0000";
designer = "Tony de Marco";
designerURL = "http://www.tonydemarco.com.br";
familyName = Tomorrow;
featurePrefixes = (
{
automatic = 1;
code = "languagesystem DFLT dflt;\012languagesystem latn dflt;\012languagesystem latn ROM;\012languagesystem latn MOL;\012languagesystem latn KAZ;\012languagesystem latn TAT;\012languagesystem latn TRK;\012languagesystem latn CRT;\012languagesystem latn AZE;\012";
name = Languagesystems;
}
);
features = (
{
automatic = 1;
code = "feature locl;\012feature ordn;\012";
name = aalt;
},
{
automatic = 1;
code = "lookup ccmp_Other_1 {\012	@CombiningTopAccents = [acutecomb brevecomb caroncomb circumflexcomb commaturnedabovecomb dieresiscomb dotaccentcomb gravecomb hungarumlautcomb macroncomb ringcomb tildecomb];\012	@CombiningNonTopAccents = [cedillacomb ogonekcomb slashlongcomb slashshortcomb strokeshortcomb];\012	sub [i]' @CombiningTopAccents by [idotless];\012	sub [i]' @CombiningNonTopAccents @CombiningTopAccents by [idotless];\012} ccmp_Other_1;\012";
disabled = 1;
name = ccmp;
},
{
automatic = 1;
code = "script latn;\012language ROM;\012sub Scedilla by Scommaaccent;\012sub scedilla by scommaaccent;\012sub Tcedilla by Tcommaaccent;\012sub tcedilla by tcommaaccent;\012language MOL;\012sub Scedilla by Scommaaccent;\012sub scedilla by scommaaccent;\012sub Tcedilla by Tcommaaccent;\012sub tcedilla by tcommaaccent;\012language KAZ;\012sub i by idotaccent;\012language TAT;\012sub i by idotaccent;\012language TRK;\012sub i by idotaccent;\012language CRT;\012sub i by idotaccent;\012language AZE;\012sub i by idotaccent;\012";
name = locl;
},
{
automatic = 1;
code = "sub [zero one two three four five six seven eight nine] [A a]' by ordfeminine;\012sub [zero one two three four five six seven eight nine] [O o]' by ordmasculine;\012";

glyphs = (
{
glyphname = A;
lastChange = "2019-01-02 21:34:29 +0000";
layers = (
{
anchors = (
{
name = bottom;
position = "{286.75, 0}";
},
{
name = ogonek;
position = "{553.498, 0}";
},
{
name = top;
position = "{287, 670}";
}
);
background = {
paths = (
{
closed = 1;
nodes = (
"40 0 LINE",
"278 650 LINE",
"296 650 LINE",
"534 0 LINE",
"554 0 LINE",
"309 670 LINE",
"265 670 LINE",
"20 0 LINE"
);
}
);
};
guideLines = (
{
angle = -17.2476;
position = "{67, 195}";
showMeasurement = 1;
}
);
layerId = "0018AAE5-3623-47DD-B976-BFE254BC69BD";
paths = (
{
closed = 1;
nodes = (
"40 0 LINE",
"278 650 LINE",
"296 650 LINE",
"534 0 LINE",
"553.498 0 LINE",
"309.125 670 LINE",
"265 670 LINE",
"20 0 LINE"
);
},
{
closed = 1;
nodes = (
"465 197 LINE",
"465 217 LINE",
"109 217 LINE",
"109 197 LINE"
);
}
);
width = 573.5;
},
{
anchors = (
{
name = bottom;
position = "{312, 0}";
},
{
name = ogonek;
position = "{571, 0}";
},
{
name = top;
position = "{312, 670}";
}
);
guideLines = (
{
angle = 90;
position = "{312.5, 670}";
}
);
layerId = "20086791-C5B6-4597-997A-CAD8F8E58507";
paths = (
{
closed = 1;
nodes = (
"131 0 LINE",
"302 562 LINE",
"324 562 LINE",
"495 0 LINE",
"616 0 LINE",
"398 670 LINE",
"228 670 LINE",
"10 0 LINE"
);
},
{
closed = 1;
nodes = (
"487 163 LINE",
"487 263 LINE",
"139 263 LINE",
"139 163 LINE"
);
}
);
width = 626;
}
);
leftKerningGroup = A;
rightKerningGroup = A;
unicode = 0041;
},
{
glyphname = Aogonek;
lastChange = "2019-01-02 21:34:29 +0000";
layers = (
{
background = {
paths = (
{
closed = 1;
nodes = (
"555 -126 LINE",
"555 -106 LINE",
"538 -106 LINE",
"506 -74 LINE",
"506 -47 LINE",
"555 -10 LINE",
"555 0 LINE",
"535 0 LINE",
"486 -36 LINE",
"486 -83 LINE",
"529 -126 LINE"
);
}
);
};
components = (
{
name = A;
}
);
guideLines = (
{
angle = -57.3136;
position = "{486, -11}";
showMeasurement = 1;
}
);
layerId = "0018AAE5-3623-47DD-B976-BFE254BC69BD";
paths = (
{
closed = 1;
nodes = (
"555 -126 LINE",
"555 -106 LINE",
"538 -106 LINE",
"506 -74 LINE",
"506 -46 LINE",
"556.5 -8.125 LINE",
"553.5 0 LINE",
"534 0 LINE",
"486 -36 LINE",
"486 -83 LINE",
"529 -126 LINE"
);
}
);
width = 573.5;
},
{
components = (
{
name = A;
}
);
layerId = "20086791-C5B6-4597-997A-CAD8F8E58507";
paths = (
{
closed = 1;
nodes = (
"571 -156 LINE",
"571 -82 LINE",
"542 -82 LINE",
"523 -63 LINE",
"523 -35 LINE",
"571 0 LINE",
"571 0 LINE",
"495 0 LINE",
"454 -30 LINE",
"454 -98 LINE",
"512 -156 LINE"
);
}
);
width = 626;
},
{
associatedMasterId = "0018AAE5-3623-47DD-B976-BFE254BC69BD";
background = {
paths = (
{
closed = 1;
nodes = (
"555 -126 LINE",
"555 -106 LINE",
"538 -106 LINE",
"506 -74 LINE",
"506 -47 LINE",
"555 -10 LINE",
"555 0 LINE",
"535 0 LINE",
"486 -36 LINE",
"486 -83 LINE",
"529 -126 LINE"
);
}
);
};
components = (
{
name = A;
}
);
guideLines = (
{
angle = -57.3136;
position = "{486, -11}";
showMeasurement = 1;
}
);
layerId = "6CC660E8-E717-4707-9E16-C5B2C593234B";
name = "{30}";
paths = (
{
closed = 1;
nodes = (
"556.625 -129 LINE",
"556.625 -103 LINE",
"537.625 -103 LINE",
"507.625 -73 LINE",
"507.625 -43 LINE",
"563.5 -8 LINE",
"560.5 0 LINE",
"529.625 0 LINE",
"481.625 -30 LINE",
"481.625 -85 LINE",
"526.625 -129 LINE"
);
}
);
width = 582.375;
},
{
associatedMasterId = "0018AAE5-3623-47DD-B976-BFE254BC69BD";
background = {
paths = (
{
closed = 1;
nodes = (
"555 -126 LINE",
"555 -106 LINE",
"538 -106 LINE",
"506 -74 LINE",
"506 -47 LINE",
"555 -10 LINE",
"555 0 LINE",
"535 0 LINE",
"486 -36 LINE",
"486 -83 LINE",
"529 -126 LINE"
);
}
);
};
components = (
{
name = A;
}
);
guideLines = (
{
angle = -57.3136;
position = "{486, -11}";
showMeasurement = 1;
}
);
layerId = "FC581433-1050-43A5-9891-27A4E3DB33A8";
name = "{50}";
paths = (
{
closed = 1;
nodes = (
"560.375 -136 LINE",
"560.375 -98 LINE",
"539.375 -98 LINE",
"512.375 -70 LINE",
"512.375 -41 LINE",
"574.375 0 LINE",
"521 0 LINE",
"475 -30 LINE",
"475 -88 LINE",
"523 -136 LINE"
);
}
);
width = 591;
},
{
associatedMasterId = "0018AAE5-3623-47DD-B976-BFE254BC69BD";
background = {
paths = (
{
closed = 1;
nodes = (
"555 -126 LINE",
"555 -106 LINE",
"538 -106 LINE",
"506 -74 LINE",
"506 -47 LINE",
"555 -10 LINE",
"555 0 LINE",
"535 0 LINE",
"486 -36 LINE",
"486 -83 LINE",
"529 -126 LINE"
);
}
);
};
components = (
{
name = A;
}
);
guideLines = (
{
angle = -57.3136;
position = "{486, -11}";
showMeasurement = 1;
}
);
layerId = "892F34A1-705A-4213-8401-D5D166717DA5";
name = "{80}";
paths = (
{
closed = 1;
nodes = (
"565.667 -146 LINE",
"565.667 -90 LINE",
"540.667 -90 LINE",
"517.333 -66.667 LINE",
"517.333 -38.667 LINE",
"569.5 0 LINE",
"508 0 LINE",
"464.625 -32 LINE",
"464.667 -93 LINE",
"517.667 -146 LINE"
);
}
);
width = 608.5;
}
);
leftKerningGroup = A;
leftMetricsKey = A;
rightKerningGroup = A;
unicode = 0104;
},
{
glyphname = AE;
lastChange = "2019-01-02 21:34:29 +0000";
layers = (
{
components = (
{
name = A;
}
);
layerId = "0018AAE5-3623-47DD-B976-BFE254BC69BD";
paths = (
{
closed = 1;
nodes = (
"824 0 LINE",
"824 20 LINE",
"538 20 LINE",
"538 0 LINE"
);
},
{
closed = 1;
nodes = (
"770 345 LINE",
"770 365 LINE",
"416 365 LINE",
"416 345 LINE"
);
},
{
closed = 1;
nodes = (
"824 650 LINE",
"824 670 LINE",
"309 670 LINE",
"309 650 LINE"
);
}
);
width = 889;
},
{
components = (
{
name = A;
}
);
layerId = "20086791-C5B6-4597-997A-CAD8F8E58507";
paths = (
{
closed = 1;
nodes = (
"870 0 LINE",
"870 104 LINE",
"557 104 LINE",
"557 0 LINE"
);
},
{
closed = 1;
nodes = (
"840 299 LINE",
"840 403 LINE",
"433 403 LINE",
"433 299 LINE"
);
},
{
closed = 1;
nodes = (
"870 566 LINE",
"870 670 LINE",
"380 670 LINE",
"380 566 LINE"
);
}
);
width = 930;
}
);
leftKerningGroup = A;
leftMetricsKey = A;
rightKerningGroup = E;
rightMetricsKey = E;
unicode = 00C6;
},
{
glyphname = B;
lastChange = "2019-01-02 21:34:29 +0000";
layers = (
{
anchors = (
{
name = top;
position = "{270, 676.25}";
}
);
background = {
hints = (
{
origin = "{0, 0}";
type = Corner;
name = _corner.dia_esq;
options = 1;
},
{
origin = "{0, 4}";
type = Corner;
name = _corner.dia_dir;
options = 1;
}
);
paths = (
{
closed = 1;
nodes = (
"540 0 LINE",
"540 267 LINE",
"455 358 LINE",
"496 429 LINE",
"496 670 LINE",
"116 670 LINE",
"116 650 LINE",
"405 650 LINE",
"476 578 LINE",
"476 434 LINE",
"436 365 LINE",
"116 365 LINE",
"116 345 LINE",
"439 345 LINE",
"520 259 LINE",
"520 92 LINE",
"449 20 LINE",
"116 20 LINE",
"116 0 LINE"
);
}
);
};
components = (
{
name = _part.H;
}
);
guideLines = (
{
angle = -32.7246;
position = "{517, 388.5}";
showMeasurement = 1;
},
{
angle = 133.8726;
position = "{572.125, -6.5}";
showMeasurement = 1;
}
);
hints = (
{
origin = "{0, 4}";
type = Corner;
name = _corner.dia_dir;
options = 1;
},
{
origin = "{0, 0}";
type = Corner;
name = _corner.dia_esq;
options = 1;
},
{
origin = "{0, 7}";
type = Corner;
name = _corner.int_DIR;
options = 1;
},
{
origin = "{0, 14}";
type = Corner;
name = _corner.int_ESQ;
options = 1;
}
);
layerId = "0018AAE5-3623-47DD-B976-BFE254BC69BD";
rightMetricsKey = "=O-10";
paths = (
{
closed = 1;
nodes = (
"540 0 LINE",
"540 267 LINE",
"455 358 LINE",
"496 429 LINE",
"496 670 LINE",
"116 670 LINE",
"116 650 LINE",
"476 650 LINE",
"476 431.125 LINE",
"437.875 365 LINE",
"116 365 LINE",
"116 345 LINE",
"441.75 345 LINE",
"520 261.75 LINE",
"520 20 LINE",
"116 20 LINE",
"116 0 LINE"
);
}
);
width = 625;
},
{
anchors = (
{
name = top;
position = "{295.75, 676.25}";
}
);
background = {
hints = (
{
origin = "{0, 0}";
type = Corner;
name = _corner.dia_esq;
options = 1;
},
{
origin = "{0, 4}";
type = Corner;
name = _corner.dia_dir;
options = 1;
}
);
paths = (
{
closed = 1;
nodes = (
"601 0 LINE",
"601 290 LINE",
"528 363 LINE",
"571 412 LINE",
"571 670 LINE",
"160 670 LINE",
"160 570 LINE",
"407 570 LINE",
"457 520 LINE",
"457 451 LINE",
"417 401 LINE",
"160 401 LINE",
"160 301 LINE",
"437 301 LINE",
"487 251 LINE",
"487 150 LINE",
"437 100 LINE",
"160 100 LINE",
"160 0 LINE"
);
}
);
};
components = (
{
name = _part.H;
transform = "{1, 0, 0, 1, -50, 0}";
}
);
guideLines = (
{
angle = -42.7359;
position = "{543.375, 353.375}";
showMeasurement = 1;
}
);
hints = (
{
origin = "{0, 0}";
type = Corner;
name = _corner.dia_esq;
options = 1;
},
{
origin = "{0, 4}";
type = Corner;
name = _corner.dia_dir;
options = 1;
},
{
origin = "{0, 14}";
type = Corner;
name = _corner.int_ESQ;
options = 1;
},
{
origin = "{0, 7}";
type = Corner;
name = _corner.int_DIR;
options = 1;
}
);
layerId = "20086791-C5B6-4597-997A-CAD8F8E58507";
paths = (
{
closed = 1;
nodes = (
"601 0 LINE",
"601 290 LINE",
"528 363 LINE",
"571 412 LINE",
"571 670 LINE",
"160 670 LINE",
"160 570 LINE",
"457 570 LINE",
"457 445.875 LINE",
"417.5 401 LINE",
"160 401 LINE",
"160 301 LINE",
"447 301.25 LINE",
"487.125 261 LINE",
"487 100 LINE",
"160 100 LINE",
"160 0 LINE"
);
}
);
width = 671;
}
);
leftKerningGroup = H;
leftMetricsKey = H;
rightKerningGroup = B;
rightMetricsKey = O;
unicode = 0042;
},
{
glyphname = C;
lastChange = "2019-01-02 21:34:29 +0000";
layers = (
{
anchors = (
{
name = botton;
position = "{318, 0}";
},
{
name = top;
position = "{323, 670}";
}
);
hints = (
{
origin = "{0, 11}";
type = Corner;
name = _corner.dia_dir;
options = 1;
},
{
origin = "{0, 10}";
type = Corner;
name = _corner.dia_esq;
options = 1;
},
{
origin = "{0, 4}";
type = Corner;
name = _corner.int_DIR;
options = 1;
},
{
origin = "{0, 5}";
type = Corner;
name = _corner.int_ESQ;
options = 1;
}
);
layerId = "0018AAE5-3623-47DD-B976-BFE254BC69BD";
paths = (
{
closed = 1;
nodes = (
"459 0 LINE",
"556 98 LINE",
"543 111 LINE",
"453 20 LINE",
"115 20 LINE",
"115 650 LINE",
"448 650 LINE",
"535 562 LINE",
"548 575 LINE",
"454 670 LINE",
"95 670 LINE",
"95 0 LINE"
);
}
);
width = 616;
},
{
anchors = (
{
name = botton;
position = "{322, 0}";
},
{
name = top;
position = "{328, 670}";
}
);
background = {
hints = (
{
origin = "{0, 0}";
type = Corner;
name = _corner.dia_esq;
options = 1;
},
{
origin = "{0, 1}";
type = Corner;
name = _corner.dia_dir;
options = 1;
},
{
origin = "{0, 2}";
type = Corner;
name = _corner.dia_esq;
options = 1;
},
{
origin = "{0, 3}";
type = Corner;
name = _corner.dia_dir;
options = 1;
},
{
origin = "{1, 0}";
type = Corner;
name = _corner.int_ESQ;
options = 1;
},
{
origin = "{1, 1}";
type = Corner;
name = _corner.int_DIR;
options = 1;
},
{
origin = "{1, 2}";
type = Corner;
name = _corner.int_ESQ;
options = 1;
},
{
origin = "{1, 3}";
type = Corner;
name = _corner.int_DIR;
options = 1;
}
);
paths = (
{
closed = 1;
nodes = (
"600 0 LINE",
"600 670 LINE",
"70 670 LINE",
"70 0 LINE"
);
},
{
closed = 1;
nodes = (
"184 570 LINE",
"486 570 LINE",
"486 100 LINE",
"184 100 LINE"
);
}
);
};
hints = (
{
origin = "{0, 10}";
type = Corner;
name = _corner.dia_esq;
options = 1;
},
{
origin = "{0, 11}";
type = Corner;
name = _corner.dia_dir;
options = 1;
},
{
origin = "{0, 5}";
type = Corner;
name = _corner.int_ESQ;
options = 1;
},
{
origin = "{0, 4}";
type = Corner;
name = _corner.int_DIR;
options = 1;
}
);
layerId = "20086791-C5B6-4597-997A-CAD8F8E58507";
paths = (
{
closed = 1;
nodes = (
"495 0 LINE",
"587 92 LINE",
"515 165 LINE",
"449 100 LINE",
"184 100 LINE",
"184 570 LINE",
"441 570 LINE",
"507 505 LINE",
"579 578 LINE",
"487 670 LINE",
"70 670 LINE",
"70 0 LINE"
);
}
);
width = 617;
}
);
leftKerningGroup = O;
leftMetricsKey = O;
rightKerningGroup = C;
unicode = 0043;
},
{
glyphname = D;
lastChange = "2019-01-02 21:34:29 +0000";
layers = (
{
anchors = (
{
name = center;
position = "{156, 340}";
},
{
name = top;
position = "{298, 670}";
}
);
components = (
{
name = _part.H;
}
);
layerId = "0018AAE5-3623-47DD-B976-BFE254BC69BD";
rightMetricsKey = "=O-10";
paths = (
{
closed = 1;
nodes = (
"425 0 LINE",
"560 141 LINE",
"560 529 LINE",
"425 670 LINE",
"116 670 LINE",
"116 650 LINE",
"418.75 650 LINE",
"540 523.5 LINE",
"540 146.625 LINE",
"418.875 20 LINE",
"116 20 LINE",
"116 0 LINE"
);
}
);
width = 645;
},
{
anchors = (
{
name = center;
position = "{166, 340}";
},
{
name = top;
position = "{315, 670}";
}
);
components = (
{
name = _part.H;
transform = "{1, 0, 0, 1, -50, 0}";
}
);
layerId = "20086791-C5B6-4597-997A-CAD8F8E58507";
paths = (
{
closed = 1;
nodes = (
"471 0 LINE",
"612 141 LINE",
"612 529 LINE",
"471 670 LINE",
"162 670 LINE",
"162 570 LINE",
"418 570 LINE",
"498 490 LINE",
"498 180 LINE",
"418 100 LINE",
"162 100 LINE",
"162 0 LINE"
);
}
);
width = 682;
}
);
leftKerningGroup = H;
leftMetricsKey = H;
rightKerningGroup = D;
rightMetricsKey = O;
unicode = 0044;
},
{
glyphname = E;
lastChange = "2019-01-02 21:34:29 +0000";
layers = (
{
anchors = (
{
name = bottom;
position = "{303, 0}";
},
{
name = ogonek;
position = "{515, 0}";
},
{
name = top;
position = "{311, 670}";
}
);
components = (
{
name = _part.H;
}
);
layerId = "0018AAE5-3623-47DD-B976-BFE254BC69BD";
paths = (
{
closed = 1;
nodes = (
"515 0 LINE",
"515 20 LINE",
"116 20 LINE",
"116 0 LINE"
);
},
{
closed = 1;
nodes = (
"515 650 LINE",
"515 670 LINE",
"116 670 LINE",
"116 650 LINE"
);
},
{
closed = 1;
nodes = (
"461 345 LINE",
"461 365 LINE",
"116 365 LINE",
"116 345 LINE"
);
}
);
width = 580;
},
{
anchors = (
{
name = bottom;
position = "{312, 0}";
},
{
name = ogonek;
position = "{543, 0}";
},
{
name = top;
position = "{312, 670}";
}
);
components = (
{
name = _part.H;
transform = "{1, 0, 0, 1, -50, 0}";
}
);
layerId = "20086791-C5B6-4597-997A-CAD8F8E58507";
paths = (
{
closed = 1;
nodes = (
"543 0 LINE",
"543 104 LINE",
"147 104 LINE",
"147 0 LINE"
);
},
{
closed = 1;
nodes = (
"543 566 LINE",
"543 670 LINE",
"147 670 LINE",
"147 566 LINE"
);
},
{
closed = 1;
nodes = (
"513 299 LINE",
"513 403 LINE",
"147 403 LINE",
"147 299 LINE"
);
}
);
width = 603;
}
);
leftKerningGroup = H;
leftMetricsKey = H;
rightKerningGroup = E;
unicode = 0045;
},
{
glyphname = F;
lastChange = "2019-01-02 21:34:29 +0000";
layers = (
{
components = (
{
name = _part.H;
}
);
layerId = "0018AAE5-3623-47DD-B976-BFE254BC69BD";
paths = (
{
closed = 1;
nodes = (
"505 650 LINE",
"505 670 LINE",
"116 670 LINE",
"116 650 LINE"
);
},
{
closed = 1;
nodes = (
"457 330 LINE",
"457 350 LINE",
"116 350 LINE",
"116 330 LINE"
);
}
);
width = 540;
},
{
components = (
{
name = _part.H;
transform = "{1, 0, 0, 1, -50, 0}";
}
);
layerId = "20086791-C5B6-4597-997A-CAD8F8E58507";
paths = (
{
closed = 1;
nodes = (
"533 566 LINE",
"533 670 LINE",
"147 670 LINE",
"147 566 LINE"
);
},
{
closed = 1;
nodes = (
"493 287 LINE",
"493 391 LINE",
"147 391 LINE",
"147 287 LINE"
);
}
);
width = 553;
}
);
leftKerningGroup = H;
leftMetricsKey = H;
rightKerningGroup = F;
unicode = 0046;
},
{
glyphname = G;
lastChange = "2019-01-02 21:34:29 +0000";
layers = (
{
anchors = (
{
name = botton;
position = "{318, 0}";
},
{
name = top;
position = "{328, 670}";
}
);
background = {
hints = (
{
origin = "{0, 12}";
type = Corner;
name = _corner.dia_esq;
options = 1;
},
{
origin = "{0, 13}";
type = Corner;
name = _corner.dia_dir;
options = 1;
}
);
paths = (
{
closed = 1;
nodes = (
"445 0 LINE",
"560 121 LINE",
"544 133 LINE",
"436 20 LINE",
"186 20 LINE",
"115 92 LINE",
"115 578 LINE",
"186 650 LINE",
"461 650 LINE",
"548 561 LINE",
"563 574 LINE",
"470 670 LINE",
"95 670 LINE",
"95 0 LINE"
);
},
{
closed = 1;
nodes = (
"560 0 LINE",
"560 320 LINE",
"383 320 LINE",
"383 300 LINE",
"540 300 LINE",
"540 0 LINE"
);
}
);
};
hints = (
{
origin = "{0, 10}";
type = Corner;
name = _corner.dia_esq;
options = 1;
},
{
origin = "{0, 11}";
type = Corner;
name = _corner.dia_dir;
options = 1;
},
{
origin = "{0, 5}";
type = Corner;
name = _corner.int_ESQ;
options = 1;
},
{
origin = "{0, 4}";
type = Corner;
name = _corner.int_DIR;
options = 1;
}
);
layerId = "0018AAE5-3623-47DD-B976-BFE254BC69BD";
rightMetricsKey = "=O+10";
paths = (
{
closed = 1;
nodes = (
"445 0 LINE",
"560 121 LINE",
"544.625 131.5 LINE",
"438.75 20 LINE",
"115 20 LINE",
"115 650 LINE",
"461 650 LINE",
"548 562 LINE",
"561 575 LINE",
"467 670 LINE",
"95 670 LINE",
"95 0 LINE"
);
},
{
closed = 1;
nodes = (
"560 0 LINE",
"560 320 LINE",
"383 320 LINE",
"383 300 LINE",
"540 300 LINE",
"540 0 LINE"
);
}
);
width = 666;
},
{
anchors = (
{
name = botton;
position = "{315, 0}";
},
{
name = top;
position = "{329, 670}";
}
);
background = {
hints = (
{
origin = "{0, 12}";
type = Corner;
name = _corner.dia_esq;
options = 1;
},
{
origin = "{0, 13}";
type = Corner;
name = _corner.dia_dir;
options = 1;
}
);
paths = (
{
closed = 1;
nodes = (
"426 0 LINE",
"594 150 LINE",
"544 227 LINE",
"402 100 LINE",
"234 100 LINE",
"184 150 LINE",
"184 520 LINE",
"234 570 LINE",
"454 570 LINE",
"522 503 LINE",
"597 579 LINE",
"506 670 LINE",
"70 670 LINE",
"70 0 LINE"
);
},
{
closed = 1;
nodes = (
"597 0 LINE",
"597 372 LINE",
"350 372 LINE",
"350 268 LINE",
"503 268 LINE",
"503 0 LINE"
);
}
);
};
hints = (
{
origin = "{0, 4}";
type = Corner;
name = _corner.int_DIR;
options = 1;
},
{
origin = "{0, 5}";
type = Corner;
name = _corner.int_ESQ;
options = 1;
},
{
origin = "{0, 10}";
type = Corner;
name = _corner.dia_esq;
options = 1;
},
{
origin = "{0, 11}";
type = Corner;
name = _corner.dia_dir;
options = 1;
}
);
layerId = "20086791-C5B6-4597-997A-CAD8F8E58507";
paths = (
{
closed = 1;
nodes = (
"426 0 LINE",
"594 150 LINE",
"544 230 LINE",
"398 100 LINE",
"184 100 LINE",
"184 570 LINE",
"458 570 LINE",
"524 505 LINE",
"596 578 LINE",
"504 670 LINE",
"70 670 LINE",
"70 0 LINE"
);
},
{
closed = 1;
nodes = (
"597 0 LINE",
"597 368 LINE",
"350 368 LINE",
"350 268 LINE",
"503 268 LINE",
"503 0 LINE"
);
}
);
width = 682;
}
);
leftKerningGroup = O;
leftMetricsKey = O;
rightKerningGroup = G;
rightMetricsKey = H;
unicode = 0047;
},
{
glyphname = H;
lastChange = "2019-02-08 20:40:44 +0000";
layers = (
{
anchors = (
{
name = top;
position = "{325, 670}";
}
);
components = (
{
name = _part.H;
},
{
name = _part.H;
transform = "{1, 0, 0, 1, 430, 0}";
}
);
layerId = "0018AAE5-3623-47DD-B976-BFE254BC69BD";
paths = (
{
closed = 1;
nodes = (
"545 345 LINE",
"545 365 LINE",
"116 365 LINE",
"116 345 LINE"
);
}
);
width = 660;
},
{
anchors = (
{
name = top;
position = "{335, 670}";
}
);
components = (
{
name = _part.H;
transform = "{1, 0, 0, 1, -50, 0}";
},
{
name = _part.H;
transform = "{1, 0, 0, 1, 357, 0}";
}
);
layerId = "20086791-C5B6-4597-997A-CAD8F8E58507";
paths = (
{
closed = 1;
nodes = (
"549 301 LINE",
"549 401 LINE",
"153 401 LINE",
"153 301 LINE"
);
}
);
width = 691;
}
);
leftKerningGroup = H;
rightKerningGroup = H;
unicode = 0048;
},
{
glyphname = Hbar;
lastChange = "2019-01-02 21:34:29 +0000";
layers = (
{
components = (
{
name = H;
transform = "{1, 0, 0, 1, -0.25, 0}";
}
);
layerId = "0018AAE5-3623-47DD-B976-BFE254BC69BD";
paths = (
{
closed = 1;
nodes = (
"625.5 520 LINE",
"625.5 540 LINE",
"34 540 LINE",
"34 520 LINE"
);
}
);
width = 660;
},
{
components = (
{
name = H;
transform = "{1, 0, 0, 1, -0.625, 0}";
}
);
layerId = "20086791-C5B6-4597-997A-CAD8F8E58507";
paths = (
{
closed = 1;
nodes = (
"661 485.25 LINE",
"661 575.25 LINE",
"30 575.25 LINE",
"30 485.25 LINE"
);
}
);
width = 691;
}
);
unicode = 0126;
},
{
glyphname = I;
lastChange = "2019-01-02 21:34:29 +0000";
layers = (
{
anchors = (
{
name = bottom;
position = "{190, 0}";
},
{
name = ogonek;
position = "{310, 0}";
},
{
name = top;
position = "{190, 670}";
},
{
name = topleft;
position = "{20, 670}";
}
);
components = (
{
name = _part.H;
transform = "{1, 0, 0, 1, 75, 0}";
}
);
layerId = "0018AAE5-3623-47DD-B976-BFE254BC69BD";
leftMetricsKey = "=H-35";
rightMetricsKey = "=H-35";
paths = (
{
closed = 1;
nodes = (
"310 650 LINE",
"310 670 LINE",
"70 670 LINE",
"70 650 LINE"
);
},
{
closed = 1;
nodes = (
"310 0 LINE",
"310 20 LINE",
"70 20 LINE",
"70 0 LINE"
);
}
);
width = 380;
},
{
anchors = (
{
name = bottom;
position = "{190, 0}";
},
{
name = ogonek;
position = "{315, 0}";
},
{
name = top;
position = "{190, 670}";
},
{
name = topleft;
position = "{190, 670}";
}
);
components = (
{
name = _part.H;
transform = "{1, 0, 0, 1, -2, 0}";
}
);
layerId = "20086791-C5B6-4597-997A-CAD8F8E58507";
paths = (
{
closed = 1;
nodes = (
"315 566 LINE",
"315 670 LINE",
"65 670 LINE",
"65 566 LINE"
);
},
{
closed = 1;
nodes = (
"315 0 LINE",
"315 104 LINE",
"65 104 LINE",
"65 0 LINE"
);
}
);
width = 380;
}
);
leftKerningGroup = H;
rightKerningGroup = H;
unicode = 0049;
},
{
glyphname = J;
lastChange = "2019-01-02 21:34:29 +0000";
layers = (
{
anchors = (
{
name = top;
position = "{410, 670}";
}
);
background = {
hints = (
{
origin = "{0, 0}";
type = Corner;
name = _corner.dia_esq;
options = 1;
}
);
paths = (
{
closed = 1;
nodes = (
"420 0 LINE",
"420 670 LINE",
"400 670 LINE",
"400 92 LINE",
"329 20 LINE",
"158 20 LINE",
"90 89 LINE",
"90 236 LINE",
"70 236 LINE",
"70 81 LINE",
"150 0 LINE"
);
}
);
};
hints = (
{
origin = "{0, 0}";
type = Corner;
name = _corner.dia_esq;
options = 1;
},
{
origin = "{0, 4}";
type = Corner;
name = _corner.int_DIR;
options = 1;
},
{
origin = "{0, 7}";
type = Corner;
name = _corner.dia_dir;
options = 1;
},
{
origin = "{0, 3}";
type = Corner;
name = _corner.int_ESQ;
options = 1;
}
);
layerId = "0018AAE5-3623-47DD-B976-BFE254BC69BD";
paths = (
{
closed = 1;
nodes = (
"420 0 LINE",
"420 670 LINE",
"400 670 LINE",
"400 20 LINE",
"90 20 LINE",
"90 236 LINE",
"70 236 LINE",
"70 0 LINE"
);
}
);
width = 525;
},
{
anchors = (
{
name = top;
position = "{419, 670}";
}
);
background = {
hints = (
{
origin = "{0, 0}";
type = Corner;
name = _corner.dia_esq;
options = 1;
}
);
paths = (
{
closed = 1;
nodes = (
"476 0 LINE",
"476 670 LINE",
"362 670 LINE",
"362 150 LINE",
"312 100 LINE",
"214 100 LINE",
"164 150 LINE",
"164 255 LINE",
"50 255 LINE",
"50 91 LINE",
"141 0 LINE"
);
}
);
};
hints = (
{
origin = "{0, 0}";
type = Corner;
name = _corner.dia_esq;
options = 1;
},
{
origin = "{0, 7}";
type = Corner;
name = _corner.dia_dir;
options = 1;
},
{
origin = "{0, 3}";
type = Corner;
name = _corner.int_ESQ;
options = 1;
},
{
origin = "{0, 4}";
type = Corner;
name = _corner.int_DIR;
options = 1;
}
);
layerId = "20086791-C5B6-4597-997A-CAD8F8E58507";
paths = (
{
closed = 1;
nodes = (
"476 0 LINE",
"476 670 LINE",
"362 670 LINE",
"362 100 LINE",
"164 100 LINE",
"164 255 LINE",
"50 255 LINE",
"50 0 LINE"
);
}
);
width = 561;
}
);
rightKerningGroup = J;
rightMetricsKey = H;
unicode = 004A;
},
{
glyphname = K;
lastChange = "2019-01-02 21:34:29 +0000";
layers = (
{
anchors = (
{
name = botton;
position = "{318, 0}";
},
{
name = top;
position = "{283, 670}";
}
);
components = (
{
name = _part.H;
}
);
guideLines = (
{
angle = -42.6125;
position = "{207, 215}";
showMeasurement = 1;
}
);
layerId = "0018AAE5-3623-47DD-B976-BFE254BC69BD";
paths = (
{
closed = 1;
nodes = (
"517 670 LINE",
"492 670 LINE",
"125 264 LINE",
"115 264 LINE",
"115 225 LINE"
);
},
{
closed = 1;
nodes = (
"531 0 LINE",
"253 388 LINE",
"239.705 375 LINE",
"508.705 0 LINE"
);
}
);
width = 571;
},
{
anchors = (
{
name = botton;
position = "{308, 0}";
},
{
name = top;
position = "{323, 670}";
}
);
components = (
{
name = _part.H;
transform = "{1, 0, 0, 1, -50, 0}";
}
);
layerId = "20086791-C5B6-4597-997A-CAD8F8E58507";
paths = (
{
closed = 1;
nodes = (
"625 670 LINE",
"491 670 LINE",
"221 362 LINE",
"161 362 LINE",
"161 132 LINE"
);
},
{
closed = 1;
nodes = (
"625 0 LINE",
"368 400 LINE",
"275 330 LINE",
"487 0 LINE"
);
}
);
width = 640;
}
);
leftKerningGroup = H;
leftMetricsKey = H;
rightKerningGroup = K;
unicode = 004B;
},
{
glyphname = L;
lastChange = "2019-01-02 21:34:29 +0000";
layers = (
{
anchors = (
{
name = botton;
position = "{298, 0}";
},
{
name = top;
position = "{115, 670}";
}
);
components = (
{
name = _part.H;
}
);
layerId = "0018AAE5-3623-47DD-B976-BFE254BC69BD";
paths = (
{
closed = 1;
nodes = (
"491 0 LINE",
"491 20 LINE",
"114 20 LINE",
"114 0 LINE"
);
}
);
width = 501;
},
{
anchors = (
{
name = botton;
position = "{308, 0}";
},
{
name = top;
position = "{142, 670}";
}
);
components = (
{
name = _part.H;
transform = "{1, 0, 0, 1, -50, 0}";
}
);
layerId = "20086791-C5B6-4597-997A-CAD8F8E58507";
paths = (
{
closed = 1;
nodes = (
"523 0 LINE",
"523 104 LINE",
"147 104 LINE",
"147 0 LINE"
);
}
);
width = 543;
}
);
leftKerningGroup = H;
leftMetricsKey = H;
rightKerningGroup = L;
unicode = 004C;
},
{
glyphname = Lslash;
lastChange = "2019-01-02 21:34:29 +0000";
layers = (
{
components = (
{
name = L;
}
);
layerId = "0018AAE5-3623-47DD-B976-BFE254BC69BD";
paths = (
{
closed = 1;
nodes = (
"322 421 LINE",
"322 441 LINE",
"41 319 LINE",
"41 298 LINE"
);
}
);
width = 501;
},
{
components = (
{
name = L;
}
);
layerId = "20086791-C5B6-4597-997A-CAD8F8E58507";
paths = (
{
closed = 1;
nodes = (
"343 364 LINE",
"343 476 LINE",
"35 342 LINE",
"35 229 LINE"
);
}
);
width = 543;
}
);
rightKerningGroup = L;
rightMetricsKey = L;
unicode = 0141;
},
{
glyphname = M;
lastChange = "2019-01-02 21:34:29 +0000";
layers = (
{
background = {
paths = (
{
closed = 1;
nodes = (
"412 0 LINE",
"669 650 LINE",
"701 650 LINE",
"701 670 LINE",
"656 670 LINE",
"406 37 LINE",
"156 670 LINE",
"111 670 LINE",
"111 650 LINE",
"143 650 LINE",
"400 0 LINE"
);
}
);
};
components = (
{
name = _part.H;
transform = "{1, 0, 0, 1, 582, 0}";
},
{
name = _part.H;
}
);
guideLines = (
{
angle = -22.6726;
position = "{402.82, 306.162}";
showMeasurement = 1;
}
);
layerId = "0018AAE5-3623-47DD-B976-BFE254BC69BD";
paths = (
{
closed = 1;
nodes = (
"412 0 LINE",
"669 650 LINE",
"701 650 LINE",
"701 670 LINE",
"656.971 670 LINE",
"405.864 35.081 LINE",
"154.769 670 LINE",
"111 670 LINE",
"111 650 LINE",
"143 650 LINE",
"400 0 LINE"
);
}
);
width = 812;
},
{
components = (
{
name = _part.H;
transform = "{1, 0, 0, 1, 508, 0}";
},
{
name = _part.H;
transform = "{1, 0, 0, 1, -50, 0}";
}
);
layerId = "20086791-C5B6-4597-997A-CAD8F8E58507";
paths = (
{
closed = 1;
nodes = (
"453 0 LINE",
"643 468 LINE",
"725 468 LINE",
"725 670 LINE",
"613 670 LINE",
"421 184 LINE",
"229 670 LINE",
"117 670 LINE",
"113 468 LINE",
"199 468 LINE",
"389 0 LINE"
);
}
);
width = 842;
}
);
leftKerningGroup = M;
leftMetricsKey = H;
rightKerningGroup = M;
rightMetricsKey = H;
unicode = 004D;
},
{
glyphname = N;
lastChange = "2019-01-02 21:34:29 +0000";
layers = (
{
anchors = (
{
name = botton;
position = "{317, 0}";
},
{
name = top;
position = "{322, 670}";
}
);
components = (
{
name = _part.H;
transform = "{1, 0, 0, 1, 413, 0}";
},
{
name = _part.H;
}
);
layerId = "0018AAE5-3623-47DD-B976-BFE254BC69BD";
paths = (
{
closed = 1;
nodes = (
"532 0 LINE",
"532 20 LINE",
"500 20 LINE",
"153 670 LINE",
"111 670 LINE",
"111 650 LINE",
"143 650 LINE",
"490 0 LINE"
);
}
);
width = 643;
},
{
anchors = (
{
name = botton;
position = "{348, 0}";
},
{
name = top;
position = "{347, 670}";
}
);
components = (
{
name = _part.H;
transform = "{1, 0, 0, 1, 362, 0}";
},
{
name = _part.H;
transform = "{1, 0, 0, 1, -50, 0}";
}
);
guideLines = (
{
angle = 29.8077;
position = "{477, 293}";
showMeasurement = 1;
}
);
layerId = "20086791-C5B6-4597-997A-CAD8F8E58507";
paths = (
{
closed = 1;
nodes = (
"580 0 LINE",
"580 202 LINE",
"497 202 LINE",
"231 670 LINE",
"127 670 LINE",
"127 468 LINE",
"221 468 LINE",
"487 0 LINE"
);
}
);
width = 696;
}
);
leftKerningGroup = H;
leftMetricsKey = H;
rightKerningGroup = H;
rightMetricsKey = H;
unicode = 004E;
},
{
glyphname = Eng;
lastChange = "2019-01-02 21:34:29 +0000";
layers = (
{
components = (
{
name = N;
}
);
layerId = "0018AAE5-3623-47DD-B976-BFE254BC69BD";
paths = (
{
closed = 1;
nodes = (
"474 -170 LINE",
"538 -101 LINE",
"538 225 LINE",
"518 225 LINE",
"518 -93 LINE",
"465 -150 LINE",
"363 -150 LINE",
"363 -170 LINE"
);
}
);
width = 643;
},
{
components = (
{
name = N;
}
);
layerId = "20086791-C5B6-4597-997A-CAD8F8E58507";
paths = (
{
closed = 1;
nodes = (
"519 -170 LINE",
"611 -80 LINE",
"611 39 LINE",
"487 39 LINE",
"487 -41 LINE",
"451 -80 LINE",
"401 -80 LINE",
"401 -170 LINE"
);
}
);
width = 696;
},
{
anchors = (
{
name = botton;
position = "{320.444, 0}";
},
{
name = top;
position = "{324.889, 670}";
}
);
associatedMasterId = "0018AAE5-3623-47DD-B976-BFE254BC69BD";
components = (
{
name = _part.H;
transform = "{1, 0, 0, 1, -5.5, 0}";
}
);
layerId = "7AAE9520-2CB4-4F74-ABDF-6165A58D4B54";
name = "{30}";
paths = (
{
closed = 1;
nodes = (
"479.125 -170 LINE",
"546.25 -98.625 LINE",
"546.25 204.375 LINE",
"515.75 204.375 LINE",
"515.75 -87.25 LINE",
"464.75 -142.25 LINE",
"368.5 -142.25 LINE",
"368.5 -170 LINE"
);
},
{
closed = 1;
nodes = (
"537.375 0 LINE",
"537.375 40.25 LINE",
"499.625 40.25 LINE",
"161.625 670 LINE",
"112.75 670 LINE",
"112.75 629.75 LINE",
"151.625 629.75 LINE",
"489.625 0 LINE"
);
},
{
closed = 1;
nodes = (
"546.25 0 LINE",
"546.25 670 LINE",
"515.75 670 LINE",
"515.75 0 LINE"
);
}
);
width = 648.875;
},
{
anchors = (
{
name = botton;
position = "{327.333, 0}";
},
{
name = top;
position = "{330.667, 670}";
}
);
associatedMasterId = "0018AAE5-3623-47DD-B976-BFE254BC69BD";
components = (
{
name = _part.H;
transform = "{1, 0, 0, 1, -16.625, 0}";
}
);
layerId = "60573035-82A2-46F4-ACBE-0C2F01B03DA0";
name = "{50}";
paths = (
{
closed = 1;
nodes = (
"489.125 -170 LINE",
"562.5 -94 LINE",
"562.5 163 LINE",
"511 163 LINE",
"511 -75.625 LINE",
"463.75 -126.625 LINE",
"379 -126.625 LINE",
"379 -170 LINE"
);
},
{
closed = 1;
nodes = (
"548 0 LINE",
"548 80.625 LINE",
"499 80.625 LINE",
"179 670 LINE",
"116.375 670 LINE",
"116.375 589.375 LINE",
"169 589.375 LINE",
"489 0 LINE"
);
},
{
closed = 1;
nodes = (
"562.5 0 LINE",
"562.5 670 LINE",
"511 670 LINE",
"511 0 LINE"
);
}
);
width = 660.625;
},
{
associatedMasterId = "0018AAE5-3623-47DD-B976-BFE254BC69BD";
components = (
{
name = N;
}
);
layerId = "028D4313-5583-4354-9AAB-08263B2C3D0C";
name = "{80}";
paths = (
{
closed = 1;
nodes = (
"505 -170 LINE",
"587 -87 LINE",
"587 101 LINE",
"488 101 LINE",
"488 -59 LINE",
"446 -104 LINE",
"379 -104 LINE",
"379 -170 LINE"
);
}
);
width = 678.375;
}
);
leftMetricsKey = N;
rightMetricsKey = N;
unicode = 014A;
},
{
glyphname = O;
lastChange = "2019-02-17 14:40:58 +0000";
layers = (
{
anchors = (
{
name = bottom;
position = "{325, 0}";
},
{
name = horn;
position = "{538.5, 586}";
},
{
name = ogonek;
position = "{472, 0}";
},
{
name = top;
position = "{325, 670}";
}
);
background = {
paths = (
{
closed = 1;
nodes = (
"472 0 LINE",
"555 84 LINE",
"555 586 LINE",
"472 670 LINE",
"178 670 LINE",
"95 586 LINE",
"95 84 LINE",
"178 0 LINE"
);
},
{
closed = 1;
nodes = (
"115 92 LINE",
"115 578 LINE",
"186 650 LINE",
"464 650 LINE",
"535 578 LINE",
"535 92 LINE",
"464 20 LINE",
"186 20 LINE"
);
}
);
};
hints = (
{
origin = "{0, 2}";
type = Corner;
name = _corner.dia_esq;
options = 1;
},
{
origin = "{0, 1}";
type = Corner;
name = _corner.dia_dir;
options = 1;
},
{
origin = "{0, 0}";
type = Corner;
name = _corner.dia_esq;
options = 1;
},
{
origin = "{0, 3}";
type = Corner;
name = _corner.dia_dir;
options = 1;
},
{
origin = "{1, 0}";
type = Corner;
name = _corner.int_ESQ;
options = 1;
},
{
origin = "{1, 2}";
type = Corner;
name = _corner.int_ESQ;
options = 1;
},
{
origin = "{1, 1}";
type = Corner;
name = _corner.int_DIR;
options = 1;
},
{
origin = "{1, 3}";
type = Corner;
name = _corner.int_DIR;
options = 1;
}
);
layerId = "0018AAE5-3623-47DD-B976-BFE254BC69BD";
paths = (
{
closed = 1;
nodes = (
"555 0 LINE",
"555 670 LINE",
"95 670 LINE",
"95 0 LINE"
);
},
{
closed = 1;
nodes = (
"115 650 LINE",
"535 650 LINE",
"535 20 LINE",
"115 20 LINE"
);
}
);
width = 650;
},
{
anchors = (
{
name = bottom;
position = "{335, 0}";
},
{
name = horn;
position = "{538.5, 586}";
},
{
name = ogonek;
position = "{499, 0}";
},
{
name = top;
position = "{335, 670}";
}
);
background = {
hints = (
{
origin = "{0, 0}";
type = Corner;
name = _corner.dia_esq;
options = 1;
},
{
origin = "{0, 1}";
type = Corner;
name = _corner.dia_dir;
options = 1;
},
{
origin = "{0, 2}";
type = Corner;
name = _corner.dia_esq;
options = 1;
},
{
origin = "{0, 3}";
type = Corner;
name = _corner.dia_dir;
options = 1;
}
);
paths = (
{
closed = 1;
nodes = (
"600 0 LINE",
"600 670 LINE",
"70 670 LINE",
"70 0 LINE"
);
},
{
closed = 1;
nodes = (
"184 150 LINE",
"184 520 LINE",
"234 570 LINE",
"436 570 LINE",
"486 520 LINE",
"486 150 LINE",
"436 100 LINE",
"234 100 LINE"
);
}
);
};
guideLines = (
{
angle = 90;
position = "{383, 731.125}";
showMeasurement = 1;
},
{
position = "{-69.625, 328.75}";
showMeasurement = 1;
}
);
hints = (
{
origin = "{0, 1}";
type = Corner;
name = _corner.dia_dir;
options = 1;
},
{
origin = "{0, 0}";
type = Corner;
name = _corner.dia_esq;
options = 1;
},
{
origin = "{0, 3}";
type = Corner;
name = _corner.dia_dir;
options = 1;
},
{
origin = "{0, 2}";
type = Corner;
name = _corner.dia_esq;
options = 1;
},
{
origin = "{1, 0}";
type = Corner;
name = _corner.int_ESQ;
options = 1;
},
{
origin = "{1, 2}";
type = Corner;
name = _corner.int_ESQ;
options = 1;
},
{
origin = "{1, 3}";
type = Corner;
name = _corner.int_DIR;
options = 1;
},
{
origin = "{1, 1}";
type = Corner;
name = _corner.int_DIR;
options = 1;
}
);
layerId = "20086791-C5B6-4597-997A-CAD8F8E58507";
paths = (
{
closed = 1;
nodes = (
"600 0 LINE",
"600 670 LINE",
"70 670 LINE",
"70 0 LINE"
);
},
{
closed = 1;
nodes = (
"184 570 LINE",
"486 570 LINE",
"486 100 LINE",
"184 100 LINE"
);
}
);
width = 670;
}
);
leftKerningGroup = O;
rightKerningGroup = O;
unicode = 004F;
},
{
glyphname = Oogonek;
lastChange = "2019-01-02 21:34:29 +0000";
layers = (
{
components = (
{
name = O;
}
);
layerId = "0018AAE5-3623-47DD-B976-BFE254BC69BD";
paths = (
{
closed = 1;
nodes = (
"483 -126 LINE",
"483 -106 LINE",
"463 -106 LINE",
"434 -77 LINE",
"434 -40.75 LINE",
"472 0 LINE",
"449 0 LINE",
"414 -35 LINE",
"414 -83 LINE",
"457 -126 LINE"
);
}
);
width = 650;
},
{
components = (
{
name = O;
}
);
layerId = "20086791-C5B6-4597-997A-CAD8F8E58507";
paths = (
{
closed = 1;
nodes = (
"511.875 -156 LINE",
"511.875 -82 LINE",
"482.875 -82 LINE",
"463.875 -63 LINE",
"463.875 -35 LINE",
"499 0 LINE",
"435.875 0 LINE",
"394.875 -30 LINE",
"394.875 -98 LINE",
"452.875 -156 LINE"
);
}
);
width = 670;
}
);
unicode = 01EA;
},
{
glyphname = Oslash;
lastChange = "2019-01-02 21:34:29 +0000";
layers = (
{
components = (
{
name = O;
}
);
layerId = "0018AAE5-3623-47DD-B976-BFE254BC69BD";
paths = (
{
closed = 1;
nodes = (
"515 618 LINE",
"498 629 LINE",
"135 53 LINE",
"152 42 LINE"
);
}
);
width = 650;
},
{
components = (
{
name = O;
}
);
layerId = "20086791-C5B6-4597-997A-CAD8F8E58507";
paths = (
{
closed = 1;
nodes = (
"568 594 LINE",
"502 649 LINE",
"129 97 LINE",
"197 42 LINE"
);
}
);
width = 670;
}
);
leftKerningGroup = O;
leftMetricsKey = O;
rightKerningGroup = O;
rightMetricsKey = O;
unicode = 00D8;
},
{
glyphname = OE;
lastChange = "2019-01-02 21:34:29 +0000";
layers = (
{
components = (
{
name = _part.H;
transform = "{1, 0, 0, 1, 430, 0}";
},
{
name = O;
}
);
layerId = "0018AAE5-3623-47DD-B976-BFE254BC69BD";
paths = (
{
closed = 1;
nodes = (
"945 0 LINE",
"945 20 LINE",
"546 20 LINE",
"546 0 LINE"
);
},
{
closed = 1;
nodes = (
"945 650 LINE",
"945 670 LINE",
"546 670 LINE",
"546 650 LINE"
);
},
{
closed = 1;
nodes = (
"891 345 LINE",
"891 365 LINE",
"546 365 LINE",
"546 345 LINE"
);
}
);
width = 1010;
},
{
components = (
{
name = _part.H;
transform = "{1, 0, 0, 1, 351, 0}";
},
{
name = O;
}
);
layerId = "20086791-C5B6-4597-997A-CAD8F8E58507";
paths = (
{
closed = 1;
nodes = (
"944 0 LINE",
"944 104 LINE",
"548 104 LINE",
"548 0 LINE"
);
},
{
closed = 1;
nodes = (
"944 566 LINE",
"944 670 LINE",
"548 670 LINE",
"548 566 LINE"
);
},
{
closed = 1;
nodes = (
"914 299 LINE",
"914 403 LINE",
"548 403 LINE",
"548 299 LINE"
);
}
);
width = 1004;
}
);
leftKerningGroup = O;
leftMetricsKey = O;
rightKerningGroup = E;
rightMetricsKey = E;
unicode = 0152;
},
{
glyphname = P;
lastChange = "2019-01-02 21:34:29 +0000";
layers = (
{
background = {
components = (
{
name = _part.l;
transform = "{1, 0, 0, 1, 25, 0}";
}
);
hints = (
{
origin = "{0, 0}";
type = Corner;
name = _corner.dia_esq;
options = 1;
},
{
origin = "{0, 1}";
type = Corner;
name = _corner.dia_dir;
options = 1;
}
);
paths = (
{
closed = 1;
nodes = (
"495 285 LINE",
"495 670 LINE",
"118 670 LINE",
"118 650 LINE",
"404 650 LINE",
"475 578 LINE",
"475 377 LINE",
"404 305 LINE",
"118 305 LINE",
"118 285 LINE"
);
}
);
};
components = (
{
name = _part.H;
}
);
hints = (
{
origin = "{0, 1}";
type = Corner;
name = _corner.dia_dir;
options = 1;
},
{
origin = "{0, 0}";
type = Corner;
name = _corner.dia_esq;
options = 1;
},
{
origin = "{0, 5}";
type = Corner;
name = _corner.int_ESQ;
options = 1;
},
{
origin = "{0, 4}";
type = Corner;
name = _corner.int_DIR;
options = 1;
}
);
layerId = "0018AAE5-3623-47DD-B976-BFE254BC69BD";
paths = (
{
closed = 1;
nodes = (
"495 285 LINE",
"495 670 LINE",
"118 670 LINE",
"118 650 LINE",
"475 650 LINE",
"475 305 LINE",
"118 305 LINE",
"118 285 LINE"
);
}
);
width = 555;
},
{
background = {
hints = (
{
origin = "{0, 0}";
type = Corner;
name = _corner.dia_esq;
options = 1;
},
{
origin = "{0, 1}";
type = Corner;
name = _corner.dia_dir;
options = 1;
}
);
paths = (
{
closed = 1;
nodes = (
"563 231 LINE",
"563 670 LINE",
"168 670 LINE",
"168 570 LINE",
"399 570 LINE",
"449 520 LINE",
"449 381 LINE",
"399 331 LINE",
"168 331 LINE",
"168 231 LINE"
);
}
);
};
components = (
{
name = _part.H;
transform = "{1, 0, 0, 1, -50, 0}";
}
);
hints = (
{
origin = "{0, 0}";
type = Corner;
name = _corner.dia_esq;
options = 1;
},
{
origin = "{0, 1}";
type = Corner;
name = _corner.dia_dir;
options = 1;
},
{
origin = "{0, 4}";
type = Corner;
name = _corner.int_DIR;
options = 1;
},
{
origin = "{0, 5}";
type = Corner;
name = _corner.int_ESQ;
options = 1;
}
);
layerId = "20086791-C5B6-4597-997A-CAD8F8E58507";
paths = (
{
closed = 1;
nodes = (
"563 231 LINE",
"563 670 LINE",
"168 670 LINE",
"168 570 LINE",
"449 570 LINE",
"449 331 LINE",
"168 331 LINE",
"168 231 LINE"
);
}
);
width = 593;
}
);
leftKerningGroup = H;
leftMetricsKey = H;
unicode = 0050;
},
{
glyphname = Thorn;
lastChange = "2019-01-02 21:34:29 +0000";
layers = (
{
components = (
{
name = _part.H;
}
);
hints = (
{
origin = "{0, 0}";
type = Corner;
name = _corner.dia_esq;
options = 1;
},
{
origin = "{0, 1}";
type = Corner;
name = _corner.dia_dir;
options = 1;
},
{
origin = "{0, 4}";
type = Corner;
name = _corner.int_DIR;
options = 1;
},
{
origin = "{0, 5}";
type = Corner;
name = _corner.int_ESQ;
options = 1;
}
);
layerId = "0018AAE5-3623-47DD-B976-BFE254BC69BD";
paths = (
{
closed = 1;
nodes = (
"495 153 LINE",
"495 538 LINE",
"118 538 LINE",
"118 518 LINE",
"475 518 LINE",
"475 173 LINE",
"118 173 LINE",
"118 153 LINE"
);
}
);
width = 555;
},
{
components = (
{
name = _part.H;
transform = "{1, 0, 0, 1, -50, -2}";
}
);
hints = (
{
origin = "{0, 0}";
type = Corner;
name = _corner.dia_esq;
options = 1;
},
{
origin = "{0, 1}";
type = Corner;
name = _corner.dia_dir;
options = 1;
},
{
origin = "{0, 5}";
type = Corner;
name = _corner.int_ESQ;
options = 1;
},
{
origin = "{0, 4}";
type = Corner;
name = _corner.int_DIR;
options = 1;
}
);
layerId = "20086791-C5B6-4597-997A-CAD8F8E58507";
paths = (
{
closed = 1;
nodes = (
"563 124 LINE",
"563 563 LINE",
"168 563 LINE",
"168 463 LINE",
"449 463 LINE",
"449 224 LINE",
"168 224 LINE",
"168 124 LINE"
);
}
);
width = 593;
}
);
leftMetricsKey = P;
rightMetricsKey = P;
unicode = 00DE;
},
{
glyphname = Q;
lastChange = "2019-01-02 21:34:29 +0000";
layers = (
{
components = (
{
name = O;
}
);
layerId = "0018AAE5-3623-47DD-B976-BFE254BC69BD";
paths = (
{
closed = 1;
nodes = (
"334.9 -117 LINE",
"334.9 131 LINE",
"314.9 131 LINE",
"314.9 -117 LINE"
);
}
);
width = 650;
},
{
components = (
{
name = O;
}
);
layerId = "20086791-C5B6-4597-997A-CAD8F8E58507";
paths = (
{
closed = 1;
nodes = (
"385 -81 LINE",
"385 190 LINE",
"287 190 LINE",
"287 -81 LINE"
);
}
);
width = 670;
}
);
leftKerningGroup = O;
leftMetricsKey = O;
rightKerningGroup = O;
rightMetricsKey = O;
unicode = 0051;
},
{
glyphname = R;
lastChange = "2019-01-02 21:34:29 +0000";
layers = (
{
anchors = (
{
name = botton;
position = "{318, 0}";
},
{
name = top;
position = "{280, 670}";
}
);
background = {
components = (
{
name = _part.l;
transform = "{1, 0, 0, 1, 10, 0}";
}
);
hints = (
{
origin = "{0, 0}";
type = Corner;
name = _corner.dia_esq;
options = 1;
},
{
origin = "{0, 1}";
type = Corner;
name = _corner.dia_dir;
options = 1;
}
);
paths = (
{
closed = 1;
nodes = (
"507 305 LINE",
"507 670 LINE",
"118 670 LINE",
"118 650 LINE",
"416 650 LINE",
"487 578 LINE",
"487 397 LINE",
"416 325 LINE",
"118 325 LINE",
"118 305 LINE"
);
}
);
};
components = (
{
name = _part.H;
}
);
hints = (
{
origin = "{0, 1}";
type = Corner;
name = _corner.dia_dir;
options = 1;
},
{
origin = "{0, 0}";
type = Corner;
name = _corner.dia_esq;
options = 1;
},
{
origin = "{0, 5}";
type = Corner;
name = _corner.int_ESQ;
options = 1;
},
{
origin = "{0, 4}";
type = Corner;
name = _corner.int_DIR;
options = 1;
}
);
layerId = "0018AAE5-3623-47DD-B976-BFE254BC69BD";
paths = (
{
closed = 1;
nodes = (
"507 305 LINE",
"507 670 LINE",
"118 670 LINE",
"118 650 LINE",
"487 650 LINE",
"487 325 LINE",
"118 325 LINE",
"118 305 LINE"
);
},
{
closed = 1;
nodes = (
"535 0 LINE",
"373 315 LINE",
"352.5 315 LINE",
"514.5 0 LINE"
);
}
);
width = 605;
},
{
anchors = (
{
name = botton;
position = "{308, 0}";
},
{
name = top;
position = "{308, 670}";
}
);
background = {
hints = (
{
origin = "{0, 0}";
type = Corner;
name = _corner.dia_esq;
options = 1;
},
{
origin = "{0, 1}";
type = Corner;
name = _corner.dia_dir;
options = 1;
}
);
paths = (
{
closed = 1;
nodes = (
"576 246 LINE",
"576 670 LINE",
"168 670 LINE",
"168 570 LINE",
"412 570 LINE",
"462 520 LINE",
"462 396 LINE",
"412 346 LINE",
"168 346 LINE",
"168 246 LINE"
);
}
);
};
components = (
{
name = _part.H;
transform = "{1, 0, 0, 1, -50, 0}";
}
);
hints = (
{
origin = "{0, 0}";
type = Corner;
name = _corner.dia_esq;
options = 1;
},
{
origin = "{0, 5}";
type = Corner;
name = _corner.int_ESQ;
options = 1;
},
{
origin = "{0, 4}";
type = Corner;
name = _corner.int_DIR;
options = 1;
},
{
origin = "{0, 1}";
type = Corner;
name = _corner.dia_dir;
options = 1;
}
);
layerId = "20086791-C5B6-4597-997A-CAD8F8E58507";
paths = (
{
closed = 1;
nodes = (
"576 246 LINE",
"576 670 LINE",
"168 670 LINE",
"168 570 LINE",
"462 570 LINE",
"462 346 LINE",
"168 346 LINE",
"168 246 LINE"
);
},
{
closed = 1;
nodes = (
"598 0 LINE",
"458 315 LINE",
"334 315 LINE",
"469 0 LINE"
);
}
);
width = 648;
},
{
anchors = (
{
name = botton;
position = "{311.333, 0}";
},
{
name = top;
position = "{298.667, 670}";
}
);
associatedMasterId = "0018AAE5-3623-47DD-B976-BFE254BC69BD";
background = {
hints = (
{
origin = "{0, 0}";
type = Corner;
name = _corner.dia_esq;
options = 1;
},
{
origin = "{0, 1}";
type = Corner;
name = _corner.dia_dir;
options = 1;
},
{
origin = "{0, 4}";
type = Corner;
name = _corner.int_DIR;
options = 1;
},
{
origin = "{0, 5}";
type = Corner;
name = _corner.int_ESQ;
options = 1;
}
);
paths = (
{
closed = 1;
nodes = (
"553 265.625 LINE",
"553 670 LINE",
"151.375 670 LINE",
"151.375 596.625 LINE",
"470.375 596.625 LINE",
"470.375 339 LINE",
"151.375 339 LINE",
"151.375 265.625 LINE"
);
},
{
closed = 1;
nodes = (
"576.625 0 LINE",
"442.625 315 LINE",
"353.625 315 LINE",
"487.625 0 LINE"
);
}
);
};
components = (
{
name = _part.H;
transform = "{1, 0, 0, 1, -33.344, 0}";
}
);
hints = (
{
origin = "{0, 0}";
type = Corner;
name = _corner.dia_esq;
options = 1;
},
{
origin = "{0, 5}";
type = Corner;
name = _corner.int_ESQ;
options = 1;
},
{
origin = "{0, 4}";
type = Corner;
name = _corner.int_DIR;
options = 1;
},
{
origin = "{0, 1}";
type = Corner;
name = _corner.dia_dir;
options = 1;
}
);
layerId = "65B8442F-3DDE-4BDA-B1E5-548445F3A76E";
name = "{80}";
paths = (
{
closed = 1;
nodes = (
"553 265.656 LINE",
"553 670 LINE",
"151.344 670 LINE",
"151.344 596.656 LINE",
"470.344 596.656 LINE",
"470.344 339 LINE",
"151.344 339 LINE",
"151.344 265.656 LINE"
);
},
{
closed = 1;
nodes = (
"576.906 0 LINE",
"432.906 315 LINE",
"343.531 315 LINE",
"485.031 0 LINE"
);
}
);
width = 633.5;
},
{
anchors = (
{
name = botton;
position = "{314.75, 0}";
},
{
name = top;
position = "{289.5, 670}";
}
);
associatedMasterId = "0018AAE5-3623-47DD-B976-BFE254BC69BD";
background = {
anchors = (
{
name = botton;
position = "{314.75, 0}";
},
{
name = top;
position = "{289.5, 670}";
}
);
hints = (
{
origin = "{0, 0}";
type = Corner;
name = _corner.dia_esq;
options = 1;
},
{
origin = "{0, 1}";
type = Corner;
name = _corner.dia_dir;
options = 1;
},
{
origin = "{0, 4}";
type = Corner;
name = _corner.int_DIR;
options = 1;
},
{
origin = "{0, 5}";
type = Corner;
name = _corner.int_ESQ;
options = 1;
}
);
paths = (
{
closed = 1;
nodes = (
"530.125 285.375 LINE",
"530.125 670 LINE",
"134.75 670 LINE",
"134.75 623.375 LINE",
"478.75 623.375 LINE",
"478.75 332 LINE",
"134.75 332 LINE",
"134.75 285.375 LINE"
);
},
{
closed = 1;
nodes = (
"555.5 0 LINE",
"401.5 315 LINE",
"345.5 315 LINE",
"498.5 0 LINE"
);
}
);
};
components = (
{
name = _part.H;
transform = "{1, 0, 0, 1, -16.563, 0}";
}
);
hints = (
{
origin = "{0, 0}";
type = Corner;
name = _corner.dia_esq;
options = 1;
},
{
origin = "{0, 5}";
type = Corner;
name = _corner.int_ESQ;
options = 1;
},
{
origin = "{0, 4}";
type = Corner;
name = _corner.int_DIR;
options = 1;
},
{
origin = "{0, 1}";
type = Corner;
name = _corner.dia_dir;
options = 1;
}
);
layerId = "87DBFC4E-05BE-4FBA-9B5E-186EAD05B9B5";
name = "{50}";
paths = (
{
closed = 1;
nodes = (
"530.125 285.25 LINE",
"530.125 670 LINE",
"134.875 670 LINE",
"134.875 623.25 LINE",
"478.875 623.25 LINE",
"478.875 332 LINE",
"134.875 332 LINE",
"134.875 285.25 LINE"
);
},
{
closed = 1;
nodes = (
"555.875 0 LINE",
"407.875 315 LINE",
"353.125 315 LINE",
"501.125 0 LINE"
);
}
);
width = 619.25;
}
);
leftKerningGroup = H;
leftMetricsKey = H;
rightKerningGroup = R;
rightMetricsKey = s;
unicode = 0052;
},
{
glyphname = S;
lastChange = "2019-01-02 21:34:29 +0000";
layers = (
{
anchors = (
{
name = botton;
position = "{300, 0}";
},
{
name = top;
position = "{300, 670}";
}
);
hints = (
{
origin = "{0, 6}";
type = Corner;
name = _corner.dia_esq;
options = 1;
},
{
origin = "{0, 0}";
type = Corner;
name = _corner.dia_esq;
options = 1;
},
{
origin = "{0, 7}";
type = Corner;
name = _corner.dia_dir;
options = 1;
},
{
origin = "{0, 1}";
type = Corner;
name = _corner.dia_dir;
options = 1;
},
{
origin = "{0, 3}";
type = Corner;
name = _corner.int_ESQ;
options = 1;
},
{
origin = "{0, 9}";
type = Corner;
name = _corner.int_ESQ;
options = 1;
},
{
origin = "{0, 2}";
type = Corner;
name = _corner.int_DIR;
options = 1;
},
{
origin = "{0, 8}";
type = Corner;
name = _corner.int_DIR;
options = 1;
}
);
layerId = "0018AAE5-3623-47DD-B976-BFE254BC69BD";
paths = (
{
closed = 1;
nodes = (
"525 0 LINE",
"525 355 LINE",
"105 355 LINE",
"105 650 LINE",
"494 650 LINE",
"494 670 LINE",
"85 670 LINE",
"85 335 LINE",
"505 335 LINE",
"505 20 LINE",
"111 20 LINE",
"111 0 LINE"
);
}
);
width = 610;
},
{
anchors = (
{
name = botton;
position = "{317, 0}";
},
{
name = top;
position = "{317, 670}";
}
);
background = {
hints = (
{
origin = "{0, 0}";
type = Corner;
name = _corner.dia_esq;
options = 1;
},
{
origin = "{0, 1}";
type = Corner;
name = _corner.dia_dir;
options = 1;
},
{
origin = "{0, 8}";
type = Corner;
name = _corner.dia_esq;
options = 1;
},
{
origin = "{0, 9}";
type = Corner;
name = _corner.dia_dir;
options = 1;
}
);
paths = (
{
closed = 1;
nodes = (
"574 0 LINE",
"574 397 LINE",
"229 397 LINE",
"179 447 LINE",
"179 520 LINE",
"225 566 LINE",
"537 566 LINE",
"537 670 LINE",
"65 670 LINE",
"65 297 LINE",
"410 297 LINE",
"460 247 LINE",
"460 150 LINE",
"414 104 LINE",
"88 104 LINE",
"88 0 LINE"
);
}
);
};
hints = (
{
origin = "{0, 0}";
type = Corner;
name = _corner.dia_esq;
options = 1;
},
{
origin = "{0, 1}";
type = Corner;
name = _corner.dia_dir;
options = 1;
},
{
origin = "{0, 6}";
type = Corner;
name = _corner.dia_esq;
options = 1;
},
{
origin = "{0, 7}";
type = Corner;
name = _corner.dia_dir;
options = 1;
},
{
origin = "{0, 9}";
type = Corner;
name = _corner.int_ESQ;
options = 1;
},
{
origin = "{0, 3}";
type = Corner;
name = _corner.int_ESQ;
options = 1;
},
{
origin = "{0, 2}";
type = Corner;
name = _corner.int_DIR;
options = 1;
},
{
origin = "{0, 8}";
type = Corner;
name = _corner.int_DIR;
options = 1;
}
);
layerId = "20086791-C5B6-4597-997A-CAD8F8E58507";
paths = (
{
closed = 1;
nodes = (
"574 0 LINE",
"574 397 LINE",
"179 397 LINE",
"179 566 LINE",
"537 566 LINE",
"537 670 LINE",
"65 670 LINE",
"65 297 LINE",
"460 297 LINE",
"460 104 LINE",
"88 104 LINE",
"88 0 LINE"
);
}
);
width = 639;
}
);
leftKerningGroup = S;
rightKerningGroup = S;
unicode = 0053;
},
{
glyphname = Germandbls;
lastChange = "2019-01-02 21:34:29 +0000";
layers = (
{
guideLines = (
{
position = "{253, 399}";
}
);
layerId = "20086791-C5B6-4597-997A-CAD8F8E58507";
paths = (
{
closed = 1;
nodes = (
"198.875 0 LINE",
"198.75 530 LINE",
"239 569.75 LINE",
"361.375 570.125 LINE",
"411.25 520 LINE",
"269.375 379 LINE",
"269.375 299 LINE",
"431.875 299.25 LINE",
"482 249 LINE",
"482.125 140 LINE",
"441.875 100.25 LINE",
"367.25 100 LINE",
"300.25 166 LINE",
"226.25 91 LINE",
"317.25 0 LINE",
"494.875 0 LINE",
"595.875 101 LINE",
"595.875 288 LINE",
"484.875 399 LINE",
"423.25 399 LINE",
"515.125 490.875 LINE",
"515.5 569 LINE",
"414.5 670 LINE",
"186 670 LINE",
"85 569 LINE",
"85 0 LINE"
);
}
);
width = 665.875;
},
{
layerId = "0018AAE5-3623-47DD-B976-BFE254BC69BD";
paths = (
{
closed = 1;
nodes = (
"125 0 LINE",
"125 580 LINE",
"194 650 LINE",
"394 650 LINE",
"463 579.875 LINE",
"282.75 387 LINE",
"282.75 367 LINE",
"429.125 367 LINE",
"528 261.75 LINE",
"528 90 LINE",
"459 20 LINE",
"292 20 LINE",
"205 108 LINE",
"192 95 LINE",
"286 0 LINE",
"465 0 LINE",
"548 84 LINE",
"548 267 LINE",
"435.875 387 LINE",
"307.875 387 LINE",
"483 574.5 LINE",
"483 586 LINE",
"400 670 LINE",
"188 670 LINE",
"105 586 LINE",
"105 0 LINE"
);
}
);
width = 633;
}
);
leftMetricsKey = H;
rightMetricsKey = B;
unicode = 1E9E;
},
{
glyphname = Schwa;
lastChange = "2019-01-02 21:34:29 +0000";
layers = (
{
layerId = "0018AAE5-3623-47DD-B976-BFE254BC69BD";
paths = (
{
closed = 1;
nodes = (
"532 0 LINE",
"615 84 LINE",
"615 586 LINE",
"532 670 LINE",
"105 670 LINE",
"105 650 LINE",
"526 650 LINE",
"595 580 LINE",
"595 90 LINE",
"526 20 LINE",
"184 20 LINE",
"115 90 LINE",
"115 327 LINE",
"606.625 327 LINE",
"606.625 345.875 LINE",
"95 345.875 LINE",
"95 84 LINE",
"178 0 LINE"
);
}
);
width = 710;
},
{
background = {
hints = (
{
origin = "{0, 2}";
type = Corner;
name = _corner.int_DIR;
options = 1;
},
{
origin = "{0, 3}";
type = Corner;
name = _corner.int_ESQ;
options = 1;
},
{
origin = "{0, 4}";
type = Corner;
name = _corner.int_DIR;
options = 1;
},
{
origin = "{0, 7}";
type = Corner;
name = _corner.dia_dir;
options = 1;
},
{
origin = "{0, 8}";
type = Corner;
name = _corner.dia_esq;
options = 1;
},
{
origin = "{0, 9}";
type = Corner;
name = _corner.dia_dir;
options = 1;
}
);
paths = (
{
closed = 1;
nodes = (
"76.25 671.125 LINE",
"76.25 544 LINE",
"503 544 LINE",
"503 120.125 LINE",
"220.375 120.125 LINE",
"220.375 392.75 LINE",
"65 392.75 LINE",
"65 0 LINE",
"658.375 0 LINE",
"658.375 671.125 LINE"
);
},
{
closed = 1;
nodes = (
"65 392.75 LINE",
"65 272.625 LINE",
"548.25 272.625 LINE",
"548.25 392.75 LINE"
);
}
);
};
layerId = "20086791-C5B6-4597-997A-CAD8F8E58507";
paths = (
{
closed = 1;
nodes = (
"559 0 LINE",
"660 101 LINE",
"660 569 LINE",
"559 670 LINE",
"82 670 LINE",
"82 569.75 LINE",
"505.875 570.125 LINE",
"545.75 530 LINE",
"546.125 140.125 LINE",
"506 100.25 LINE",
"224.125 99.875 LINE",
"184.25 140 LINE",
"184 293.25 LINE",
"599.875 293.25 LINE",
"599.875 390.25 LINE",
"70 390.25 LINE",
"70 101 LINE",
"171 0 LINE"
);
}
);
width = 730;
}
);
leftMetricsKey = O;
rightMetricsKey = O;
unicode = 018F;
},
{
glyphname = T;
lastChange = "2019-03-05 14:29:45 +0000";
layers = (
{
anchors = (
{
name = botton;
position = "{245, 0}";
},
{
name = top;
position = "{245, 670}";
}
);
components = (
{
name = _part.H;
transform = "{1, 0, 0, 1, 130, 0}";
}
);
layerId = "0018AAE5-3623-47DD-B976-BFE254BC69BD";
paths = (
{
closed = 1;
nodes = (
"479 650 LINE",
"479 670 LINE",
"10 670 LINE",
"10 650 LINE"
);
}
);
width = 489;
},
{
anchors = (
{
name = botton;
position = "{258, 0}";
},
{
name = top;
position = "{257, 670}";
}
);
components = (
{
name = _part.H;
transform = "{1, 0, 0, 1, 66, 0}";
}
);
layerId = "20086791-C5B6-4597-997A-CAD8F8E58507";
paths = (
{
closed = 1;
nodes = (
"501 566 LINE",
"501 670 LINE",
"15 670 LINE",
"15 566 LINE"
);
}
);
width = 516;
}
);
leftKerningGroup = T;
rightKerningGroup = T;
unicode = 0054;
},
{
glyphname = Tbar;
lastChange = "2019-01-02 21:34:29 +0000";
layers = (
{
components = (
{
name = T;
}
);
layerId = "0018AAE5-3623-47DD-B976-BFE254BC69BD";
paths = (
{
closed = 1;
nodes = (
"415 354 LINE",
"415 374 LINE",
"75 374 LINE",
"75 354 LINE"
);
}
);
width = 489;
},
{
components = (
{
name = T;
}
);
layerId = "20086791-C5B6-4597-997A-CAD8F8E58507";
paths = (
{
closed = 1;
nodes = (
"473 290 LINE",
"473 374 LINE",
"73 374 LINE",
"73 290 LINE"
);
}
);
width = 516;
}
);
leftKerningGroup = T;
leftMetricsKey = T;
rightKerningGroup = T;
rightMetricsKey = T;
unicode = 0166;
},
{
glyphname = Tcedilla;
lastChange = "2019-02-18 19:24:39 +0000";
layers = (
{
components = (
{
name = T;
}
);
layerId = "0018AAE5-3623-47DD-B976-BFE254BC69BD";
paths = (
{
closed = 1;
nodes = (
"220 -120 LINE",
"255 0 LINE",
"235 0 LINE",
"201 -120 LINE"
);
}
);
width = 489;
},
{
components = (
{
name = T;
}
);
layerId = "20086791-C5B6-4597-997A-CAD8F8E58507";
paths = (
{
closed = 1;
nodes = (
"280 -114 LINE",
"315 0 LINE",
"221 0 LINE",
"203 -114 LINE"
);
}
);
width = 516;
}
);
leftKerningGroup = T;
rightKerningGroup = T;
unicode = 0162;
},
{
glyphname = U;
lastChange = "2019-01-02 21:34:29 +0000";
layers = (
{
anchors = (
{
name = bottom;
position = "{329, 0}";
},
{
name = horn;
position = "{555, 586}";
},
{
name = ogonek;
position = "{369, 0}";
},
{
name = top;
position = "{329, 670}";
},
{
name = topright;
position = "{643, 670}";
}
);
background = {
hints = (
{
origin = "{0, 0}";
type = Corner;
name = _corner.dia_dir;
options = 1;
},
{
origin = "{0, 1}";
type = Corner;
name = _corner.dia_esq;
options = 1;
},
{
origin = "{0, 4}";
type = Corner;
name = _corner.int_ESQ;
options = 1;
},
{
origin = "{0, 5}";
type = Corner;
name = _corner.int_DIR;
options = 1;
}
);
paths = (
{
closed = 1;
nodes = (
"100 0 LINE",
"558 0 LINE",
"558 670 LINE",
"538 670 LINE",
"538 20 LINE",
"120 20 LINE",
"120 670 LINE",
"100 670 LINE"
);
}
);
};
hints = (
{
origin = "{0, 0}";
type = Corner;
name = _corner.dia_esq;
options = 1;
},
{
origin = "{0, 7}";
type = Corner;
name = _corner.dia_dir;
options = 1;
},
{
origin = "{0, 3}";
type = Corner;
name = _corner.int_ESQ;
options = 1;
},
{
origin = "{0, 4}";
type = Corner;
name = _corner.int_DIR;
options = 1;
}
);
layerId = "0018AAE5-3623-47DD-B976-BFE254BC69BD";
paths = (
{
closed = 1;
nodes = (
"558 0 LINE",
"558 670 LINE",
"538 670 LINE",
"538 20 LINE",
"120 20 LINE",
"120 670 LINE",
"100 670 LINE",
"100 0 LINE"
);
}
);
width = 658;
},
{
anchors = (
{
name = bottom;
position = "{341, 0}";
},
{
name = horn;
position = "{602, 586}";
},
{
name = ogonek;
position = "{408, 0}";
},
{
name = top;
position = "{340, 670}";
},
{
name = topright;
position = "{641, 670}";
}
);
hints = (
{
origin = "{0, 0}";
type = Corner;
name = _corner.dia_esq;
options = 1;
},
{
origin = "{0, 7}";
type = Corner;
name = _corner.dia_dir;
options = 1;
},
{
origin = "{0, 4}";
type = Corner;
name = _corner.int_DIR;
},
{
origin = "{0, 3}";
type = Corner;
name = _corner.int_ESQ;
}
);
layerId = "20086791-C5B6-4597-997A-CAD8F8E58507";
paths = (
{
closed = 1;
nodes = (
"605 0 LINE",
"605 670 LINE",
"491 670 LINE",
"491 100 LINE",
"189 100 LINE",
"189 670 LINE",
"75 670 LINE",
"75 0 LINE"
);
}
);
width = 680;
}
);
leftKerningGroup = U;
rightKerningGroup = U;
unicode = 0055;
},
{
glyphname = Uacute;
lastChange = "2019-01-02 21:34:29 +0000";
layers = (
{
anchors = (
{
name = bottom;
position = "{329, 0}";
},
{
name = ogonek;
position = "{369, 0}";
},
{
name = top;
position = "{329, 670}";
},
{
name = topright;
position = "{643, 670}";
}
);
components = (
{
name = U;
},
{
name = acutecomb;
transform = "{1, 0, 0, 1, 299, 0}";
}
);
layerId = "0018AAE5-3623-47DD-B976-BFE254BC69BD";
width = 658;
},
{
anchors = (
{
name = bottom;
position = "{341, 0}";
},
{
name = ogonek;
position = "{408, 0}";
},
{
name = top;
position = "{340, 670}";
},
{
name = topright;
position = "{641, 670}";
}
);
background = {
paths = (
{
closed = 1;
nodes = (
"386 725 LINE",
"512 865 LINE",
"386 865 LINE",
"294 725 LINE"
);
}
);
};
components = (
{
name = U;
},
{
name = acutecomb;
transform = "{1, 0, 0, 1, 254, 0}";
}
);
layerId = "20086791-C5B6-4597-997A-CAD8F8E58507";
width = 680;
}
);
leftKerningGroup = U;
rightKerningGroup = U;
unicode = 00DA;
},
{
glyphname = Ucircumflex;
lastChange = "2019-01-02 21:34:29 +0000";
layers = (
{
anchors = (
{
name = bottom;
position = "{329, 0}";
},
{
name = ogonek;
position = "{369, 0}";
},
{
name = top;
position = "{329, 670}";
},
{
name = topright;
position = "{643, 670}";
}
);
components = (
{
name = U;
},
{
name = circumflexcomb;
transform = "{1, 0, 0, 1, 192, 0}";
}
);
layerId = "0018AAE5-3623-47DD-B976-BFE254BC69BD";
width = 658;
},
{
anchors = (
{
name = bottom;
position = "{341, 0}";
},
{
name = ogonek;
position = "{408, 0}";
},
{
name = top;
position = "{340, 670}";
},
{
name = topright;
position = "{641, 670}";
}
);
background = {
paths = (
{
closed = 1;
nodes = (
"279 735 LINE",
"340 797 LINE",
"340 797 LINE",
"401 735 LINE",
"493 735 LINE",
"398 865 LINE",
"282 865 LINE",
"187 735 LINE"
);
}
);
};
components = (
{
name = U;
},
{
name = circumflexcomb;
transform = "{1, 0, 0, 1, 147, 0}";
}
);
layerId = "20086791-C5B6-4597-997A-CAD8F8E58507";
width = 680;
}
);
leftKerningGroup = U;
rightKerningGroup = U;
unicode = 00DB;
},
{
glyphname = Udieresis;
lastChange = "2019-03-23 14:37:44 +0000";
layers = (
{
anchors = (
{
name = bottom;
position = "{329, 0}";
},
{
name = ogonek;
position = "{369, 0}";
},
{
name = top;
position = "{329, 670}";
},
{
name = topright;
position = "{643, 670}";
}
);
components = (
{
name = U;
},
{
name = dieresiscomb;
transform = "{1, 0, 0, 1, 178, 29}";
}
);
layerId = "0018AAE5-3623-47DD-B976-BFE254BC69BD";
width = 658;
},
{
anchors = (
{
name = bottom;
position = "{341, 0}";
},
{
name = ogonek;
position = "{408, 0}";
},
{
name = top;
position = "{340, 670}";
},
{
name = topright;
position = "{641, 670}";
}
);
background = {
paths = (
{
closed = 1;
nodes = (
"284 751 LINE",
"284 865 LINE",
"174 865 LINE",
"174 751 LINE"
);
},
{
closed = 1;
nodes = (
"525 751 LINE",
"525 865 LINE",
"415 865 LINE",
"415 751 LINE"
);
}
);
};
components = (
{
name = U;
},
{
name = dieresiscomb;
transform = "{1, 0, 0, 1, 124.5, 29}";
}
);
layerId = "20086791-C5B6-4597-997A-CAD8F8E58507";
width = 680;
}
);
leftKerningGroup = U;
rightKerningGroup = U;
unicode = 00DC;
},
{
glyphname = Uogonek;
lastChange = "2019-01-02 21:34:29 +0000";
layers = (
{
anchors = (
{
name = bottom;
position = "{329, 0}";
},
{
name = ogonek;
position = "{369, 0}";
},
{
name = top;
position = "{329, 670}";
},
{
name = topright;
position = "{643, 670}";
}
);
components = (
{
name = U;
}
);
layerId = "0018AAE5-3623-47DD-B976-BFE254BC69BD";
paths = (
{
closed = 1;
nodes = (
"369 -126 LINE",
"369 -106 LINE",
"349 -106 LINE",
"320 -77 LINE",
"320 -40.75 LINE",
"358 0 LINE",
"335 0 LINE",
"300 -35 LINE",
"300 -83 LINE",
"343 -126 LINE"
);
}
);
width = 658;
},
{
anchors = (
{
name = bottom;
position = "{341, 0}";
},
{
name = ogonek;
position = "{408, 0}";
},
{
name = top;
position = "{340, 670}";
},
{
name = topright;
position = "{641, 670}";
}
);
components = (
{
name = U;
}
);
layerId = "20086791-C5B6-4597-997A-CAD8F8E58507";
paths = (
{
closed = 1;
nodes = (
"408 -156 LINE",
"408 -82 LINE",
"379 -82 LINE",
"360 -63 LINE",
"360 -35 LINE",
"408 0 LINE",
"332 0 LINE",
"291 -30 LINE",
"291 -98 LINE",
"349 -156 LINE"
);
}
);
width = 680;
}
);
leftKerningGroup = U;
leftMetricsKey = U;
rightKerningGroup = U;
rightMetricsKey = U;
unicode = 0172;
},
{
glyphname = V;
lastChange = "2019-01-02 21:34:29 +0000";
layers = (
{
background = {
paths = (
{
closed = 1;
nodes = (
"308.122 0 LINE",
"308.122 0 LINE",
"553.122 670 LINE",
"533.122 670 LINE",
"295.122 20 LINE",
"277.122 20 LINE",
"39.122 670 LINE",
"19.122 670 LINE",
"263.122 0 LINE",
"263.122 0 LINE"
);
}
);
};
guideLines = (
{
angle = 25.7688;
position = "{169.579, 593.215}";
showMeasurement = 1;
}
);
layerId = "0018AAE5-3623-47DD-B976-BFE254BC69BD";
paths = (
{
closed = 1;
nodes = (
"307.78 0 LINE",
"307.78 0 LINE",
"552.78 670 LINE",
"533.122 670 LINE",
"295.122 20 LINE",
"277.122 20 LINE",
"39.122 670 LINE",
"20 670 LINE",
"264 0 LINE",
"264 0 LINE"
);
}
);
width = 572.75;
},
{
guideLines = (
{
angle = 14.3486;
position = "{310, 154}";
showMeasurement = 1;
}
);
layerId = "20086791-C5B6-4597-997A-CAD8F8E58507";
paths = (
{
closed = 1;
nodes = (
"398 0 LINE",
"398 0 LINE",
"616 670 LINE",
"495 670 LINE",
"324 108 LINE",
"302 108 LINE",
"131 670 LINE",
"10 670 LINE",
"228 0 LINE",
"228 0 LINE"
);
}
);
width = 626;
}
);
leftKerningGroup = V;
leftMetricsKey = A;
rightKerningGroup = V;
rightMetricsKey = A;
unicode = 0056;
},
{
glyphname = W;
lastChange = "2019-01-02 21:34:29 +0000";
layers = (
{
anchors = (
{
name = bottom;
position = "{418, 0}";
},
{
name = top;
position = "{418, 670}";
}
);
guideLines = (
{
angle = -16.2247;
position = "{344.32, 26.059}";
showMeasurement = 1;
}
);
layerId = "0018AAE5-3623-47DD-B976-BFE254BC69BD";
paths = (
{
closed = 1;
nodes = (
"262.375 0 LINE",
"418 638 LINE",
"574 0 LINE",
"619.375 0 LINE",
"619.375 0 LINE",
"805.375 670 LINE",
"786 670 LINE",
"606 20 LINE",
"588 20 LINE",
"429 670 LINE",
"407 670 LINE",
"248 20 LINE",
"230 20 LINE",
"50 670 LINE",
"30.875 670 LINE",
"216.875 0 LINE",
"216.875 0 LINE"
);
}
);
width = 836;
},
{
anchors = (
{
name = bottom;
position = "{438, 0}";
},
{
name = top;
position = "{438, 670}";
}
);
layerId = "20086791-C5B6-4597-997A-CAD8F8E58507";
paths = (
{
closed = 1;
nodes = (
"356 0 LINE",
"438 423 LINE",
"520 0 LINE",
"692 0 LINE",
"692 0 LINE",
"846 670 LINE",
"725 670 LINE",
"618 108 LINE",
"596 108 LINE",
"489 670 LINE",
"387 670 LINE",
"280 108 LINE",
"258 108 LINE",
"151 670 LINE",
"30 670 LINE",
"184 0 LINE",
"184 0 LINE"
);
}
);
width = 876;
}
);
leftKerningGroup = W;
rightKerningGroup = W;
unicode = 0057;
},
{
glyphname = X;
lastChange = "2019-01-02 21:34:29 +0000";
layers = (
{
guideLines = (
{
angle = -33.4797;
position = "{224.75, 471.143}";
showMeasurement = 1;
}
);
layerId = "0018AAE5-3623-47DD-B976-BFE254BC69BD";
paths = (
{
closed = 1;
nodes = (
"42.258 0 LINE",
"250.258 325 LINE",
"270 325 LINE",
"478 0 LINE",
"500 0 LINE",
"500 0 LINE",
"285 335 LINE",
"500 670 LINE",
"500 670 LINE",
"477.369 670 LINE",
"269.369 345 LINE",
"250 345 LINE",
"42 670 LINE",
"20 670 LINE",
"20 670 LINE",
"235 335 LINE",
"20 0 LINE",
"20 0 LINE"
);
}
);
width = 520;
},
{
layerId = "20086791-C5B6-4597-997A-CAD8F8E58507";
paths = (
{
closed = 1;
nodes = (
"141 0 LINE",
"292 279 LINE",
"314 279 LINE",
"465 0 LINE",
"596 0 LINE",
"596 0 LINE",
"401 347 LINE",
"594 670 LINE",
"594 670 LINE",
"464 670 LINE",
"314 410 LINE",
"292 410 LINE",
"142 670 LINE",
"12 670 LINE",
"12 670 LINE",
"205 347 LINE",
"10 0 LINE",
"10 0 LINE"
);
}
);
width = 606;
}
);
leftKerningGroup = X;
leftMetricsKey = A;
rightKerningGroup = X;
rightMetricsKey = A;
unicode = 0058;
},
{
glyphname = Y;
lastChange = "2019-01-02 21:34:29 +0000";
layers = (
{
anchors = (
{
name = bottom;
position = "{264, 0}";
},
{
name = top;
position = "{264, 670}";
},
{
name = topleft;
position = "{18, 670}";
}
);
background = {
paths = (
{
closed = 1;
nodes = (
"272 307 LINE",
"510 670 LINE",
"486 670 LINE",
"273 345 LINE",
"255 345 LINE",
"42 670 LINE",
"18 670 LINE",
"256 307 LINE"
);
}
);
};
guideLines = (
{
angle = -35.7146;
position = "{215.698, 483.259}";
showMeasurement = 1;
}
);
layerId = "0018AAE5-3623-47DD-B976-BFE254BC69BD";
paths = (
{
closed = 1;
nodes = (
"274 0 LINE",
"274 312.875 LINE",
"508.625 670 LINE",
"486 670 LINE",
"269 339 LINE",
"259 339 LINE",
"42 670 LINE",
"20 670 LINE",
"254 314 LINE",
"254 0 LINE"
);
}
);
width = 528.625;
},
{
anchors = (
{
name = bottom;
position = "{301, 0}";
},
{
name = top;
position = "{301, 670}";
},
{
name = topleft;
position = "{10, 670}";
}
);
layerId = "20086791-C5B6-4597-997A-CAD8F8E58507";
paths = (
{
closed = 1;
nodes = (
"358 0 LINE",
"358 246 LINE",
"592 670 LINE",
"462 670 LINE",
"312 377 LINE",
"290 377 LINE",
"140 670 LINE",
"10 670 LINE",
"244 246 LINE",
"244 0 LINE"
);
}
);
width = 602;
}
);
leftKerningGroup = Y;
leftMetricsKey = A;
rightKerningGroup = Y;
rightMetricsKey = A;
unicode = 0059;
},
{
glyphname = Z;
lastChange = "2019-01-02 21:34:29 +0000";
layers = (
{
anchors = (
{
name = top;
position = "{315, 670}";
}
);
guideLines = (
{
angle = -32.8581;
position = "{503.428, 413.691}";
showMeasurement = 1;
}
);
layerId = "0018AAE5-3623-47DD-B976-BFE254BC69BD";
paths = (
{
closed = 1;
nodes = (
"534 0 LINE",
"534 20 LINE",
"115 20 LINE",
"115 38 LINE",
"521 628 LINE",
"521 670 LINE",
"112 670 LINE",
"112 650 LINE",
"501 650 LINE",
"501 632 LINE",
"95 42 LINE",
"95 0 LINE"
);
}
);
width = 629;
},
{
anchors = (
{
name = top;
position = "{324, 670}";
}
);
layerId = "20086791-C5B6-4597-997A-CAD8F8E58507";
paths = (
{
closed = 1;
nodes = (
"549 0 LINE",
"549 104 LINE",
"212 104 LINE",
"212 126 LINE",
"549 566 LINE",
"549 670 LINE",
"80 670 LINE",
"80 566 LINE",
"399 566 LINE",
"399 544 LINE",
"60 104 LINE",
"60 0 LINE"
);
}
);
width = 609;
}
);
leftKerningGroup = Z;
rightKerningGroup = Z;
unicode = 005A;
},
{
glyphname = a;
lastChange = "2019-01-02 21:34:29 +0000";
layers = (
{
anchors = (
{
name = bottom;
position = "{254, 0}";
},
{
name = ogonek;
position = "{438, 0}";
},
{
name = top;
position = "{254, 475}";
}
);
background = {
hints = (
{
origin = "{0, 4}";
type = Corner;
name = _corner.int_DIR;
options = 1;
},
{
origin = "{0, 3}";
type = Corner;
name = _corner.int_ESQ;
options = 1;
},
{
origin = "{0, 0}";
type = Corner;
name = _corner.dia_esq;
options = 1;
},
{
origin = "{0, 9}";
type = Corner;
name = _corner.dia_dir;
options = 1;
}
);
paths = (
{
closed = 1;
nodes = (
"419 288 LINE",
"64 288 LINE",
"64 268 LINE",
"399 268 LINE",
"399 20 LINE",
"162 20 LINE",
"65 116 LINE",
"65 90 LINE",
"154 0 LINE",
"419 0 LINE"
);
}
);
};
hints = (
{
origin = "{0, 9}";
type = Corner;
name = _corner.dia_dir;
options = 1;
},
{
origin = "{0, 8}";
type = Corner;
name = _corner.dia_esq;
options = 1;
},
{
origin = "{1, 1}";
type = Corner;
name = _corner.dia_dir;
options = 1;
},
{
origin = "{0, 5}";
type = Corner;
name = _corner.int_ESQ;
options = 1;
},
{
origin = "{0, 4}";
type = Corner;
name = _corner.int_DIR;
options = 1;
},
{
origin = "{1, 4}";
type = Corner;
name = _corner.int_DIR;
options = 1;
}
);
layerId = "0018AAE5-3623-47DD-B976-BFE254BC69BD";
paths = (
{
closed = 1;
nodes = (
"335 0 LINE",
"424 90 LINE",
"424 114 LINE",
"329 20 LINE",
"90 20 LINE",
"90 268 LINE",
"425 268 LINE",
"425 288 LINE",
"70 288 LINE",
"70 0 LINE"
);
},
{
closed = 1;
nodes = (
"438 0 LINE",
"438 475 LINE",
"129 475 LINE",
"129 455 LINE",
"418 455 LINE",
"418 0 LINE"
);
}
);
width = 533;
},
{
anchors = (
{
name = bottom;
position = "{270.5, 0}";
},
{
name = ogonek;
position = "{457, 0}";
},
{
name = top;
position = "{270.5, 475}";
}
);
background = {
hints = (
{
origin = "{0, 4}";
type = Corner;
name = _corner.int_DIR;
options = 1;
},
{
origin = "{0, 5}";
type = Corner;
name = _corner.int_ESQ;
options = 1;
},
{
origin = "{0, 8}";
type = Corner;
name = _corner.dia_esq;
},
{
origin = "{0, 9}";
type = Corner;
name = _corner.dia_esq;
options = 1;
},
{
origin = "{1, 1}";
type = Corner;
name = _corner.dia_dir;
options = 1;
},
{
origin = "{1, 4}";
type = Corner;
name = _corner.int_DIR;
options = 1;
}
);
paths = (
{
closed = 1;
nodes = (
"311 0 LINE",
"432 120 LINE",
"432 232 LINE",
"285 85 LINE",
"160 85 LINE",
"160 220 LINE",
"432 220 LINE",
"432 305 LINE",
"50 305 LINE",
"50 0 LINE"
);
},
{
closed = 1;
nodes = (
"491 0 LINE",
"491 475 LINE",
"113 475 LINE",
"113 385 LINE",
"381 385 LINE",
"381 0 LINE"
);
}
);
};
hints = (
{
origin = "{1, 1}";
type = Corner;
name = _corner.dia_dir;
options = 1;
},
{
origin = "{1, 4}";
type = Corner;
name = _corner.int_DIR;
options = 1;
},
{
origin = "{0, 5}";
type = Corner;
name = _corner.int_ESQ;
options = 1;
},
{
origin = "{0, 4}";
type = Corner;
name = _corner.int_DIR;
options = 1;
},
{
origin = "{0, 8}";
type = Corner;
name = _corner.dia_esq;
},
{
origin = "{0, 9}";
type = Corner;
name = _corner.dia_dir;
}
);
layerId = "20086791-C5B6-4597-997A-CAD8F8E58507";
paths = (
{
closed = 1;
nodes = (
"311 0 LINE",
"432 120 LINE",
"432 232 LINE",
"285 85 LINE",
"160 85 LINE",
"160 220 LINE",
"432 220 LINE",
"432 305 LINE",
"50 305 LINE",
"50 0 LINE"
);
},
{
closed = 1;
nodes = (
"491 0 LINE",
"491 475 LINE",
"113 475 LINE",
"113 385 LINE",
"381 385 LINE",
"381 0 LINE"
);
}
);
width = 561;
}
);
leftKerningGroup = a;
rightKerningGroup = n;
unicode = 0061;
},
{
glyphname = aogonek;
lastChange = "2019-04-10 13:49:13 +0000";
layers = (
{
anchors = (
{
name = _ogonek;
position = "{433, 0}";
},
{
name = bottom;
position = "{262, 0}";
},
{
name = ogonek;
position = "{438, 0}";
},
{
name = top;
position = "{268, 475}";
}
);
components = (
{
name = a;
}
);
guideLines = (
{
angle = 224.054;
position = "{420.5, -66.375}";
showMeasurement = 1;
}
);
layerId = "0018AAE5-3623-47DD-B976-BFE254BC69BD";
paths = (
{
closed = 1;
nodes = (
"438 -126 LINE",
"438 -106 LINE",
"418 -106 LINE",
"389 -77 LINE",
"389 -44 LINE",
"438 -8 LINE",
"438 0 LINE",
"418 0 LINE",
"369 -36 LINE",
"369 -83 LINE",
"412 -126 LINE"
);
}
);
width = 533;
},
{
anchors = (
{
name = _ogonek;
position = "{437, 0}";
}
);
associatedMasterId = "0018AAE5-3623-47DD-B976-BFE254BC69BD";
components = (
{
name = a;
}
);
guideLines = (
{
angle = -59.0425;
position = "{408, 6}";
showMeasurement = 1;
}
);
layerId = "DDEC78D9-309B-4E8B-9278-C0006CE6882F";
name = "{30}";
paths = (
{
closed = 1;
nodes = (
"440 -129 LINE",
"440 -103 LINE",
"422 -103 LINE",
"393 -73 LINE",
"393 -45 LINE",
"444 -13 LINE",
"444 0 LINE",
"414 0 LINE",
"366 -30 LINE",
"366 -85 LINE",
"410 -129 LINE"
);
}
);
width = 536.25;
},
{
anchors = (
{
name = _ogonek;
position = "{445, 0}";
}
);
associatedMasterId = "0018AAE5-3623-47DD-B976-BFE254BC69BD";
components = (
{
name = a;
}
);
guideLines = (
{
angle = -59.0425;
position = "{397, 4}";
showMeasurement = 1;
}
);
layerId = "D17900F7-A612-4F15-8D01-65D1894EDDC2";
name = "{50}";
paths = (
{
closed = 1;
nodes = (
"444 -136 LINE",
"444 -98 LINE",
"423 -98 LINE",
"395 -71 LINE",
"395 -48 LINE",
"456 -9 LINE",
"456 0 LINE",
"406 0 LINE",
"359 -30 LINE",
"359 -88 LINE",
"407 -136 LINE"
);
}
);
width = 542.75;
},
{
anchors = (
{
name = _ogonek;
position = "{467, 0}";
},
{
name = bottom;
position = "{271, 0}";
},
{
name = ogonek;
position = "{457, 0}";
},
{
name = top;
position = "{288, 475}";
}
);
components = (
{
name = a;
}
);
layerId = "20086791-C5B6-4597-997A-CAD8F8E58507";
paths = (
{
closed = 1;
nodes = (
"474 -156 LINE",
"474 -82 LINE",
"445 -82 LINE",
"426 -63 LINE",
"426 -35 LINE",
"474 0 LINE",
"474 0 LINE",
"398 0 LINE",
"357 -30 LINE",
"357 -98 LINE",
"415 -156 LINE"
);
}
);
width = 561;
},
{
anchors = (
{
name = _ogonek;
position = "{445, 0}";
}
);
associatedMasterId = "0018AAE5-3623-47DD-B976-BFE254BC69BD";
components = (
{
name = a;
}
);
guideLines = (
{
angle = -53.6032;
position = "{392, -4}";
showMeasurement = 1;
}
);
layerId = "9C68BD8F-7059-4C9D-94E6-363C63A9EA9F";
name = "{80}";
paths = (
{
closed = 1;
nodes = (
"450 -146 LINE",
"450 -90 LINE",
"425 -90 LINE",
"402 -67 LINE",
"402 -49 LINE",
"473 0 LINE",
"393 0 LINE",
"349 -30 LINE",
"349 -93 LINE",
"402 -146 LINE"
);
}
);
width = 551.625;
}
);
leftKerningGroup = a;
leftMetricsKey = a;
rightKerningGroup = n;
rightMetricsKey = a;
unicode = 0105;
},
{
glyphname = ae;
lastChange = "2019-03-05 19:43:47 +0000";
layers = (
{
anchors = (
{
name = top;
position = "{428, 475}";
}
);
guideLines = (
{
angle = 90;
position = "{428, 147.5}";
}
);
hints = (
{
origin = "{0, 1}";
type = Corner;
name = _corner.dia_dir;
options = 1;
},
{
origin = "{0, 4}";
type = Corner;
name = _corner.int_DIR;
options = 1;
},
{
origin = "{1, 2}";
type = Corner;
name = _corner.int_DIR;
options = 1;
},
{
origin = "{1, 3}";
type = Corner;
name = _corner.int_ESQ;
options = 1;
},
{
origin = "{1, 4}";
type = Corner;
name = _corner.int_DIR;
options = 1;
},
{
origin = "{1, 7}";
type = Corner;
name = _corner.dia_dir;
options = 1;
},
{
origin = "{1, 8}";
type = Corner;
name = _corner.dia_esq;
options = 1;
},
{
origin = "{1, 9}";
type = Corner;
name = _corner.dia_dir;
options = 1;
},
{
origin = "{3, 4}";
type = Corner;
name = _corner.int_DIR;
options = 1;
},
{
origin = "{3, 5}";
type = Corner;
name = _corner.int_ESQ;
options = 1;
},
{
origin = "{3, 8}";
type = Corner;
name = _corner.dia_esq;
options = 1;
},
{
origin = "{3, 9}";
type = Corner;
name = _corner.dia_dir;
options = 1;
}
);
layerId = "0018AAE5-3623-47DD-B976-BFE254BC69BD";
paths = (
{
closed = 1;
nodes = (
"438 166.25 LINE",
"438 475 LINE",
"129 475 LINE",
"129 455 LINE",
"418 455 LINE",
"418 166.25 LINE"
);
},
{
closed = 1;
nodes = (
"778 0 LINE",
"778 20 LINE",
"438 20 LINE",
"438 455 LINE",
"766 455 LINE",
"766 257 LINE",
"786 257 LINE",
"786 475 LINE",
"418 475 LINE",
"418 0 LINE"
);
},
{
closed = 1;
nodes = (
"786 247 LINE",
"786 267 LINE",
"434 267 LINE",
"434 247 LINE"
);
},
{
closed = 1;
nodes = (
"355 0 LINE",
"433.5 79.625 LINE",
"433.5 104.625 LINE",
"349 20 LINE",
"90 20 LINE",
"90 247 LINE",
"425 247 LINE",
"425 267 LINE",
"70 267 LINE",
"70 0 LINE"
);
}
);
width = 866;
},
{
anchors = (
{
name = top;
position = "{435.875, 475}";
}
);
guideLines = (
{
angle = 90;
position = "{435.875, 428.75}";
}
);
hints = (
{
origin = "{0, 1}";
type = Corner;
name = _corner.dia_dir;
options = 1;
},
{
origin = "{0, 4}";
type = Corner;
name = _corner.int_DIR;
options = 1;
},
{
origin = "{1, 2}";
type = Corner;
name = _corner.int_DIR;
options = 1;
},
{
origin = "{1, 3}";
type = Corner;
name = _corner.int_ESQ;
options = 1;
},
{
origin = "{1, 4}";
type = Corner;
name = _corner.int_DIR;
options = 1;
},
{
origin = "{1, 7}";
type = Corner;
name = _corner.dia_dir;
options = 1;
},
{
origin = "{1, 8}";
type = Corner;
name = _corner.dia_esq;
options = 1;
},
{
origin = "{1, 9}";
type = Corner;
name = _corner.dia_dir;
options = 1;
},
{
origin = "{3, 4}";
type = Corner;
name = _corner.int_DIR;
options = 1;
},
{
origin = "{3, 5}";
type = Corner;
name = _corner.int_ESQ;
options = 1;
},
{
origin = "{3, 8}";
type = Corner;
name = _corner.dia_esq;
},
{
origin = "{3, 9}";
type = Corner;
name = _corner.dia_dir;
}
);
layerId = "20086791-C5B6-4597-997A-CAD8F8E58507";
paths = (
{
closed = 1;
nodes = (
"491 144.25 LINE",
"491 475 LINE",
"113 475 LINE",
"113 385 LINE",
"381 385 LINE",
"381 144.25 LINE"
);
},
{
closed = 1;
nodes = (
"793 0 LINE",
"793 90 LINE",
"491 90 LINE",
"491 390 LINE",
"691 390 LINE",
"691 210 LINE",
"801 210 LINE",
"801 475 LINE",
"381 475 LINE",
"381 0 LINE"
);
},
{
closed = 1;
nodes = (
"801 210 LINE",
"801 295 LINE",
"459 295 LINE",
"459 210 LINE"
);
},
{
closed = 1;
nodes = (
"311 0 LINE",
"432 120 LINE",
"432 232 LINE",
"285 85 LINE",
"160 85 LINE",
"160 210 LINE",
"432 210 LINE",
"432 295 LINE",
"50 295 LINE",
"50 0 LINE"
);
}
);
width = 866;
}
);
leftKerningGroup = a;
leftMetricsKey = a;
rightKerningGroup = e;
rightMetricsKey = e;
unicode = 00E6;
},
{
glyphname = b;
lastChange = "2019-01-02 21:34:29 +0000";
layers = (
{
background = {
hints = (
{
origin = "{0, 1}";
type = Corner;
name = _corner.dia_esq;
options = 1;
},
{
origin = "{0, 2}";
type = Corner;
name = _corner.dia_dir;
options = 1;
}
);
paths = (
{
closed = 1;
nodes = (
"194 0 LINE",
"463 0 LINE",
"463 475 LINE",
"194 475 LINE",
"107 379 LINE",
"107 353 LINE",
"202 455 LINE",
"372 455 LINE",
"443 383 LINE",
"443 92 LINE",
"372 20 LINE",
"202 20 LINE",
"107 122 LINE",
"107 96 LINE"
);
},
{
closed = 1;
nodes = (
"115 0 LINE",
"115 670 LINE",
"95 670 LINE",
"95 0 LINE"
);
}
);
};
components = (
{
name = _part.b;
transform = "{1, 0, 0, 1, 27, 0}";
}
);
layerId = "0018AAE5-3623-47DD-B976-BFE254BC69BD";
paths = (
{
closed = 1;
nodes = (
"115 0 LINE",
"115 670 LINE",
"95 670 LINE",
"95 0 LINE"
);
}
);
width = 548;
},
{
background = {
hints = (
{
origin = "{0, 1}";
type = Corner;
name = _corner.dia_esq;
options = 1;
},
{
origin = "{0, 2}";
type = Corner;
name = _corner.dia_dir;
options = 1;
}
);
paths = (
{
closed = 1;
nodes = (
"255 0 LINE",
"526 0 LINE",
"526 475 LINE",
"255 475 LINE",
"155 376 LINE",
"155 264 LINE",
"282 390 LINE",
"375 390 LINE",
"416 346 LINE",
"416 129 LINE",
"375 85 LINE",
"282 85 LINE",
"155 211 LINE",
"155 99 LINE"
);
}
);
};
components = (
{
name = _part.b;
transform = "{1, 0, 0, 1, -15, 0}";
}
);
layerId = "20086791-C5B6-4597-997A-CAD8F8E58507";
paths = (
{
closed = 1;
nodes = (
"185 0 LINE",
"185 670 LINE",
"75 670 LINE",
"75 0 LINE"
);
}
);
width = 591;
}
);
leftKerningGroup = _part.b;
leftMetricsKey = n;
rightKerningGroup = o;
rightMetricsKey = o;
unicode = 0062;
},
{
glyphname = c;
lastChange = "2019-04-10 20:56:31 +0000";
layers = (
{
anchors = (
{
name = botton;
position = "{280, 0}";
},
{
name = top;
position = "{265, 475}";
}
);
background = {
hints = (
{
origin = "{0, 12}";
type = Corner;
name = _corner.dia_esq;
options = 1;
},
{
origin = "{0, 13}";
type = Corner;
name = _corner.dia_dir;
options = 1;
}
);
paths = (
{
closed = 1;
nodes = (
"431 0 LINE",
"431 20 LINE",
"176 21 LINE",
"105 93 LINE",
"105 383 LINE",
"176 455 LINE",
"362 455 LINE",
"415 398 LINE",
"415 358 LINE",
"435 358 LINE",
"435 406 LINE",
"371 475 LINE",
"85 475 LINE",
"85 0 LINE"
);
}
);
};
hints = (
{
origin = "{0, 10}";
type = Corner;
name = _corner.dia_esq;
options = 1;
},
{
origin = "{0, 11}";
type = Corner;
name = _corner.dia_dir;
options = 1;
},
{
origin = "{0, 3}";
type = Corner;
name = _corner.int_ESQ;
options = 1;
},
{
origin = "{0, 2}";
type = Corner;
name = _corner.int_DIR;
options = 1;
}
);
layerId = "0018AAE5-3623-47DD-B976-BFE254BC69BD";
paths = (
{
closed = 1;
nodes = (
"431 0 LINE",
"431 20 LINE",
"105 21 LINE",
"105 455 LINE",
"360.75 455 LINE",
"415 400 LINE",
"415 358 LINE",
"435 358 LINE",
"435 406 LINE",
"366.875 475 LINE",
"85 475 LINE",
"85 0 LINE"
);
}
);
width = 505;
},
{
anchors = (
{
name = botton;
position = "{284, 0}";
},
{
name = top;
position = "{274, 475}";
}
);
background = {
hints = (
{
origin = "{0, 2}";
type = Corner;
name = _corner.int_DIR;
options = 1;
},
{
origin = "{0, 3}";
type = Corner;
name = _corner.int_ESQ;
options = 1;
},
{
origin = "{0, 10}";
type = Corner;
name = _corner.dia_esq;
options = 1;
},
{
origin = "{0, 11}";
type = Corner;
name = _corner.dia_dir;
options = 1;
}
);
paths = (
{
closed = 1;
nodes = (
"480 0 LINE",
"480 90 LINE",
"175 90 LINE",
"175 390 LINE",
"333 390 LINE",
"374 347 LINE",
"374 297 LINE",
"484 297 LINE",
"484 386 LINE",
"393 475 LINE",
"65 475 LINE",
"65 0 LINE"
);
}
);
};
hints = (
{
origin = "{0, 10}";
type = Corner;
name = _corner.dia_esq;
options = 1;
},
{
origin = "{0, 11}";
type = Corner;
name = _corner.dia_dir;
options = 1;
},
{
origin = "{0, 3}";
type = Corner;
name = _corner.int_ESQ;
options = 1;
},
{
origin = "{0, 2}";
type = Corner;
name = _corner.int_DIR;
options = 1;
}
);
layerId = "20086791-C5B6-4597-997A-CAD8F8E58507";
paths = (
{
closed = 1;
nodes = (
"480 0 LINE",
"480 90 LINE",
"175 90 LINE",
"175 390 LINE",
"334 390.25 LINE",
"374.125 350 LINE",
"374 297 LINE",
"484 297 LINE",
"484 386 LINE",
"393 475 LINE",
"65 475 LINE",
"65 0 LINE"
);
}
);
width = 529;
}
);
leftKerningGroup = o;
leftMetricsKey = o;
rightKerningGroup = e;
unicode = 0063;
},
{
glyphname = d;
lastChange = "2019-01-02 21:34:29 +0000";
layers = (
{
anchors = (
{
name = center;
position = "{395, 558}";
},
{
name = top;
position = "{235, 475}";
}
);
background = {
hints = (
{
origin = "{0, 10}";
type = Corner;
name = _corner.dia_dir;
options = 1;
},
{
origin = "{0, 11}";
type = Corner;
name = _corner.dia_esq;
options = 1;
}
);
paths = (
{
closed = 1;
nodes = (
"441 122 LINE",
"346 20 LINE",
"176 20 LINE",
"105 92 LINE",
"105 383 LINE",
"176 455 LINE",
"346 455 LINE",
"441 353 LINE",
"441 379 LINE",
"354 475 LINE",
"85 475 LINE",
"85 0 LINE",
"354 0 LINE",
"441 96 LINE"
);
},
{
closed = 1;
nodes = (
"453 670 LINE",
"433 670 LINE",
"433 0 LINE",
"453 0 LINE"
);
}
);
};
components = (
{
name = _part.b;
transform = "{-1, 0, 0, 1, 521, 0}";
}
);
layerId = "0018AAE5-3623-47DD-B976-BFE254BC69BD";
paths = (
{
closed = 1;
nodes = (
"453 670 LINE",
"433 670 LINE",
"433 0 LINE",
"453 0 LINE"
);
}
);
width = 548;
},
{
anchors = (
{
name = center;
position = "{429, 555}";
},
{
name = top;
position = "{235, 475}";
}
);
components = (
{
name = _part.b;
transform = "{-1, 0, 0, 1, 606, 0}";
}
);
layerId = "20086791-C5B6-4597-997A-CAD8F8E58507";
paths = (
{
closed = 1;
nodes = (
"516 670 LINE",
"406 670 LINE",
"406 0 LINE",
"516 0 LINE"
);
}
);
width = 591;
}
);
leftKerningGroup = o;
leftMetricsKey = o;
rightKerningGroup = l;
unicode = 0064;
},
{
glyphname = eth;
lastChange = "2019-01-02 21:34:29 +0000";
layers = (
{
background = {
paths = (
{
closed = 1;
nodes = (
"370 0 LINE",
"453 84 LINE",
"453 349 LINE",
"214 676 LINE",
"199 665 LINE",
"367 435 LINE",
"168 435 LINE",
"85 351 LINE",
"85 84 LINE",
"168 0 LINE"
);
},
{
closed = 1;
nodes = (
"105 92 LINE",
"105 343 LINE",
"176 415 LINE",
"382 415 LINE",
"433 345 LINE",
"433 92 LINE",
"362 20 LINE",
"176 20 LINE"
);
},
{
closed = 1;
nodes = (
"340 663 LINE",
"328 679 LINE",
"162 558 LINE",
"173 542 LINE"
);
}
);
};
guideLines = (
{
angle = 218.174;
position = "{236.25, 680.5}";
showMeasurement = 1;
}
);
hints = (
{
origin = "{1, 3}";
type = Corner;
name = _corner.int_ESQ;
options = 1;
},
{
origin = "{1, 0}";
type = Corner;
name = _corner.int_ESQ;
options = 1;
},
{
origin = "{1, 4}";
type = Corner;
name = _corner.int_DIR;
options = 1;
}
);
layerId = "0018AAE5-3623-47DD-B976-BFE254BC69BD";
paths = (
{
closed = 1;
nodes = (
"370 0 LINE",
"453 84 LINE",
"453 349 LINE",
"214 676 LINE",
"199.5 664.75 LINE",
"367.375 435 LINE",
"168 435 LINE",
"85 351 LINE",
"85 84 LINE",
"168 0 LINE"
);
},
{
closed = 1;
nodes = (
"105 415 LINE",
"382 415 LINE",
"433 345 LINE",
"433 20 LINE",
"105 20 LINE"
);
},
{
closed = 1;
nodes = (
"340 663 LINE",
"328 679 LINE",
"162 558 LINE",
"173 542 LINE"
);
}
);
width = 538;
},
{
background = {
paths = (
{
closed = 1;
nodes = (
"414 0 LINE",
"505 91 LINE",
"505 369 LINE",
"262 705 LINE",
"173 643 LINE",
"324 435 LINE",
"156 435 LINE",
"65 344 LINE",
"65 91 LINE",
"156 0 LINE"
);
},
{
closed = 1;
nodes = (
"175 129 LINE",
"175 306 LINE",
"217 350 LINE",
"353 350 LINE",
"395 306 LINE",
"395 128 LINE",
"354 85 LINE",
"217 85 LINE"
);
},
{
closed = 1;
nodes = (
"390 639 LINE",
"341 708 LINE",
"146 568 LINE",
"195 498 LINE"
);
}
);
};
hints = (
{
origin = "{1, 4}";
type = Corner;
name = _corner.int_DIR;
options = 1;
},
{
origin = "{1, 3}";
type = Corner;
name = _corner.int_ESQ;
options = 1;
},
{
origin = "{1, 0}";
type = Corner;
name = _corner.int_ESQ;
options = 1;
}
);
layerId = "20086791-C5B6-4597-997A-CAD8F8E58507";
paths = (
{
closed = 1;
nodes = (
"414 0 LINE",
"505 91 LINE",
"505 369 LINE",
"262 705 LINE",
"173 643 LINE",
"324 435 LINE",
"156 435 LINE",
"65 344 LINE",
"65 91 LINE",
"156 0 LINE"
);
},
{
closed = 1;
nodes = (
"175 350 LINE",
"355 350.25 LINE",
"395.125 310 LINE",
"395 85 LINE",
"175 85 LINE"
);
},
{
closed = 1;
nodes = (
"390 639 LINE",
"341 708 LINE",
"146 568 LINE",
"195 498 LINE"
);
}
);
width = 570;
}
);
leftKerningGroup = o;
leftMetricsKey = o;
rightKerningGroup = o;
rightMetricsKey = o;
unicode = 00F0;
},
{
glyphname = dcroat;
lastChange = "2019-01-02 21:34:29 +0000";
layers = (
{
anchors = (
{
name = center;
position = "{395, 558}";
},
{
name = top;
position = "{235, 475}";
}
);
components = (
{
name = d;
}
);
layerId = "0018AAE5-3623-47DD-B976-BFE254BC69BD";
paths = (
{
closed = 1;
nodes = (
"519 548 LINE",
"519 568 LINE",
"270 568 LINE",
"270 548 LINE"
);
}
);
width = 548;
},
{
anchors = (
{
name = center;
position = "{429, 555}";
},
{
name = top;
position = "{235, 475}";
}
);
components = (
{
name = d;
}
);
layerId = "20086791-C5B6-4597-997A-CAD8F8E58507";
paths = (
{
closed = 1;
nodes = (
"571 510 LINE",
"571 600 LINE",
"286 600 LINE",
"286 510 LINE"
);
}
);
width = 591;
}
);
leftKerningGroup = o;
leftMetricsKey = d;
unicode = 0111;
},
{
glyphname = e;
lastChange = "2019-01-02 21:34:29 +0000";
layers = (
{
anchors = (
{
name = bottom;
position = "{269, 0}";
},
{
name = ogonek;
position = "{445, 0}";
},
{
name = top;
position = "{269, 475}";
}
);
hints = (
{
origin = "{0, 8}";
type = Corner;
name = _corner.dia_esq;
options = 1;
},
{
origin = "{0, 9}";
type = Corner;
name = _corner.dia_dir;
options = 1;
},
{
origin = "{0, 7}";
type = Corner;
name = _corner.dia_dir;
options = 1;
},
{
origin = "{0, 3}";
type = Corner;
name = _corner.int_ESQ;
options = 1;
},
{
origin = "{0, 4}";
type = Corner;
name = _corner.int_DIR;
options = 1;
},
{
origin = "{0, 2}";
type = Corner;
name = _corner.int_DIR;
options = 1;
}
);
layerId = "0018AAE5-3623-47DD-B976-BFE254BC69BD";
paths = (
{
closed = 1;
nodes = (
"445 0 LINE",
"445 20 LINE",
"105 20 LINE",
"105 455 LINE",
"433 455 LINE",
"433 240 LINE",
"453 240 LINE",
"453 475 LINE",
"85 475 LINE",
"85 0 LINE"
);
},
{
closed = 1;
nodes = (
"453 230 LINE",
"453 250 LINE",
"98 250 LINE",
"98 230 LINE"
);
}
);
width = 533;
},
{
anchors = (
{
name = bottom;
position = "{275, 0}";
},
{
name = ogonek;
position = "{477, 0}";
},
{
name = top;
position = "{275, 475}";
}
);
background = {
hints = (
{
origin = "{0, 10}";
type = Corner;
name = _corner.dia_dir;
options = 1;
},
{
origin = "{0, 11}";
type = Corner;
name = _corner.dia_esq;
options = 1;
},
{
origin = "{0, 12}";
type = Corner;
name = _corner.dia_dir;
options = 1;
}
);
paths = (
{
closed = 1;
nodes = (
"477 0 LINE",
"477 90 LINE",
"212 90 LINE",
"175 129 LINE",
"175 346 LINE",
"217 390 LINE",
"334 390 LINE",
"375 347 LINE",
"375 197 LINE",
"485 197 LINE",
"485 475 LINE",
"65 475 LINE",
"65 0 LINE"
);
},
{
closed = 1;
nodes = (
"485 197 LINE",
"485 282 LINE",
"143 282 LINE",
"143 197 LINE"
);
}
);
};
hints = (
{
origin = "{0, 8}";
type = Corner;
name = _corner.dia_esq;
options = 1;
},
{
origin = "{0, 9}";
type = Corner;
name = _corner.dia_dir;
options = 1;
},
{
origin = "{0, 7}";
type = Corner;
name = _corner.dia_dir;
options = 1;
},
{
origin = "{0, 3}";
type = Corner;
name = _corner.int_ESQ;
options = 1;
},
{
origin = "{0, 2}";
type = Corner;
name = _corner.int_DIR;
options = 1;
},
{
origin = "{0, 4}";
type = Corner;
name = _corner.int_DIR;
options = 1;
}
);
layerId = "20086791-C5B6-4597-997A-CAD8F8E58507";
paths = (
{
closed = 1;
nodes = (
"477 0 LINE",
"477 90 LINE",
"175 90 LINE",
"175 390 LINE",
"375 390 LINE",
"375 197 LINE",
"485 197 LINE",
"485 475 LINE",
"65 475 LINE",
"65 0 LINE"
);
},
{
closed = 1;
nodes = (
"485 197 LINE",
"485 282 LINE",
"143 282 LINE",
"143 197 LINE"
);
}
);
width = 550;
}
);
leftKerningGroup = o;
leftMetricsKey = o;
rightKerningGroup = e;
unicode = 0065;
},
{
glyphname = eogonek;
lastChange = "2019-01-02 21:34:29 +0000";
layers = (
{
background = {
paths = (
{
closed = 1;
nodes = (
"445 -126 LINE",
"445 -106 LINE",
"425 -106 LINE",
"396 -77 LINE",
"396 -38.75 LINE",
"445 0 LINE",
"414 0 LINE",
"376 -30 LINE",
"376 -83 LINE",
"419 -126 LINE"
);
}
);
};
components = (
{
name = e;
},
{
name = ogonekcomb;
transform = "{1, 0, 0, 1, 356, 0}";
}
);
layerId = "0018AAE5-3623-47DD-B976-BFE254BC69BD";
width = 533;
},
{
components = (
{
name = e;
},
{
name = ogonekcomb;
transform = "{1, 0, 0, 1, 320, 0}";
}
);
layerId = "20086791-C5B6-4597-997A-CAD8F8E58507";
width = 550;
}
);
leftKerningGroup = o;
leftMetricsKey = e;
rightKerningGroup = e;
rightMetricsKey = e;
unicode = 0119;
},
{
glyphname = f;
lastChange = "2019-01-02 21:34:29 +0000";
layers = (
{
layerId = "0018AAE5-3623-47DD-B976-BFE254BC69BD";
paths = (
{
closed = 1;
nodes = (
"115 0 LINE",
"115 595 LINE",
"169.125 650 LINE",
"270 650 LINE",
"270 670 LINE",
"163.125 670 LINE",
"95 601 LINE",
"95 0 LINE"
);
},
{
closed = 1;
nodes = (
"253 455 LINE",
"253 475 LINE",
"21 475 LINE",
"21 455 LINE"
);
}
);
width = 260;
},
{
layerId = "20086791-C5B6-4597-997A-CAD8F8E58507";
paths = (
{
closed = 1;
nodes = (
"184 0 LINE",
"184 541 LINE",
"221 580 LINE",
"289 580 LINE",
"289 670 LINE",
"165 670 LINE",
"74 579 LINE",
"74 0 LINE"
);
},
{
closed = 1;
nodes = (
"268 390 LINE",
"268 475 LINE",
"37 475 LINE",
"37 390 LINE"
);
}
);
width = 289;
}
);
leftKerningGroup = f;
rightKerningGroup = f;
unicode = 0066;
},
{
glyphname = g;
lastChange = "2019-01-02 21:34:29 +0000";
layers = (
{
anchors = (
{
name = top;
position = "{269, 475}";
}
);
background = {
components = (
{
name = _part.b;
transform = "{-1, 0, 0, 1, 521, 0}";
}
);
paths = (
{
closed = 1;
nodes = (
"370 -170 LINE",
"453 -86 LINE",
"453 475 LINE",
"433 475 LINE",
"433 -78 LINE",
"362 -150 LINE",
"128 -150 LINE",
"128 -170 LINE"
);
}
);
};
components = (
{
name = _part.b;
transform = "{-1, 0, 0, 1, 521, 0}";
}
);
hints = (
{
origin = "{0, 0}";
type = Corner;
name = _corner.dia_esq;
options = 1;
},
{
origin = "{0, 3}";
type = Corner;
name = _corner.int_ESQ;
options = 1;
}
);
layerId = "0018AAE5-3623-47DD-B976-BFE254BC69BD";
paths = (
{
closed = 1;
nodes = (
"453 -170 LINE",
"453 475 LINE",
"433 475 LINE",
"433 -150 LINE",
"128 -150 LINE",
"128 -170 LINE"
);
}
);
width = 548;
},
{
anchors = (
{
name = top;
position = "{290.5, 475}";
}
);
background = {
paths = (
{
closed = 1;
nodes = (
"424 -170 LINE",
"516 -80 LINE",
"516 475 LINE",
"406 475 LINE",
"406 -41 LINE",
"369 -80 LINE",
"99 -80 LINE",
"99 -170 LINE"
);
}
);
};
components = (
{
name = _part.b;
transform = "{-1, 0, 0, 1, 606, 0}";
}
);
hints = (
{
origin = "{0, 0}";
type = Corner;
name = _corner.dia_esq;
options = 1;
},
{
origin = "{0, 3}";
type = Corner;
name = _corner.int_ESQ;
options = 1;
}
);
layerId = "20086791-C5B6-4597-997A-CAD8F8E58507";
paths = (
{
closed = 1;
nodes = (
"516 -170 LINE",
"516 475 LINE",
"406 475 LINE",
"406 -80 LINE",
"99 -80 LINE",
"99 -170 LINE"
);
}
);
width = 591;
}
);
leftKerningGroup = o;
leftMetricsKey = o;
rightKerningGroup = g;
rightMetricsKey = d;
unicode = 0067;
},
{
glyphname = idotless;
lastChange = "2019-01-02 21:34:29 +0000";
layers = (
{
anchors = (
{
name = bottom;
position = "{105, 0}";
},
{
name = ogonek;
position = "{115, 0}";
},
{
name = top;
position = "{105, 475}";
}
);
layerId = "0018AAE5-3623-47DD-B976-BFE254BC69BD";
paths = (
{
closed = 1;
nodes = (
"115 0 LINE",
"115 475 LINE",
"95 475 LINE",
"95 0 LINE"
);
}
);
width = 210;
},
{
anchors = (
{
name = bottom;
position = "{130, 0}";
},
{
name = ogonek;
position = "{185, 0}";
},
{
name = top;
position = "{130, 475}";
}
);
layerId = "20086791-C5B6-4597-997A-CAD8F8E58507";
paths = (
{
closed = 1;
nodes = (
"185 0 LINE",
"185 475 LINE",
"75 475 LINE",
"75 0 LINE"
);
}
);
width = 260;
}
);
leftKerningGroup = _part.i;
leftMetricsKey = n;
rightKerningGroup = _part.i;
rightMetricsKey = d;
unicode = 0131;
},
{
glyphname = iogonek;
lastChange = "2019-04-10 13:12:19 +0000";
layers = (
{
components = (
{
name = idotless;
},
{
name = dotaccentcomb;
transform = "{1, 0, 0, 1, 0, -20.035}";
}
);
guideLines = (
{
angle = -58.3178;
position = "{45, 2}";
showMeasurement = 1;
}
);
layerId = "0018AAE5-3623-47DD-B976-BFE254BC69BD";
paths = (
{
closed = 1;
nodes = (
"115 -126 LINE",
"115 -106 LINE",
"95 -106 LINE",
"66 -77 LINE",
"66 -44 LINE",
"115 -8 LINE",
"115 0 LINE",
"95 0 LINE",
"46 -36 LINE",
"46 -83 LINE",
"89 -126 LINE"
);
}
);
width = 210;
},
{
background = {
paths = (
{
closed = 1;
nodes = (
"185 -156 LINE",
"185 -82 LINE",
"156 -82 LINE",
"137 -63 LINE",
"137 -35 LINE",
"185 0 LINE",
"185 0 LINE",
"109 0 LINE",
"68 -30 LINE",
"68 -98 LINE",
"126 -156 LINE"
);
}
);
};
components = (
{
name = idotless;
},
{
name = dotaccentcomb;
}
);
layerId = "20086791-C5B6-4597-997A-CAD8F8E58507";
paths = (
{
closed = 1;
nodes = (
"185 -156 LINE",
"185 -82 LINE",
"156 -82 LINE",
"137 -63 LINE",
"137 -35 LINE",
"185 0 LINE",
"185 0 LINE",
"109 0 LINE",
"68 -30 LINE",
"68 -98 LINE",
"126 -156 LINE"
);
}
);
width = 260;
}
);
rightMetricsKey = i;
unicode = 012F;
},
{
glyphname = j;
lastChange = "2019-04-10 13:07:59 +0000";
layers = (
{
background = {
paths = (
{
closed = 1;
nodes = (
"95 500 LINE",
"95 -95 LINE",
"40.875 -150 LINE",
"-60 -150 LINE",
"-60 -170 LINE",
"46.875 -170 LINE",
"115 -101 LINE",
"115 500 LINE"
);
}
);
};
components = (
{
name = dotaccentcomb;
transform = "{1, 0, 0, 1, 0, -20.122}";
},
{
name = jdotless;
}
);
layerId = "0018AAE5-3623-47DD-B976-BFE254BC69BD";
width = 210;
},
{
background = {
paths = (
{
closed = 1;
nodes = (
"93 -195 LINE",
"185 -105 LINE",
"185 450 LINE",
"75 450 LINE",
"75 -66 LINE",
"38 -105 LINE",
"-30 -105 LINE",
"-30 -195 LINE"
);
}
);
};
components = (
{
name = dotaccentcomb;
},
{
name = jdotless;
}
);
layerId = "20086791-C5B6-4597-997A-CAD8F8E58507";
width = 260;
}
);
leftKerningGroup = j;
rightKerningGroup = j;
rightMetricsKey = d;
unicode = 006A;
},
{
glyphname = jdotless;
lastChange = "2019-01-02 21:34:29 +0000";
layers = (
{
anchors = (
{
name = top;
position = "{105, 475}";
}
);
layerId = "0018AAE5-3623-47DD-B976-BFE254BC69BD";
paths = (
{
closed = 1;
nodes = (
"46.875 -170 LINE",
"115 -101 LINE",
"115 475 LINE",
"95 475 LINE",
"95 -95 LINE",
"40.875 -150 LINE",
"-60 -150 LINE",
"-60 -170 LINE"
);
}
);
width = 210;
},
{
anchors = (
{
name = top;
position = "{130, 475}";
}
);
layerId = "20086791-C5B6-4597-997A-CAD8F8E58507";
paths = (
{
closed = 1;
nodes = (
"93 -195 LINE",
"185 -105 LINE",
"185 475 LINE",
"75 475 LINE",
"75 -66 LINE",
"38 -105 LINE",
"-30 -105 LINE",
"-30 -195 LINE"
);
}
);
width = 260;
}
);
unicode = 0237;
},
{
glyphname = k;
lastChange = "2019-01-02 21:34:29 +0000";
layers = (
{
anchors = (
{
name = botton;
position = "{281.5, 0}";
},
{
name = top;
position = "{281.5, 475}";
}
);
components = (
{
name = _part.l;
}
);
layerId = "0018AAE5-3623-47DD-B976-BFE254BC69BD";
paths = (
{
closed = 1;
nodes = (
"134 230 LINE",
"448 475 LINE",
"418 475 LINE",
"133 253 LINE",
"103 253 LINE",
"103 230 LINE"
);
},
{
closed = 1;
nodes = (
"468 0 LINE",
"222 301 LINE",
"203.269 295 LINE",
"444.269 0 LINE"
);
}
);
width = 488;
},
{
anchors = (
{
name = botton;
position = "{284.5, 0}";
},
{
name = top;
position = "{284.5, 475}";
}
);
components = (
{
name = _part.l;
}
);
layerId = "20086791-C5B6-4597-997A-CAD8F8E58507";
paths = (
{
closed = 1;
nodes = (
"152 132 LINE",
"494 475 LINE",
"350 475 LINE",
"207 332 LINE",
"152 332 LINE",
"152 132 LINE"
);
},
{
closed = 1;
nodes = (
"494 0 LINE",
"291 284 LINE",
"207 222 LINE",
"361 0 LINE"
);
}
);
width = 509;
}
);
leftKerningGroup = h;
leftMetricsKey = n;
rightKerningGroup = k;
unicode = 006B;
},
{
glyphname = kgreenlandic;
lastChange = "2019-01-02 21:34:29 +0000";
layers = (
{
anchors = (
{
name = botton;
position = "{281.5, 0}";
},
{
name = top;
position = "{281.5, 475}";
}
);
layerId = "0018AAE5-3623-47DD-B976-BFE254BC69BD";
paths = (
{
closed = 1;
nodes = (
"134 230 LINE",
"448 475 LINE",
"418 475 LINE",
"133 253 LINE",
"103 253 LINE",
"103 230 LINE"
);
},
{
closed = 1;
nodes = (
"468 0 LINE",
"222 301 LINE",
"203.25 295 LINE",
"444.25 0 LINE"
);
},
{
closed = 1;
nodes = (
"115 0 LINE",
"115 475 LINE",
"95 475 LINE",
"95 0 LINE"
);
}
);
width = 488;
},
{
anchors = (
{
name = botton;
position = "{284.5, 0}";
},
{
name = top;
position = "{284.5, 475}";
}
);
layerId = "20086791-C5B6-4597-997A-CAD8F8E58507";
paths = (
{
closed = 1;
nodes = (
"152 132 LINE",
"494 475 LINE",
"350 475 LINE",
"207 332 LINE",
"152 332 LINE",
"152 132 LINE"
);
},
{
closed = 1;
nodes = (
"494 0 LINE",
"291 284 LINE",
"207 222 LINE",
"361 0 LINE"
);
},
{
closed = 1;
nodes = (
"185 0 LINE",
"185 475 LINE",
"75 475 LINE",
"75 0 LINE"
);
}
);
width = 509;
}
);
unicode = 0138;
},
{
glyphname = lslash;
lastChange = "2019-01-02 21:34:29 +0000";
layers = (
{
components = (
{
name = l;
}
);
layerId = "0018AAE5-3623-47DD-B976-BFE254BC69BD";
paths = (
{
closed = 1;
nodes = (
"169 354 LINE",
"169 374 LINE",
"41 319 LINE",
"41 298 LINE"
);
}
);
width = 210;
},
{
components = (
{
name = l;
}
);
layerId = "20086791-C5B6-4597-997A-CAD8F8E58507";
paths = (
{
closed = 1;
nodes = (
"249 351 LINE",
"249 463 LINE",
"11 360 LINE",
"11 247 LINE"
);
}
);
width = 260;
}
);
leftKerningGroup = _part.l;
unicode = 0142;
},
{
glyphname = eng;
lastChange = "2019-01-02 21:34:29 +0000";
layers = (
{
components = (
{
name = _part.i;
transform = "{1, 0, 0, 1, 15, 0}";
},
{
name = _part.n;
transform = "{1, 0, 0, 1, 27, 0}";
}
);
layerId = "0018AAE5-3623-47DD-B976-BFE254BC69BD";
paths = (
{
closed = 1;
nodes = (
"399 -170 LINE",
"463 -101 LINE",
"463 280 LINE",
"443 280 LINE",
"443 -93 LINE",
"390 -150 LINE",
"288 -150 LINE",
"288 -170 LINE"
);
}
);
width = 553;
},
{
components = (
{
name = _part.i;
},
{
name = _part.n;
}
);
layerId = "20086791-C5B6-4597-997A-CAD8F8E58507";
paths = (
{
closed = 1;
nodes = (
"449 -170 LINE",
"541 -80 LINE",
"540 232 LINE",
"430 232 LINE",
"431 -41 LINE",
"394 -80 LINE",
"326 -80 LINE",
"326 -170 LINE"
);
}
);
width = 611;
}
);
leftKerningGroup = n;
leftMetricsKey = n;
rightKerningGroup = n;
rightMetricsKey = n;
unicode = 014B;
},
{
glyphname = o;
lastChange = "2019-01-02 21:34:29 +0000";
layers = (
{
anchors = (
{
name = bottom;
position = "{269, 0}";
},
{
name = center;
position = "{269, 238}";
},
{
name = horn;
position = "{435, 386}";
},
{
name = ogonek;
position = "{488, 10}";
},
{
name = top;
position = "{269, 475}";
},
{
name = topright;
position = "{523, 475}";
}
);
background = {
guideLines = (
{
position = "{433, 99}";
},
{
angle = 46.5833;
position = "{356, 220}";
showMeasurement = 1;
},
{
angle = -46.4798;
position = "{122, 282}";
showMeasurement = 1;
}
);
paths = (
{
closed = 1;
nodes = (
"168 475 LINE",
"85 391 LINE",
"85 84 LINE",
"168 0 LINE",
"370 0 LINE",
"453 84 LINE",
"453 391 LINE",
"370 475 LINE"
);
},
{
closed = 1;
nodes = (
"433 92 LINE",
"362 20 LINE",
"176 20 LINE",
"105 92 LINE",
"105 383 LINE",
"176 455 LINE",
"362 455 LINE",
"433 383 LINE"
);
}
);
};
guideLines = (
{
position = "{506, 376}";
}
);
hints = (
{
origin = "{0, 1}";
type = Corner;
name = _corner.dia_dir;
options = 1;
},
{
origin = "{0, 3}";
type = Corner;
name = _corner.dia_dir;
options = 1;
},
{
origin = "{0, 0}";
type = Corner;
name = _corner.dia_esq;
options = 1;
},
{
origin = "{0, 2}";
type = Corner;
name = _corner.dia_esq;
options = 1;
},
{
origin = "{1, 0}";
type = Corner;
name = _corner.int_ESQ;
options = 1;
},
{
origin = "{1, 2}";
type = Corner;
name = _corner.int_ESQ;
options = 1;
},
{
origin = "{1, 3}";
type = Corner;
name = _corner.int_DIR;
options = 1;
},
{
origin = "{1, 1}";
type = Corner;
name = _corner.int_DIR;
options = 1;
}
);
layerId = "0018AAE5-3623-47DD-B976-BFE254BC69BD";
paths = (
{
closed = 1;
nodes = (
"85 475 LINE",
"85 0 LINE",
"453 0 LINE",
"453 475 LINE"
);
},
{
closed = 1;
nodes = (
"105 455 LINE",
"433 455 LINE",
"433 20 LINE",
"105 20 LINE"
);
}
);
width = 538;
},
{
anchors = (
{
name = bottom;
position = "{285, 0}";
},
{
name = center;
position = "{285, 238}";
},
{
name = horn;
position = "{438, 393}";
},
{
name = ogonek;
position = "{505, 10}";
},
{
name = top;
position = "{285, 475}";
},
{
name = topright;
position = "{540, 475}";
}
);
background = {
hints = (
{
origin = "{0, 0}";
type = Corner;
name = _corner.dia_esq;
options = 1;
},
{
origin = "{0, 1}";
type = Corner;
name = _corner.dia_dir;
options = 1;
},
{
origin = "{0, 2}";
type = Corner;
name = _corner.dia_esq;
options = 1;
},
{
origin = "{0, 3}";
type = Corner;
name = _corner.dia_dir;
options = 1;
}
);
paths = (
{
closed = 1;
nodes = (
"65 475 LINE",
"65 0 LINE",
"505 0 LINE",
"505 475 LINE"
);
},
{
closed = 1;
nodes = (
"175 129 LINE",
"175 346 LINE",
"217 390 LINE",
"354 390 LINE",
"395 347 LINE",
"395 128 LINE",
"354 85 LINE",
"217 85 LINE"
);
}
);
};
guideLines = (
{
angle = 90;
position = "{285.375, 303.75}";
}
);
hints = (
{
origin = "{0, 2}";
type = Corner;
name = _corner.dia_esq;
options = 1;
},
{
origin = "{0, 0}";
type = Corner;
name = _corner.dia_esq;
options = 1;
},
{
origin = "{0, 3}";
type = Corner;
name = _corner.dia_dir;
options = 1;
},
{
origin = "{0, 1}";
type = Corner;
name = _corner.dia_dir;
options = 1;
},
{
origin = "{1, 3}";
type = Corner;
name = _corner.int_DIR;
options = 1;
},
{
origin = "{1, 1}";
type = Corner;
name = _corner.int_DIR;
options = 1;
},
{
origin = "{1, 0}";
type = Corner;
name = _corner.int_ESQ;
options = 1;
},
{
origin = "{1, 2}";
type = Corner;
name = _corner.int_ESQ;
options = 1;
}
);
layerId = "20086791-C5B6-4597-997A-CAD8F8E58507";
paths = (
{
closed = 1;
nodes = (
"65 475 LINE",
"65 0 LINE",
"505 0 LINE",
"505 475 LINE"
);
},
{
closed = 1;
nodes = (
"175 390 LINE",
"395 390 LINE",
"395 85 LINE",
"175 85 LINE"
);
}
);
width = 570;
},
{
anchors = (
{
name = bottom;
position = "{316, 0}";
},
{
name = center;
position = "{316, 238}";
},
{
name = ogonek;
position = "{569, 10}";
},
{
name = top;
position = "{316, 475}";
},
{
name = topright;
position = "{613, 475}";
}
);
associatedMasterId = "0018AAE5-3623-47DD-B976-BFE254BC69BD";
hints = (
{
origin = "{0, 1}";
type = Corner;
name = _corner.dia_dir;
options = 1;
},
{
origin = "{0, 3}";
type = Corner;
name = _corner.dia_dir;
options = 1;
},
{
origin = "{0, 3}";
scale = "{0.2353, 0.2353}";
type = Corner;
name = _corner.dia_dir;
options = 1;
},
{
origin = "{0, 2}";
type = Corner;
name = _corner.dia_esq;
options = 1;
},
{
origin = "{0, 0}";
type = Corner;
name = _corner.dia_esq;
options = 1;
}
);
layerId = "2A51A4E3-9C50-47ED-BEB9-B843653D9D9D";
name = "{240}";
paths = (
{
closed = 1;
nodes = (
"34 475 LINE",
"34 0 LINE",
"597 0 LINE",
"597 475 LINE"
);
},
{
closed = 1;
nodes = (
"274 95 LINE",
"274 380 LINE",
"274 390 LINE",
"358 390 LINE",
"358 380 LINE",
"358 95 LINE",
"358 85 LINE",
"274 85 LINE"
);
}
);
width = 631;
},
{
associatedMasterId = "0018AAE5-3623-47DD-B976-BFE254BC69BD";
layerId = "1395E351-6373-4CC8-87A7-A2B6D9DCC27C";
name = "Regular Mar 10 16, 14:02";
paths = (
{
closed = 1;
nodes = (
"0 85 LINE",
"279 85 LINE",
"279 390 LINE",
"0 390 LINE"
);
},
{
closed = 1;
nodes = (
"104 390 LINE",
"496 390 LINE",
"496 475 LINE",
"104 475 LINE"
);
},
{
closed = 1;
nodes = (
"321 85 LINE",
"600 85 LINE",
"600 390 LINE",
"321 390 LINE"
);
},
{
closed = 1;
nodes = (
"0 390 LINE",
"104 390 LINE",
"104 475 LINE"
);
},
{
closed = 1;
nodes = (
"496 390 LINE",
"600 390 LINE",
"496 475 LINE"
);
},
{
closed = 1;
nodes = (
"496 0 LINE",
"496 85 LINE",
"104 85 LINE",
"104 0 LINE"
);
},
{
closed = 1;
nodes = (
"104 85 LINE",
"0 85 LINE",
"104 0 LINE"
);
},
{
closed = 1;
nodes = (
"600 85 LINE",
"496 85 LINE",
"496 0 LINE"
);
}
);
width = 660;
},
{
associatedMasterId = "0018AAE5-3623-47DD-B976-BFE254BC69BD";
background = {
guideLines = (
{
position = "{443, 99}";
}
);
paths = (
{
closed = 1;
nodes = (
"463 0 LINE",
"463 670 LINE",
"443 670 LINE",
"443 0 LINE"
);
},
{
closed = 0;
nodes = (
"443 99 LINE",
"369 20 LINE",
"189 20 LINE",
"115 99 LINE"
);
},
{
closed = 1;
nodes = (
"115 0 LINE",
"115 670 LINE",
"95 670 LINE",
"95 0 LINE"
);
}
);
};
guideLines = (
{
position = "{516, 376}";
}
);
hints = (
{
origin = "{1, 1}";
type = Corner;
name = _corner.curi_dir;
options = 1;
},
{
origin = "{0, 3}";
type = Corner;
name = _corner.cur_dir;
options = 1;
},
{
origin = "{0, 2}";
type = Corner;
name = _corner.cur_esq;
options = 1;
},
{
origin = "{1, 2}";
type = Corner;
name = _corner.curi_esq;
options = 1;
},
{
origin = "{0, 1}";
type = Corner;
name = _corner.cur_dir;
options = 1;
},
{
origin = "{1, 3}";
type = Corner;
name = _corner.curi_esq;
options = 1;
},
{
origin = "{0, 0}";
type = Corner;
name = _corner.cur_esq;
options = 1;
},
{
origin = "{1, 0}";
type = Corner;
name = _corner.curi_esq;
options = 1;
}
);
layerId = "0208DBCE-F6BC-40F1-8DB6-887F7636A6CA";
name = "Light Jun 22 16, 17:51";
paths = (
{
closed = 1;
nodes = (
"95 475 LINE",
"95 0 LINE",
"463 0 LINE",
"463 475 LINE"
);
},
{
closed = 1;
nodes = (
"115 455 LINE",
"443 455 LINE",
"443 20 LINE",
"115 20 LINE"
);
}
);
width = 558;
},
{
associatedMasterId = "0018AAE5-3623-47DD-B976-BFE254BC69BD";
background = {
guideLines = (
{
position = "{468, 99}";
},
{
angle = 46.5833;
position = "{391, 220}";
showMeasurement = 1;
},
{
angle = -46.4798;
position = "{157, 282}";
showMeasurement = 1;
}
);
paths = (
{
closed = 1;
nodes = (
"203 475 LINE",
"120 391 LINE",
"120 84 LINE",
"203 0 LINE",
"405 0 LINE",
"488 84 LINE",
"488 391 LINE",
"405 475 LINE"
);
},
{
closed = 1;
nodes = (
"468 92 LINE",
"397 20 LINE",
"211 20 LINE",
"140 92 LINE",
"140 383 LINE",
"211 455 LINE",
"397 455 LINE",
"468 383 LINE"
);
}
);
};
guideLines = (
{
position = "{541, 376}";
}
);
layerId = "AC2616D3-F607-4771-8A32-F41198089DE9";
name = "Light Jul 14 16, 20:19";
paths = (
{
closed = 1;
nodes = (
"438 -80 LINE",
"568 51 LINE",
"568 424 LINE",
"438 555 LINE",
"170 555 LINE",
"40 424 LINE",
"40 51 LINE",
"170 -80 LINE"
);
},
{
closed = 1;
nodes = (
"120 84 LINE",
"120 391 LINE",
"203 475 LINE",
"405 475 LINE",
"488 391 LINE",
"488 84 LINE",
"405 0 LINE",
"203 0 LINE"
);
},
{
closed = 1;
nodes = (
"397 20 LINE",
"468 92 LINE",
"468 383 LINE",
"397 455 LINE",
"211 455 LINE",
"140 383 LINE",
"140 92 LINE",
"211 20 LINE"
);
},
{
closed = 1;
nodes = (
"220 125 LINE",
"220 350 LINE",
"244 375 LINE",
"364 375 LINE",
"388 350 LINE",
"388 125 LINE",
"364 100 LINE",
"244 100 LINE"
);
}
);
width = 608;
},
{
anchors = (
{
name = bottom;
position = "{269, 0}";
},
{
name = center;
position = "{269, 238}";
},
{
name = ogonek;
position = "{488, 10}";
},
{
name = top;
position = "{269, 475}";
},
{
name = topright;
position = "{523, 475}";
}
);
associatedMasterId = "0018AAE5-3623-47DD-B976-BFE254BC69BD";
background = {
guideLines = (
{
position = "{433, 99}";
},
{
angle = 46.5833;
position = "{356, 220}";
showMeasurement = 1;
},
{
angle = -46.4798;
position = "{122, 282}";
showMeasurement = 1;
}
);
paths = (
{
closed = 1;
nodes = (
"168 475 LINE",
"85 391 LINE",
"85 84 LINE",
"168 0 LINE",
"370 0 LINE",
"453 84 LINE",
"453 391 LINE",
"370 475 LINE"
);
},
{
closed = 1;
nodes = (
"433 92 LINE",
"362 20 LINE",
"176 20 LINE",
"105 92 LINE",
"105 383 LINE",
"176 455 LINE",
"362 455 LINE",
"433 383 LINE"
);
}
);
};
guideLines = (
{
position = "{506, 376}";
}
);
layerId = "FBE73459-239B-4955-98F5-56B21401B999";
name = "Light Aug 25 16, 10:07";
paths = (
{
closed = 1;
nodes = (
"168 475 LINE",
"85 391 LINE",
"85 84 LINE",
"168 0 LINE",
"370 0 LINE",
"453 84 LINE",
"453 391 LINE",
"370 475 LINE"
);
},
{
closed = 1;
nodes = (
"105 92 LINE",
"105 383 LINE",
"177 456 LINE",
"361 456 LINE",
"433 383 LINE",
"433 92 LINE",
"361 19 LINE",
"177 19 LINE"
);
}
);
width = 538;
},
{
anchors = (
{
name = bottom;
position = "{269, 0}";
},
{
name = center;
position = "{269, 238}";
},
{
name = ogonek;
position = "{488, 10}";
},
{
name = top;
position = "{269, 475}";
},
{
name = topright;
position = "{523, 475}";
}
);
associatedMasterId = "0018AAE5-3623-47DD-B976-BFE254BC69BD";
background = {
guideLines = (
{
position = "{433, 99}";
},
{
angle = 46.5833;
position = "{356, 220}";
showMeasurement = 1;
},
{
angle = -46.4798;
position = "{122, 282}";
showMeasurement = 1;
}
);
paths = (
{
closed = 1;
nodes = (
"168 475 LINE",
"85 391 LINE",
"85 84 LINE",
"168 0 LINE",
"370 0 LINE",
"453 84 LINE",
"453 391 LINE",
"370 475 LINE"
);
},
{
closed = 1;
nodes = (
"433 92 LINE",
"362 20 LINE",
"176 20 LINE",
"105 92 LINE",
"105 383 LINE",
"176 455 LINE",
"362 455 LINE",
"433 383 LINE"
);
}
);
};
guideLines = (
{
position = "{506, 376}";
}
);
layerId = "5CF1EA77-0EE2-46C3-A9FD-54C3E5ED53CD";
name = "Light Aug 25 16, 10:07 Aug 25 16, 10:08";
paths = (
{
closed = 1;
nodes = (
"168 475 LINE",
"85 391 LINE",
"85 84 LINE",
"168 0 LINE",
"370 0 LINE",
"453 84 LINE",
"453 391 LINE",
"370 475 LINE"
);
},
{
closed = 1;
nodes = (
"105 91 LINE",
"105 384 LINE",
"176 456 LINE",
"362 456 LINE",
"433 384 LINE",
"433 91 LINE",
"362 19 LINE",
"176 19 LINE"
);
}
);
width = 538;
},
{
associatedMasterId = "0018AAE5-3623-47DD-B976-BFE254BC69BD";
background = {
guideLines = (
{
position = "{443, 99}";
}
);
paths = (
{
closed = 1;
nodes = (
"463 0 LINE",
"463 670 LINE",
"443 670 LINE",
"443 0 LINE"
);
},
{
closed = 0;
nodes = (
"443 99 LINE",
"369 20 LINE",
"189 20 LINE",
"115 99 LINE"
);
},
{
closed = 1;
nodes = (
"115 0 LINE",
"115 670 LINE",
"95 670 LINE",
"95 0 LINE"
);
}
);
};
guideLines = (
{
position = "{516, 376}";
}
);
hints = (
{
origin = "{1, 1}";
type = Corner;
name = _corner.curi_dir;
options = 1;
},
{
origin = "{0, 3}";
type = Corner;
name = _corner.cur_dir;
options = 1;
},
{
origin = "{0, 2}";
type = Corner;
name = _corner.cur_esq;
options = 1;
},
{
origin = "{1, 2}";
type = Corner;
name = _corner.curi_esq;
options = 1;
},
{
origin = "{0, 1}";
type = Corner;
name = _corner.cur_dir;
options = 1;
},
{
origin = "{1, 3}";
type = Corner;
name = _corner.curi_esq;
options = 1;
},
{
origin = "{0, 0}";
type = Corner;
name = _corner.cur_esq;
options = 1;
},
{
origin = "{1, 0}";
type = Corner;
name = _corner.curi_esq;
options = 1;
}
);
layerId = "CAA84458-6AE5-4903-9F0A-D27D6C32BDE0";
name = "Light Jun 22 16, 17:51";
paths = (
{
closed = 1;
nodes = (
"95 475 LINE",
"95 0 LINE",
"463 0 LINE",
"463 475 LINE"
);
},
{
closed = 1;
nodes = (
"115 455 LINE",
"443 455 LINE",
"443 20 LINE",
"115 20 LINE"
);
}
);
width = 558;
},
{
associatedMasterId = "0018AAE5-3623-47DD-B976-BFE254BC69BD";
background = {
guideLines = (
{
position = "{468, 99}";
},
{
angle = 46.5833;
position = "{391, 220}";
showMeasurement = 1;
},
{
angle = -46.4798;
position = "{157, 282}";
showMeasurement = 1;
}
);
paths = (
{
closed = 1;
nodes = (
"203 475 LINE",
"120 391 LINE",
"120 84 LINE",
"203 0 LINE",
"405 0 LINE",
"488 84 LINE",
"488 391 LINE",
"405 475 LINE"
);
},
{
closed = 1;
nodes = (
"468 92 LINE",
"397 20 LINE",
"211 20 LINE",
"140 92 LINE",
"140 383 LINE",
"211 455 LINE",
"397 455 LINE",
"468 383 LINE"
);
}
);
};
guideLines = (
{
position = "{541, 376}";
}
);
layerId = "0ED0DA98-0865-408B-A718-BEBF92515BB6";
name = "Light Jul 14 16, 20:19";
paths = (
{
closed = 1;
nodes = (
"438 -80 LINE",
"568 51 LINE",
"568 424 LINE",
"438 555 LINE",
"170 555 LINE",
"40 424 LINE",
"40 51 LINE",
"170 -80 LINE"
);
},
{
closed = 1;
nodes = (
"120 84 LINE",
"120 391 LINE",
"203 475 LINE",
"405 475 LINE",
"488 391 LINE",
"488 84 LINE",
"405 0 LINE",
"203 0 LINE"
);
},
{
closed = 1;
nodes = (
"397 20 LINE",
"468 92 LINE",
"468 383 LINE",
"397 455 LINE",
"211 455 LINE",
"140 383 LINE",
"140 92 LINE",
"211 20 LINE"
);
},
{
closed = 1;
nodes = (
"220 125 LINE",
"220 350 LINE",
"244 375 LINE",
"364 375 LINE",
"388 350 LINE",
"388 125 LINE",
"364 100 LINE",
"244 100 LINE"
);
}
);
width = 608;
},
{
anchors = (
{
name = bottom;
position = "{269, 0}";
},
{
name = center;
position = "{269, 238}";
},
{
name = ogonek;
position = "{488, 10}";
},
{
name = top;
position = "{269, 475}";
},
{
name = topright;
position = "{523, 475}";
}
);
associatedMasterId = "0018AAE5-3623-47DD-B976-BFE254BC69BD";
background = {
guideLines = (
{
position = "{433, 99}";
},
{
angle = 46.5833;
position = "{356, 220}";
showMeasurement = 1;
},
{
angle = -46.4798;
position = "{122, 282}";
showMeasurement = 1;
}
);
paths = (
{
closed = 1;
nodes = (
"168 475 LINE",
"85 391 LINE",
"85 84 LINE",
"168 0 LINE",
"370 0 LINE",
"453 84 LINE",
"453 391 LINE",
"370 475 LINE"
);
},
{
closed = 1;
nodes = (
"433 92 LINE",
"362 20 LINE",
"176 20 LINE",
"105 92 LINE",
"105 383 LINE",
"176 455 LINE",
"362 455 LINE",
"433 383 LINE"
);
}
);
};
guideLines = (
{
position = "{506, 376}";
}
);
layerId = "3A89266F-1D94-4799-81C0-DB1C07077A88";
name = "Light Aug 25 16, 10:07";
paths = (
{
closed = 1;
nodes = (
"168 475 LINE",
"85 391 LINE",
"85 84 LINE",
"168 0 LINE",
"370 0 LINE",
"453 84 LINE",
"453 391 LINE",
"370 475 LINE"
);
},
{
closed = 1;
nodes = (
"105 92 LINE",
"105 383 LINE",
"177 456 LINE",
"361 456 LINE",
"433 383 LINE",
"433 92 LINE",
"361 19 LINE",
"177 19 LINE"
);
}
);
width = 538;
},
{
anchors = (
{
name = bottom;
position = "{269, 0}";
},
{
name = center;
position = "{269, 238}";
},
{
name = ogonek;
position = "{488, 10}";
},
{
name = top;
position = "{269, 475}";
},
{
name = topright;
position = "{523, 475}";
}
);
associatedMasterId = "0018AAE5-3623-47DD-B976-BFE254BC69BD";
background = {
guideLines = (
{
position = "{433, 99}";
},
{
angle = 46.5833;
position = "{356, 220}";
showMeasurement = 1;
},
{
angle = -46.4798;
position = "{122, 282}";
showMeasurement = 1;
}
);
paths = (
{
closed = 1;
nodes = (
"168 475 LINE",
"85 391 LINE",
"85 84 LINE",
"168 0 LINE",
"370 0 LINE",
"453 84 LINE",
"453 391 LINE",
"370 475 LINE"
);
},
{
closed = 1;
nodes = (
"433 92 LINE",
"362 20 LINE",
"176 20 LINE",
"105 92 LINE",
"105 383 LINE",
"176 455 LINE",
"362 455 LINE",
"433 383 LINE"
);
}
);
};
guideLines = (
{
position = "{506, 376}";
}
);
layerId = "3B79F747-28C2-407C-8E8F-AAD569A93A2E";
name = "Light Aug 25 16, 10:07 Aug 25 16, 10:08";
paths = (
{
closed = 1;
nodes = (
"168 475 LINE",
"85 391 LINE",
"85 84 LINE",
"168 0 LINE",
"370 0 LINE",
"453 84 LINE",
"453 391 LINE",
"370 475 LINE"
);
},
{
closed = 1;
nodes = (
"105 91 LINE",
"105 384 LINE",
"176 456 LINE",
"362 456 LINE",
"433 384 LINE",
"433 91 LINE",
"362 19 LINE",
"176 19 LINE"
);
}
);
width = 538;
},
{
anchors = (
{
name = bottom;
position = "{227, 0}";
},
{
name = center;
position = "{269, 238}";
},
{
name = ogonek;
position = "{448, 10}";
},
{
name = top;
position = "{311, 475}";
},
{
name = topright;
position = "{565, 475}";
}
);
associatedMasterId = "0018AAE5-3623-47DD-B976-BFE254BC69BD";
background = {
guideLines = (
{
position = "{391, 99}";
},
{
angle = 46.5833;
position = "{314, 220}";
showMeasurement = 1;
},
{
angle = -46.4798;
position = "{80, 282}";
showMeasurement = 1;
}
);
paths = (
{
closed = 1;
nodes = (
"126 475 LINE",
"43 391 LINE",
"43 84 LINE",
"126 0 LINE",
"328 0 LINE",
"411 84 LINE",
"411 391 LINE",
"328 475 LINE"
);
},
{
closed = 1;
nodes = (
"391 92 LINE",
"320 20 LINE",
"134 20 LINE",
"63 92 LINE",
"63 383 LINE",
"134 455 LINE",
"320 455 LINE",
"391 383 LINE"
);
}
);
};
guideLines = (
{
position = "{617, 376}";
}
);
hints = (
{
origin = "{0, 2}";
type = Corner;
name = _corner.dia_esq;
options = 1;
},
{
origin = "{0, 1}";
type = Corner;
name = _corner.dia_dir;
options = 1;
},
{
origin = "{0, 3}";
type = Corner;
name = _corner.dia_dir;
options = 1;
},
{
origin = "{0, 0}";
type = Corner;
name = _corner.dia_esq;
options = 1;
}
);
layerId = "349368D3-9D02-4F90-A014-2790CB2D3035";
paths = (
{
closed = 1;
nodes = (
"127 475 LINE",
"43 0 LINE",
"411 0 LINE",
"495 475 LINE"
);
},
{
closed = 1;
nodes = (
"79 92 LINE",
"131 383 LINE",
"214 455 LINE",
"400 455 LINE",
"459 383 LINE",
"407 92 LINE",
"324 20 LINE",
"138 20 LINE"
);
}
);
width = 538;
},
{
associatedMasterId = "0018AAE5-3623-47DD-B976-BFE254BC69BD";
background = {
guideLines = (
{
position = "{443, 99}";
}
);
paths = (
{
closed = 1;
nodes = (
"463 0 LINE",
"463 670 LINE",
"443 670 LINE",
"443 0 LINE"
);
},
{
closed = 0;
nodes = (
"443 99 LINE",
"369 20 LINE",
"189 20 LINE",
"115 99 LINE"
);
},
{
closed = 1;
nodes = (
"115 0 LINE",
"115 670 LINE",
"95 670 LINE",
"95 0 LINE"
);
}
);
};
guideLines = (
{
position = "{516, 376}";
}
);
hints = (
{
origin = "{1, 1}";
type = Corner;
name = _corner.curi_dir;
options = 1;
},
{
origin = "{0, 3}";
type = Corner;
name = _corner.cur_dir;
options = 1;
},
{
origin = "{0, 2}";
type = Corner;
name = _corner.cur_esq;
options = 1;
},
{
origin = "{1, 2}";
type = Corner;
name = _corner.curi_esq;
options = 1;
},
{
origin = "{0, 1}";
type = Corner;
name = _corner.cur_dir;
options = 1;
},
{
origin = "{1, 3}";
type = Corner;
name = _corner.curi_esq;
options = 1;
},
{
origin = "{0, 0}";
type = Corner;
name = _corner.cur_esq;
options = 1;
},
{
origin = "{1, 0}";
type = Corner;
name = _corner.curi_esq;
options = 1;
}
);
layerId = "0BB8493A-C66C-46B4-9E8D-253CA00D2628";
name = "Light Jun 22 16, 17:51";
paths = (
{
closed = 1;
nodes = (
"95 475 LINE",
"95 0 LINE",
"463 0 LINE",
"463 475 LINE"
);
},
{
closed = 1;
nodes = (
"115 455 LINE",
"443 455 LINE",
"443 20 LINE",
"115 20 LINE"
);
}
);
width = 558;
},
{
associatedMasterId = "0018AAE5-3623-47DD-B976-BFE254BC69BD";
background = {
guideLines = (
{
position = "{468, 99}";
},
{
angle = 46.5833;
position = "{391, 220}";
showMeasurement = 1;
},
{
angle = -46.4798;
position = "{157, 282}";
showMeasurement = 1;
}
);
paths = (
{
closed = 1;
nodes = (
"203 475 LINE",
"120 391 LINE",
"120 84 LINE",
"203 0 LINE",
"405 0 LINE",
"488 84 LINE",
"488 391 LINE",
"405 475 LINE"
);
},
{
closed = 1;
nodes = (
"468 92 LINE",
"397 20 LINE",
"211 20 LINE",
"140 92 LINE",
"140 383 LINE",
"211 455 LINE",
"397 455 LINE",
"468 383 LINE"
);
}
);
};
guideLines = (
{
position = "{541, 376}";
}
);
layerId = "04F7E06C-8586-423D-84DF-170F9ED958AE";
name = "Light Jul 14 16, 20:19";
paths = (
{
closed = 1;
nodes = (
"438 -80 LINE",
"568 51 LINE",
"568 424 LINE",
"438 555 LINE",
"170 555 LINE",
"40 424 LINE",
"40 51 LINE",
"170 -80 LINE"
);
},
{
closed = 1;
nodes = (
"120 84 LINE",
"120 391 LINE",
"203 475 LINE",
"405 475 LINE",
"488 391 LINE",
"488 84 LINE",
"405 0 LINE",
"203 0 LINE"
);
},
{
closed = 1;
nodes = (
"397 20 LINE",
"468 92 LINE",
"468 383 LINE",
"397 455 LINE",
"211 455 LINE",
"140 383 LINE",
"140 92 LINE",
"211 20 LINE"
);
},
{
closed = 1;
nodes = (
"220 125 LINE",
"220 350 LINE",
"244 375 LINE",
"364 375 LINE",
"388 350 LINE",
"388 125 LINE",
"364 100 LINE",
"244 100 LINE"
);
}
);
width = 608;
},
{
anchors = (
{
name = bottom;
position = "{269, 0}";
},
{
name = center;
position = "{269, 238}";
},
{
name = ogonek;
position = "{488, 10}";
},
{
name = top;
position = "{269, 475}";
},
{
name = topright;
position = "{523, 475}";
}
);
associatedMasterId = "0018AAE5-3623-47DD-B976-BFE254BC69BD";
background = {
guideLines = (
{
position = "{433, 99}";
},
{
angle = 46.5833;
position = "{356, 220}";
showMeasurement = 1;
},
{
angle = -46.4798;
position = "{122, 282}";
showMeasurement = 1;
}
);
paths = (
{
closed = 1;
nodes = (
"168 475 LINE",
"85 391 LINE",
"85 84 LINE",
"168 0 LINE",
"370 0 LINE",
"453 84 LINE",
"453 391 LINE",
"370 475 LINE"
);
},
{
closed = 1;
nodes = (
"433 92 LINE",
"362 20 LINE",
"176 20 LINE",
"105 92 LINE",
"105 383 LINE",
"176 455 LINE",
"362 455 LINE",
"433 383 LINE"
);
}
);
};
guideLines = (
{
position = "{506, 376}";
}
);
layerId = "FC566E73-53ED-476D-AA14-72CD36A5B4A4";
name = "Light Aug 25 16, 10:07";
paths = (
{
closed = 1;
nodes = (
"168 475 LINE",
"85 391 LINE",
"85 84 LINE",
"168 0 LINE",
"370 0 LINE",
"453 84 LINE",
"453 391 LINE",
"370 475 LINE"
);
},
{
closed = 1;
nodes = (
"105 92 LINE",
"105 383 LINE",
"177 456 LINE",
"361 456 LINE",
"433 383 LINE",
"433 92 LINE",
"361 19 LINE",
"177 19 LINE"
);
}
);
width = 538;
},
{
anchors = (
{
name = bottom;
position = "{269, 0}";
},
{
name = center;
position = "{269, 238}";
},
{
name = ogonek;
position = "{488, 10}";
},
{
name = top;
position = "{269, 475}";
},
{
name = topright;
position = "{523, 475}";
}
);
associatedMasterId = "0018AAE5-3623-47DD-B976-BFE254BC69BD";
background = {
guideLines = (
{
position = "{433, 99}";
},
{
angle = 46.5833;
position = "{356, 220}";
showMeasurement = 1;
},
{
angle = -46.4798;
position = "{122, 282}";
showMeasurement = 1;
}
);
paths = (
{
closed = 1;
nodes = (
"168 475 LINE",
"85 391 LINE",
"85 84 LINE",
"168 0 LINE",
"370 0 LINE",
"453 84 LINE",
"453 391 LINE",
"370 475 LINE"
);
},
{
closed = 1;
nodes = (
"433 92 LINE",
"362 20 LINE",
"176 20 LINE",
"105 92 LINE",
"105 383 LINE",
"176 455 LINE",
"362 455 LINE",
"433 383 LINE"
);
}
);
};
guideLines = (
{
position = "{506, 376}";
}
);
layerId = "36C06F6C-8AD8-479C-94E3-1ADE123CCA56";
name = "Light Aug 25 16, 10:07 Aug 25 16, 10:08";
paths = (
{
closed = 1;
nodes = (
"168 475 LINE",
"85 391 LINE",
"85 84 LINE",
"168 0 LINE",
"370 0 LINE",
"453 84 LINE",
"453 391 LINE",
"370 475 LINE"
);
},
{
closed = 1;
nodes = (
"105 91 LINE",
"105 384 LINE",
"176 456 LINE",
"362 456 LINE",
"433 384 LINE",
"433 91 LINE",
"362 19 LINE",
"176 19 LINE"
);
}
);
width = 538;
},
{
anchors = (
{
name = bottom;
position = "{227, 0}";
},
{
name = center;
position = "{269, 238}";
},
{
name = ogonek;
position = "{448, 10}";
},
{
name = top;
position = "{311, 475}";
},
{
name = topright;
position = "{565, 475}";
}
);
associatedMasterId = "0018AAE5-3623-47DD-B976-BFE254BC69BD";
background = {
guideLines = (
{
position = "{391, 99}";
},
{
angle = 46.5833;
position = "{314, 220}";
showMeasurement = 1;
},
{
angle = -46.4798;
position = "{80, 282}";
showMeasurement = 1;
}
);
paths = (
{
closed = 1;
nodes = (
"126 475 LINE",
"43 391 LINE",
"43 84 LINE",
"126 0 LINE",
"328 0 LINE",
"411 84 LINE",
"411 391 LINE",
"328 475 LINE"
);
},
{
closed = 1;
nodes = (
"391 92 LINE",
"320 20 LINE",
"134 20 LINE",
"63 92 LINE",
"63 383 LINE",
"134 455 LINE",
"320 455 LINE",
"391 383 LINE"
);
}
);
};
guideLines = (
{
position = "{617, 376}";
}
);
hints = (
{
origin = "{0, 2}";
type = Corner;
name = _corner.dia_esq;
options = 1;
},
{
origin = "{0, 1}";
type = Corner;
name = _corner.dia_dir;
options = 1;
},
{
origin = "{0, 3}";
type = Corner;
name = _corner.dia_dir;
options = 1;
},
{
origin = "{0, 0}";
type = Corner;
name = _corner.dia_esq;
options = 1;
}
);
layerId = "23CFA704-3F5C-43E8-B693-E774AAAB716E";
paths = (
{
closed = 1;
nodes = (
"127 475 LINE",
"43 0 LINE",
"411 0 LINE",
"495 475 LINE"
);
},
{
closed = 1;
nodes = (
"79 92 LINE",
"131 383 LINE",
"214 455 LINE",
"400 455 LINE",
"459 383 LINE",
"407 92 LINE",
"324 20 LINE",
"138 20 LINE"
);
}
);
width = 538;
},
{
associatedMasterId = "0018AAE5-3623-47DD-B976-BFE254BC69BD";
layerId = "B0B4B750-F17F-4A76-9AF1-A20180EF6FF9";
width = 600;
}
);
leftKerningGroup = o;
rightKerningGroup = o;
unicode = 006F;
},
{
glyphname = odieresismacron;
lastChange = "2019-04-11 00:14:08 +0000";
layers = (
{
components = (
{
name = o;
},
{
name = dieresiscomb;
transform = "{1, 0, 0, 1, 118, -166}";
}
);
layerId = "0018AAE5-3623-47DD-B976-BFE254BC69BD";
paths = (
{
closed = 1;
nodes = (
"398.25 662.125 LINE",
"398.25 681.125 LINE",
"136.25 681.125 LINE",
"136.25 662.125 LINE"
);
}
);
width = 538;
},
{
components = (
{
name = o;
},
{
name = dieresiscomb;
transform = "{1, 0, 0, 1, 69.5, -165}";
}
);
layerId = "20086791-C5B6-4597-997A-CAD8F8E58507";
paths = (
{
closed = 1;
nodes = (
"460.5 685.25 LINE",
"460.5 767.25 LINE",
"109.5 767.25 LINE",
"109.5 685.25 LINE"
);
}
);
width = 570;
}
);
unicode = 022B;
},
{
glyphname = odotaccentmacron;
lastChange = "2019-04-11 00:14:30 +0000";
layers = (
{
components = (
{
name = o;
},
{
name = dotaccentcomb;
transform = "{1, 0, 0, 1, 164, -19.968}";
}
);
layerId = "0018AAE5-3623-47DD-B976-BFE254BC69BD";
paths = (
{
closed = 1;
nodes = (
"398.25 662.125 LINE",
"398.25 681.125 LINE",
"136.25 681.125 LINE",
"136.25 662.125 LINE"
);
}
);
width = 538;
},
{
components = (
{
name = o;
},
{
name = dotaccentcomb;
transform = "{1, 0, 0, 1, 155, 0.5}";
}
);
layerId = "20086791-C5B6-4597-997A-CAD8F8E58507";
paths = (
{
closed = 1;
nodes = (
"460.5 685.25 LINE",
"460.5 767.25 LINE",
"109.5 767.25 LINE",
"109.5 685.25 LINE"
);
}
);
width = 570;
}
);
unicode = 0231;
},
{
glyphname = oogonek;
lastChange = "2019-01-02 21:34:29 +0000";
layers = (
{
components = (
{
name = o;
}
);
layerId = "0018AAE5-3623-47DD-B976-BFE254BC69BD";
paths = (
{
closed = 1;
nodes = (
"390.5 -116 LINE",
"390.5 -96 LINE",
"370.5 -96 LINE",
"341.5 -67 LINE",
"341.5 -30.75 LINE",
"379.5 10 LINE",
"356.5 10 LINE",
"321.5 -25 LINE",
"321.5 -73 LINE",
"364.5 -116 LINE"
);
}
);
width = 538;
},
{
components = (
{
name = o;
}
);
layerId = "20086791-C5B6-4597-997A-CAD8F8E58507";
paths = (
{
closed = 1;
nodes = (
"427 -146 LINE",
"427 -72 LINE",
"398 -72 LINE",
"379 -53 LINE",
"379 -25 LINE",
"414.125 10 LINE",
"351 10 LINE",
"310 -20 LINE",
"310 -88 LINE",
"368 -146 LINE"
);
}
);
width = 570;
}
);
unicode = 01EB;
},
{
glyphname = oslash;
lastChange = "2019-01-02 21:34:29 +0000";
layers = (
{
components = (
{
name = o;
}
);
layerId = "0018AAE5-3623-47DD-B976-BFE254BC69BD";
paths = (
{
closed = 1;
nodes = (
"405 433 LINE",
"388 444 LINE",
"133 43 LINE",
"150 32 LINE"
);
}
);
width = 538;
},
{
components = (
{
name = o;
}
);
layerId = "20086791-C5B6-4597-997A-CAD8F8E58507";
paths = (
{
closed = 1;
nodes = (
"440 401 LINE",
"381 445 LINE",
"127 70 LINE",
"187 25 LINE"
);
}
);
width = 570;
}
);
leftKerningGroup = o;
rightKerningGroup = o;
unicode = 00F8;
},
{
glyphname = otildemacron;
lastChange = "2019-04-11 00:30:47 +0000";
layers = (
{
components = (
{
name = o;
},
{
name = tildecomb;
transform = "{1, 0, 0, 1, 118, -194}";
}
);
layerId = "0018AAE5-3623-47DD-B976-BFE254BC69BD";
paths = (
{
closed = 1;
nodes = (
"398.25 653.125 LINE",
"398.25 672.125 LINE",
"136.25 672.125 LINE",
"136.25 653.125 LINE"
);
}
);
width = 538;
},
{
components = (
{
name = o;
},
{
name = tildecomb;
transform = "{1, 0, 0, 1, 72, -195}";
}
);
layerId = "20086791-C5B6-4597-997A-CAD8F8E58507";
paths = (
{
closed = 1;
nodes = (
"460.5 684.25 LINE",
"460.5 766.25 LINE",
"109.5 766.25 LINE",
"109.5 684.25 LINE"
);
}
);
width = 570;
}
);
unicode = 022D;
},
{
glyphname = p;
lastChange = "2019-01-02 21:34:29 +0000";
layers = (
{
components = (
{
name = _part.b;
transform = "{1, 0, 0, 1, 27, 0}";
}
);
layerId = "0018AAE5-3623-47DD-B976-BFE254BC69BD";
paths = (
{
closed = 1;
nodes = (
"115 -170 LINE",
"115 475 LINE",
"95 475 LINE",
"95 -170 LINE"
);
}
);
width = 548;
},
{
components = (
{
name = _part.b;
transform = "{1, 0, 0, 1, -15, 0}";
}
);
layerId = "20086791-C5B6-4597-997A-CAD8F8E58507";
paths = (
{
closed = 1;
nodes = (
"185 -170 LINE",
"185 475 LINE",
"75 475 LINE",
"75 -170 LINE"
);
}
);
width = 591;
}
);
leftKerningGroup = n;
leftMetricsKey = n;
rightKerningGroup = o;
rightMetricsKey = o;
unicode = 0070;
},
{
glyphname = thorn;
lastChange = "2019-01-02 21:34:29 +0000";
layers = (
{
components = (
{
name = _part.b;
transform = "{1, 0, 0, 1, 27, 0}";
}
);
layerId = "0018AAE5-3623-47DD-B976-BFE254BC69BD";
paths = (
{
closed = 1;
nodes = (
"115 -170 LINE",
"115 670 LINE",
"95 670 LINE",
"95 -170 LINE"
);
}
);
width = 548;
},
{
components = (
{
name = _part.b;
transform = "{1, 0, 0, 1, -15, 0}";
}
);
layerId = "20086791-C5B6-4597-997A-CAD8F8E58507";
paths = (
{
closed = 1;
nodes = (
"185 -170 LINE",
"185 670 LINE",
"75 670 LINE",
"75 -170 LINE"
);
}
);
width = 591;
}
);
leftMetricsKey = p;
rightKerningGroup = o;
rightMetricsKey = p;
unicode = 00FE;
},
{
glyphname = q;
lastChange = "2019-01-02 21:34:29 +0000";
layers = (
{
components = (
{
name = _part.b;
transform = "{-1, 0, 0, 1, 521, 0}";
}
);
layerId = "0018AAE5-3623-47DD-B976-BFE254BC69BD";
paths = (
{
closed = 1;
nodes = (
"453 -170 LINE",
"453 475 LINE",
"433 475 LINE",
"433 -170 LINE"
);
}
);
width = 548;
},
{
components = (
{
name = _part.b;
transform = "{-1, 0, 0, 1, 606, 0}";
}
);
layerId = "20086791-C5B6-4597-997A-CAD8F8E58507";
paths = (
{
closed = 1;
nodes = (
"516 -170 LINE",
"516 475 LINE",
"406 475 LINE",
"406 -170 LINE"
);
}
);
width = 591;
}
);
leftKerningGroup = o;
leftMetricsKey = o;
rightKerningGroup = q;
rightMetricsKey = d;
unicode = 0071;
},
{
glyphname = r;
lastChange = "2019-01-02 21:34:29 +0000";
layers = (
{
anchors = (
{
name = botton;
position = "{105, 0}";
},
{
name = top;
position = "{219, 475}";
}
);
components = (
{
name = _part.i;
transform = "{1, 0, 0, 1, 15, 0}";
}
);
layerId = "0018AAE5-3623-47DD-B976-BFE254BC69BD";
paths = (
{
closed = 1;
nodes = (
"202 455 LINE",
"343 455 LINE",
"343 475 LINE",
"194 475 LINE",
"107 379 LINE",
"107 353 LINE"
);
}
);
width = 358;
},
{
anchors = (
{
name = botton;
position = "{130, 0}";
},
{
name = top;
position = "{226.5, 475}";
}
);
components = (
{
name = _part.i;
}
);
layerId = "20086791-C5B6-4597-997A-CAD8F8E58507";
paths = (
{
closed = 1;
nodes = (
"271.75 365 LINE",
"378 365 LINE",
"378 475 LINE",
"270 475 LINE",
"170 376 LINE",
"170 264 LINE"
);
}
);
width = 388;
}
);
leftKerningGroup = n;
leftMetricsKey = n;
rightKerningGroup = r;
unicode = 0072;
},
{
glyphname = s;
lastChange = "2019-01-02 21:34:29 +0000";
layers = (
{
anchors = (
{
name = botton;
position = "{244, 0}";
},
{
name = top;
position = "{244, 475}";
}
);
layerId = "0018AAE5-3623-47DD-B976-BFE254BC69BD";
paths = (
{
closed = 1;
nodes = (
"354 0 LINE",
"418 69 LINE",
"418 191 LINE",
"349 255 LINE",
"144.625 255 LINE",
"90 305.5 LINE",
"90 400.5 LINE",
"140.5 455 LINE",
"384 455 LINE",
"384 475 LINE",
"134 475 LINE",
"70 406 LINE",
"70 299 LINE",
"139 235 LINE",
"343.5 235 LINE",
"398 184.5 LINE",
"398 74.5 LINE",
"347.5 20 LINE",
"86 20 LINE",
"86 0 LINE"
);
}
);
width = 488;
},
{
anchors = (
{
name = botton;
position = "{264, 0}";
},
{
name = top;
position = "{264, 475}";
}
);
layerId = "20086791-C5B6-4597-997A-CAD8F8E58507";
paths = (
{
closed = 1;
nodes = (
"384 0 LINE",
"475 91 LINE",
"475 197 LINE",
"382 288 LINE",
"204 288 LINE",
"163 329 LINE",
"163 350 LINE",
"198 385 LINE",
"424 385 LINE",
"424 475 LINE",
"144 475 LINE",
"53 384 LINE",
"53 292 LINE",
"146 201 LINE",
"322 201 LINE",
"365 158 LINE",
"365 127 LINE",
"328 90 LINE",
"79 90 LINE",
"79 0 LINE"
);
}
);
width = 525;
}
);
leftKerningGroup = o;
rightKerningGroup = o;
unicode = 0073;
},
{
glyphname = germandbls;
lastChange = "2019-01-02 21:34:29 +0000";
layers = (
{
background = {
paths = (
{
closed = 1;
nodes = (
"125 0 LINE",
"125 580 LINE",
"194 650 LINE",
"360 650 LINE",
"429 580 LINE",
"429 408.375 LINE",
"382.375 356.625 LINE",
"406 355.375 LINE",
"449 403 LINE",
"449 586 LINE",
"366 670 LINE",
"188 670 LINE",
"105 586 LINE",
"105 0 LINE"
);
},
{
closed = 1;
nodes = (
"408 0 LINE",
"491 84 LINE",
"491 289 LINE",
"408 373 LINE",
"210 373 LINE",
"210 353 LINE",
"402 353 LINE",
"471 283 LINE",
"471 90 LINE",
"402 20 LINE",
"210 20 LINE",
"210 0 LINE"
);
}
);
};
hints = (
{
origin = "{1, 6}";
type = Corner;
name = _corner.int_ESQ;
options = 1;
},
{
origin = "{0, 1}";
type = Corner;
name = _corner.int_ESQ;
options = 1;
},
{
origin = "{0, 8}";
type = Corner;
name = _corner.dia_esq;
options = 1;
},
{
origin = "{1, 0}";
type = Corner;
name = _corner.dia_esq;
options = 1;
},
{
origin = "{0, 2}";
type = Corner;
name = _corner.int_DIR;
options = 1;
},
{
origin = "{0, 7}";
type = Corner;
name = _corner.dia_dir;
options = 1;
},
{
origin = "{1, 5}";
type = Corner;
name = _corner.int_DIR;
options = 1;
}
);
layerId = "0018AAE5-3623-47DD-B976-BFE254BC69BD";
paths = (
{
closed = 1;
nodes = (
"125 0 LINE",
"125 650 LINE",
"429 650 LINE",
"429 408.375 LINE",
"382.375 356.625 LINE",
"406 355.375 LINE",
"449 403 LINE",
"449 670 LINE",
"105 670 LINE",
"105 0 LINE"
);
},
{
closed = 1;
nodes = (
"491 0 LINE",
"491 289 LINE",
"408 373 LINE",
"210 373 LINE",
"210 353 LINE",
"471 353 LINE",
"471 20 LINE",
"210 20 LINE",
"210 0 LINE"
);
}
);
width = 576;
},
{
background = {
paths = (
{
closed = 1;
nodes = (
"199 0 LINE",
"198.75 530 LINE",
"239 570.125 LINE",
"371 570.25 LINE",
"411.125 530 LINE",
"411 439 LINE",
"371 399 LINE",
"253 399 LINE",
"253 299 LINE",
"421 299.25 LINE",
"461.125 259 LINE",
"461.25 140 LINE",
"421 99.875 LINE",
"253 100 LINE",
"253 0 LINE",
"474 0 LINE",
"575 101 LINE",
"575 297.875 LINE",
"499 374 LINE",
"525 400 LINE",
"525 569 LINE",
"424 670 LINE",
"186 670 LINE",
"85 569 LINE",
"85 0 LINE"
);
}
);
};
hints = (
{
origin = "{0, 1}";
type = Corner;
name = _corner.int_ESQ;
options = 1;
},
{
origin = "{0, 8}";
type = Corner;
name = _corner.dia_esq;
options = 1;
},
{
origin = "{0, 7}";
type = Corner;
name = _corner.dia_dir;
options = 1;
},
{
origin = "{0, 2}";
type = Corner;
name = _corner.int_DIR;
options = 1;
},
{
origin = "{1, 0}";
type = Corner;
name = _corner.dia_esq;
options = 1;
},
{
origin = "{1, 6}";
type = Corner;
name = _corner.int_ESQ;
options = 1;
},
{
origin = "{1, 5}";
type = Corner;
name = _corner.int_DIR;
options = 1;
}
);
layerId = "20086791-C5B6-4597-997A-CAD8F8E58507";
paths = (
{
closed = 1;
nodes = (
"199 0 LINE",
"199 570 LINE",
"411 570 LINE",
"411 439 LINE",
"370 398 LINE",
"473 348 LINE",
"525 400 LINE",
"525 670 LINE",
"85 670 LINE",
"85 0 LINE"
);
},
{
closed = 1;
nodes = (
"575 0 LINE",
"575 298 LINE",
"474 399 LINE",
"253 399 LINE",
"253 299 LINE",
"461 299 LINE",
"461 100 LINE",
"253 100 LINE",
"253 0 LINE"
);
}
);
width = 645;
}
);
leftMetricsKey = H;
rightMetricsKey = B;
unicode = 00DF;
},
{
glyphname = t;
lastChange = "2019-01-02 21:34:29 +0000";
layers = (
{
anchors = (
{
name = botton;
position = "{220, 0}";
}
);
background = {
paths = (
{
closed = 1;
nodes = (
"274 0 LINE",
"274 20 LINE",
"172 20 LINE",
"119 77 LINE",
"119 609 LINE",
"99 609 LINE",
"99 468 LINE",
"99 458 LINE",
"99 69 LINE",
"163 0 LINE"
);
},
{
closed = 1;
nodes = (
"257 455 LINE",
"257 475 LINE",
"25 475 LINE",
"25 455 LINE"
);
}
);
};
layerId = "0018AAE5-3623-47DD-B976-BFE254BC69BD";
paths = (
{
closed = 1;
nodes = (
"274 0 LINE",
"274 20 LINE",
"173.125 20 LINE",
"119 75 LINE",
"119 609 LINE",
"99 609 LINE",
"99 468 LINE",
"99 458 LINE",
"99 69 LINE",
"167.125 0 LINE"
);
},
{
closed = 1;
nodes = (
"257 455 LINE",
"257 475 LINE",
"25 475 LINE",
"25 455 LINE"
);
}
);
width = 289;
},
{
anchors = (
{
name = botton;
position = "{228, 0}";
}
);
layerId = "20086791-C5B6-4597-997A-CAD8F8E58507";
paths = (
{
closed = 1;
nodes = (
"290 0 LINE",
"290 90 LINE",
"222 90 LINE",
"185 129 LINE",
"185 591 LINE",
"107 591 LINE",
"75 464 LINE",
"75 429 LINE",
"75 90 LINE",
"167 0 LINE"
);
},
{
closed = 1;
nodes = (
"268 390 LINE",
"268 475 LINE",
"37 475 LINE",
"37 390 LINE"
);
}
);
width = 320;
}
);
leftKerningGroup = t;
rightKerningGroup = t;
unicode = 0074;
},
{
glyphname = tbar;
lastChange = "2019-01-02 21:34:29 +0000";
layers = (
{
components = (
{
name = t;
}
);
layerId = "0018AAE5-3623-47DD-B976-BFE254BC69BD";
paths = (
{
closed = 1;
nodes = (
"257 242 LINE",
"257 262 LINE",
"25 262 LINE",
"25 242 LINE"
);
}
);
width = 289;
},
{
components = (
{
name = t;
}
);
layerId = "20086791-C5B6-4597-997A-CAD8F8E58507";
paths = (
{
closed = 1;
nodes = (
"268 216 LINE",
"268 291 LINE",
"37 291 LINE",
"37 216 LINE"
);
}
);
width = 320;
}
);
leftMetricsKey = t;
rightMetricsKey = t;
unicode = 0167;
},
{
glyphname = tcaron;
lastChange = "2019-04-16 18:48:39 +0000";
layers = (
{
background = {
paths = (
{
closed = 1;
nodes = (
"190 515 LINE",
"225 670 LINE",
"202 670 LINE",
"175 515 LINE"
);
}
);
};
components = (
{
name = t;
},
{
alignment = -1;
name = commaaccentcomb;
transform = "{1, 0, 0, 1, 146.13, 721.953}";
}
);
layerId = "0018AAE5-3623-47DD-B976-BFE254BC69BD";
width = 289;
},
{
background = {
paths = (
{
closed = 1;
nodes = (
"268.875 505.875 LINE",
"330.75 697.125 LINE",
"223.75 697.125 LINE",
"212.75 505.875 LINE"
);
}
);
};
components = (
{
alignment = -1;
name = t;
},
{
alignment = -1;
name = commaaccentcomb;
transform = "{1, 0, 0, 1, 208.637, 732.131}";
}
);
layerId = "20086791-C5B6-4597-997A-CAD8F8E58507";
width = 374.625;
}
);
leftMetricsKey = t;
rightMetricsKey = t;
unicode = 0165;
},
{
glyphname = u;
lastChange = "2019-01-02 21:34:29 +0000";
layers = (
{
anchors = (
{
name = bottom;
position = "{273.875, 0}";
},
{
name = horn;
position = "{455, 386}";
},
{
name = ogonek;
position = "{458, 0}";
},
{
name = top;
position = "{273.875, 475}";
}
);
background = {
hints = (
{
origin = "{0, 4}";
type = Corner;
name = _corner.int_DIR;
},
{
origin = "{0, 7}";
type = Corner;
name = _corner.dia_dir;
}
);
paths = (
{
closed = 1;
nodes = (
"359 0 LINE",
"446 96 LINE",
"446 122 LINE",
"351 20 LINE",
"110 20 LINE",
"110 475 LINE",
"90 475 LINE",
"90 0 LINE"
);
}
);
};
components = (
{
name = _part.i;
transform = "{-1, 0, 0, -1, 538, 475}";
}
);
hints = (
{
origin = "{0, 7}";
type = Corner;
name = _corner.dia_dir;
options = 1;
},
{
origin = "{0, 4}";
type = Corner;
name = _corner.int_DIR;
options = 1;
}
);
layerId = "0018AAE5-3623-47DD-B976-BFE254BC69BD";
paths = (
{
closed = 1;
nodes = (
"359 0 LINE",
"446 96 LINE",
"446 122 LINE",
"351 20 LINE",
"109.75 20 LINE",
"109.75 475 LINE",
"89.75 475 LINE",
"89.75 0 LINE"
);
}
);
width = 553;
},
{
anchors = (
{
name = bottom;
position = "{293, 0}";
},
{
name = horn;
position = "{506.625, 386}";
},
{
name = ogonek;
position = "{516, 0}";
},
{
name = top;
position = "{293, 475}";
}
);
components = (
{
name = _part.i;
transform = "{-1, 0, 0, -1, 591, 475}";
}
);
hints = (
{
origin = "{0, 4}";
type = Corner;
name = _corner.int_DIR;
},
{
origin = "{0, 7}";
type = Corner;
name = _corner.dia_dir;
}
);
layerId = "20086791-C5B6-4597-997A-CAD8F8E58507";
paths = (
{
closed = 1;
nodes = (
"337 0 LINE",
"437 99 LINE",
"437 211 LINE",
"310 85 LINE",
"180 85 LINE",
"180 475 LINE",
"70 475 LINE",
"70 0 LINE"
);
}
);
width = 591;
}
);
leftKerningGroup = u;
rightKerningGroup = u;
rightMetricsKey = d;
unicode = 0075;
},
{
glyphname = uogonek;
lastChange = "2019-01-02 21:34:29 +0000";
layers = (
{
anchors = (
{
name = _ogonek;
position = "{458, 0}";
},
{
name = bottom;
position = "{274, 0}";
},
{
name = ogonek;
position = "{458, 0}";
},
{
name = top;
position = "{274, 475}";
},
{
name = topright;
position = "{533, 475}";
}
);
components = (
{
name = u;
}
);
guideLines = (
{
angle = -55.9518;
position = "{392, 3}";
showMeasurement = 1;
}
);
layerId = "0018AAE5-3623-47DD-B976-BFE254BC69BD";
paths = (
{
closed = 1;
nodes = (
"458 -126 LINE",
"458 -106 LINE",
"441 -106 LINE",
"409 -74 LINE",
"409 -47 LINE",
"458 -10 LINE",
"458 0 LINE",
"438 0 LINE",
"389 -36 LINE",
"389 -83 LINE",
"432 -126 LINE"
);
}
);
width = 553;
},
{
anchors = (
{
name = _ogonek;
position = "{516, 0}";
},
{
name = bottom;
position = "{276, 0}";
},
{
name = ogonek;
position = "{516, 0}";
},
{
name = top;
position = "{293, 475}";
},
{
name = topright;
position = "{536, 475}";
}
);
components = (
{
name = u;
}
);
layerId = "20086791-C5B6-4597-997A-CAD8F8E58507";
paths = (
{
closed = 1;
nodes = (
"516 -156 LINE",
"516 -82 LINE",
"487 -82 LINE",
"468 -63 LINE",
"468 -35 LINE",
"516 0 LINE",
"516 0 LINE",
"440 0 LINE",
"399 -30 LINE",
"399 -98 LINE",
"457 -156 LINE"
);
}
);
width = 591;
}
);
leftKerningGroup = u;
leftMetricsKey = u;
rightKerningGroup = u;
rightMetricsKey = u;
unicode = 0173;
},
{
glyphname = v;
lastChange = "2019-01-02 21:34:29 +0000";
layers = (
{
background = {
paths = (
{
closed = 1;
nodes = (
"254.632 0 LINE",
"450.419 475 LINE",
"450.419 475 LINE",
"430 475 LINE",
"244 23 LINE",
"226 23 LINE",
"40 475 LINE",
"20 475 LINE",
"20 475 LINE",
"216 0 LINE"
);
}
);
};
layerId = "0018AAE5-3623-47DD-B976-BFE254BC69BD";
paths = (
{
closed = 1;
nodes = (
"254.625 0 LINE",
"450.375 475 LINE",
"430 475 LINE",
"244 23 LINE",
"226 23 LINE",
"40 475 LINE",
"20 475 LINE",
"216 0 LINE"
);
}
);
width = 470.419;
},
{
layerId = "20086791-C5B6-4597-997A-CAD8F8E58507";
paths = (
{
closed = 1;
nodes = (
"344 0 LINE",
"548 475 LINE",
"427 475 LINE",
"290 108 LINE",
"268 108 LINE",
"131 475 LINE",
"10 475 LINE",
"214 0 LINE"
);
}
);
width = 558;
}
);
leftKerningGroup = v;
rightKerningGroup = v;
unicode = 0076;
},
{
glyphname = w;
lastChange = "2019-01-02 21:34:29 +0000";
layers = (
{
anchors = (
{
name = bottom;
position = "{339.75, 0}";
},
{
name = top;
position = "{339.506, 475}";
}
);
background = {
paths = (
{
closed = 1;
nodes = (
"216.506 0 LINE",
"339.506 445 LINE",
"462.506 0 LINE",
"505.506 0 LINE",
"659.506 475 LINE",
"659.506 475 LINE",
"639.506 475 LINE",
"493.506 23 LINE",
"475.506 23 LINE",
"350.506 475 LINE",
"328.506 475 LINE",
"203.506 23 LINE",
"185.506 23 LINE",
"39.506 475 LINE",
"20 475 LINE",
"20 475 LINE",
"174 0 LINE"
);
}
);
};
guideLines = (
{
angle = -18.6312;
position = "{593.657, 89.258}";
showMeasurement = 1;
}
);
layerId = "0018AAE5-3623-47DD-B976-BFE254BC69BD";
paths = (
{
closed = 1;
nodes = (
"216.5 0 LINE",
"339.625 445.5 LINE",
"463 0 LINE",
"505.75 -0.125 LINE",
"659.5 475 LINE",
"639.875 475 LINE",
"493.5 23 LINE",
"475.5 23 LINE",
"350.5 475 LINE",
"328.5 475 LINE",
"203.5 23 LINE",
"185.5 23 LINE",
"39.5 475 LINE",
"20 475 LINE",
"174 0 LINE"
);
}
);
width = 679.506;
},
{
anchors = (
{
name = bottom;
position = "{403, 0}";
},
{
name = top;
position = "{403, 475}";
}
);
layerId = "20086791-C5B6-4597-997A-CAD8F8E58507";
paths = (
{
closed = 1;
nodes = (
"305 0 LINE",
"403 304 LINE",
"501 0 LINE",
"643 0 LINE",
"796 475 LINE",
"680 475 LINE",
"583 108 LINE",
"561 108 LINE",
"464 475 LINE",
"342 475 LINE",
"245 108 LINE",
"223 108 LINE",
"126 475 LINE",
"10 475 LINE",
"163 0 LINE"
);
}
);
width = 806;
}
);
leftKerningGroup = w;
leftMetricsKey = v;
rightKerningGroup = w;
rightMetricsKey = v;
unicode = 0077;
},
{
glyphname = x;
lastChange = "2019-01-02 21:34:29 +0000";
layers = (
{
guideLines = (
{
angle = -34.1854;
position = "{210.99, 294.721}";
showMeasurement = 1;
}
);
layerId = "0018AAE5-3623-47DD-B976-BFE254BC69BD";
paths = (
{
closed = 1;
nodes = (
"42.641 0 LINE",
"202.641 233 LINE",
"220.641 233 LINE",
"380.641 0 LINE",
"402.641 0 LINE",
"227.641 255 LINE",
"227.641 231 LINE",
"403.641 475 LINE",
"380.641 475 LINE",
"220.641 253 LINE",
"202.641 253 LINE",
"42.641 475 LINE",
"20.641 475 LINE",
"195.641 231 LINE",
"195.641 256 LINE",
"20 0 LINE"
);
}
);
width = 423.641;
},
{
layerId = "20086791-C5B6-4597-997A-CAD8F8E58507";
paths = (
{
closed = 1;
nodes = (
"145 0 LINE",
"264 191 LINE",
"286 191 LINE",
"407 0 LINE",
"542 0 LINE",
"349 283 LINE",
"347 209 LINE",
"542 475 LINE",
"410 475 LINE",
"287 298 LINE",
"265 298 LINE",
"142 475 LINE",
"10 475 LINE",
"205 209 LINE",
"204 283 LINE",
"10 0 LINE"
);
}
);
width = 552;
}
);
leftKerningGroup = x;
leftMetricsKey = v;
rightKerningGroup = x;
rightMetricsKey = v;
unicode = 0078;
},
{
glyphname = y;
lastChange = "2019-01-02 21:34:29 +0000";
layers = (
{
anchors = (
{
name = bottom;
position = "{350.75, 25}";
},
{
name = top;
position = "{236.5, 475}";
}
);
layerId = "0018AAE5-3623-47DD-B976-BFE254BC69BD";
paths = (
{
closed = 1;
nodes = (
"187.493 -170.005 LINE",
"453.091 474.995 LINE",
"432.921 475 LINE",
"264.246 66 LINE",
"245.921 66 LINE",
"40.921 475 LINE",
"20 475 LINE",
"236.252 43 LINE",
"255.921 43 LINE",
"166.921 -170 LINE"
);
}
);
width = 473.091;
},
{
anchors = (
{
name = bottom;
position = "{430.75, 25}";
},
{
name = top;
position = "{269, 475}";
}
);
layerId = "20086791-C5B6-4597-997A-CAD8F8E58507";
paths = (
{
closed = 1;
nodes = (
"263 -170 LINE",
"528 475 LINE",
"407 475 LINE",
"280 135 LINE",
"258 135 LINE",
"131 475 LINE",
"10 475 LINE",
"194 27 LINE",
"235 27 LINE",
"152 -170 LINE"
);
}
);
width = 538;
}
);
leftKerningGroup = v;
leftMetricsKey = v;
rightKerningGroup = v;
rightMetricsKey = v;
unicode = 0079;
},
{
glyphname = z;
lastChange = "2019-01-02 21:34:29 +0000";
layers = (
{
anchors = (
{
name = top;
position = "{225, 475}";
}
);
layerId = "0018AAE5-3623-47DD-B976-BFE254BC69BD";
paths = (
{
closed = 1;
nodes = (
"401 0 LINE",
"401 20 LINE",
"70 20 LINE",
"70 38 LINE",
"390 432 LINE",
"390 475 LINE",
"75 475 LINE",
"75 455 LINE",
"370 455 LINE",
"370 437 LINE",
"50 43 LINE",
"50 0 LINE"
);
}
);
width = 456;
},
{
anchors = (
{
name = top;
position = "{262, 475}";
}
);
guideLines = (
{
angle = -43.4489;
position = "{246, 255}";
showMeasurement = 1;
}
);
layerId = "20086791-C5B6-4597-997A-CAD8F8E58507";
paths = (
{
closed = 1;
nodes = (
"470 0 LINE",
"470 90 LINE",
"147 90 LINE",
"158 57 LINE",
"464 374 LINE",
"464 475 LINE",
"74 475 LINE",
"74 385 LINE",
"373 385 LINE",
"362 419 LINE",
"55 101 LINE",
"55 0 LINE"
);
}
);
width = 530;
}
);
leftKerningGroup = z;
rightKerningGroup = z;
unicode = 007A;
},
{
glyphname = f_f;
lastChange = "2019-02-10 13:10:12 +0000";
layers = (
{
components = (
{
name = f;
}
);
layerId = "0018AAE5-3623-47DD-B976-BFE254BC69BD";
paths = (
{
closed = 1;
nodes = (
"350.625 0 LINE",
"350.625 595 LINE",
"404.75 650 LINE",
"505.625 650 LINE",
"505.625 670 LINE",
"398.75 670 LINE",
"330.625 601 LINE",
"330.625 0 LINE"
);
},
{
closed = 1;
nodes = (
"488.625 455 LINE",
"488.625 475 LINE",
"246.625 475 LINE",
"246.625 455 LINE"
);
}
);
width = 495.625;
},
{
components = (
{
name = f;
}
);
layerId = "20086791-C5B6-4597-997A-CAD8F8E58507";
paths = (
{
closed = 1;
nodes = (
"461 0 LINE",
"461 541 LINE",
"498 580 LINE",
"566 580 LINE",
"566 670 LINE",
"442 670 LINE",
"351 579 LINE",
"351 0 LINE"
);
},
{
closed = 1;
nodes = (
"545 390 LINE",
"545 475 LINE",
"257 475 LINE",
"257 390 LINE"
);
}
);
width = 566;
}
);
leftMetricsKey = f;
rightMetricsKey = f;
},
{
glyphname = f_f_i;
lastChange = "2019-02-10 13:11:13 +0000";
layers = (
{
components = (
{
name = _part.i;
transform = "{1, 0, 0, 1, 465.914, 0}";
},
{
name = f;
}
);
layerId = "0018AAE5-3623-47DD-B976-BFE254BC69BD";
paths = (
{
closed = 1;
nodes = (
"351 0 LINE",
"351 595 LINE",
"405.125 650 LINE",
"565.875 650 LINE",
"565.875 670 LINE",
"399.125 670 LINE",
"331 601 LINE",
"331 0 LINE"
);
},
{
closed = 1;
nodes = (
"488.625 455 LINE",
"488.625 475 LINE",
"246.625 475 LINE",
"246.625 455 LINE"
);
}
);
width = 660.875;
},
{
components = (
{
name = _part.i;
transform = "{1, 0, 0, 1, 503.809, 0}";
},
{
name = f;
}
);
layerId = "20086791-C5B6-4597-997A-CAD8F8E58507";
paths = (
{
closed = 1;
nodes = (
"461.25 0 LINE",
"461.25 541 LINE",
"498.25 580 LINE",
"649.125 580 LINE",
"649.125 670 LINE",
"442.25 670 LINE",
"351.25 579 LINE",
"351.25 0 LINE"
);
},
{
closed = 1;
nodes = (
"545 390 LINE",
"545 475 LINE",
"257 475 LINE",
"257 390 LINE"
);
}
);
width = 763.75;
}
);
leftMetricsKey = f;
rightMetricsKey = i;
},
{
glyphname = fi;
lastChange = "2019-02-10 12:47:26 +0000";
layers = (
{
components = (
{
name = _part.i;
transform = "{1, 0, 0, 1, 229.875, 0}";
}
);
layerId = "0018AAE5-3623-47DD-B976-BFE254BC69BD";
paths = (
{
closed = 1;
nodes = (
"115 0 LINE",
"115 595 LINE",
"169.125 650 LINE",
"329.875 650 LINE",
"329.875 670 LINE",
"163.125 670 LINE",
"95 601 LINE",
"95 0 LINE"
);
},
{
closed = 1;
nodes = (
"253 455 LINE",
"253 475 LINE",
"21 475 LINE",
"21 455 LINE"
);
}
);
width = 424.875;
},
{
components = (
{
name = _part.i;
transform = "{1, 0, 0, 1, 226.595, 0}";
}
);
layerId = "20086791-C5B6-4597-997A-CAD8F8E58507";
paths = (
{
closed = 1;
nodes = (
"184 0 LINE",
"184 541 LINE",
"221 580 LINE",
"371.875 580 LINE",
"371.875 670 LINE",
"165 670 LINE",
"74 579 LINE",
"74 0 LINE"
);
},
{
closed = 1;
nodes = (
"268 390 LINE",
"268 475 LINE",
"37 475 LINE",
"37 390 LINE"
);
}
);
width = 486.625;
}
);
leftMetricsKey = f;
rightMetricsKey = i;
unicode = FB01;
},
{
glyphname = ordfeminine;
lastChange = "2019-01-02 21:34:29 +0000";
layers = (
{
layerId = "0018AAE5-3623-47DD-B976-BFE254BC69BD";
paths = (
{
closed = 1;
nodes = (
"230 355 LINE",
"283 409 LINE",
"283 355 LINE",
"303 355 LINE",
"303 616 LINE",
"250 670 LINE",
"89 670 LINE",
"89 650 LINE",
"244 650 LINE",
"283 610 LINE",
"283 547 LINE",
"103 547 LINE",
"50 493 LINE",
"50 409 LINE",
"103 355 LINE"
);
},
{
closed = 1;
nodes = (
"70 415 LINE",
"70 487 LINE",
"109 527 LINE",
"283 527 LINE",
"283 433 LINE",
"224 375 LINE",
"109 375 LINE"
);
}
);
width = 353;
},
{
layerId = "20086791-C5B6-4597-997A-CAD8F8E58507";
paths = (
{
closed = 1;
nodes = (
"267 295 LINE",
"307 341 LINE",
"307 295 LINE",
"403 295 LINE",
"403 592 LINE",
"327 670 LINE",
"112 670 LINE",
"112 585 LINE",
"285 585 LINE",
"303 567 LINE",
"303 539 LINE",
"142 539 LINE",
"70 465 LINE",
"70 373 LINE",
"146 295 LINE"
);
},
{
closed = 1;
nodes = (
"170 398 LINE",
"170 444 LINE",
"188 462 LINE",
"293 462 LINE",
"293 417 LINE",
"256 380 LINE",
"188 380 LINE"
);
}
);
width = 473;
}
);
unicode = 00AA;
},
{
glyphname = ordmasculine;
lastChange = "2019-01-02 21:34:29 +0000";
layers = (
{
layerId = "0018AAE5-3623-47DD-B976-BFE254BC69BD";
paths = (
{
closed = 1;
nodes = (
"256 355 LINE",
"309 409 LINE",
"309 616 LINE",
"256 670 LINE",
"103 670 LINE",
"50 616 LINE",
"50 409 LINE",
"103 355 LINE"
);
},
{
closed = 1;
nodes = (
"70 415 LINE",
"70 610 LINE",
"109 650 LINE",
"250 650 LINE",
"289 610 LINE",
"289 415 LINE",
"250 375 LINE",
"109 375 LINE"
);
}
);
width = 359;
},
{
guideLines = (
{
angle = 43.9867;
position = "{275.5, 556.125}";
showMeasurement = 1;
}
);
layerId = "20086791-C5B6-4597-997A-CAD8F8E58507";
paths = (
{
closed = 1;
nodes = (
"333 295 LINE",
"409 373 LINE",
"409 592 LINE",
"333 670 LINE",
"146 670 LINE",
"70 592 LINE",
"70 373 LINE",
"146 295 LINE"
);
},
{
closed = 1;
nodes = (
"170 398 LINE",
"170 567 LINE",
"188 585 LINE",
"291 585 LINE",
"309 567 LINE",
"309 398 LINE",
"291 380 LINE",
"188 380 LINE"
);
}
);
width = 479;
}
);
unicode = 00BA;
},
{
glyphname = zero;
lastChange = "2019-01-02 21:34:29 +0000";
layers = (
{
background = {
paths = (
{
closed = 1;
nodes = (
"452 0 LINE",
"535 84 LINE",
"535 586 LINE",
"452 670 LINE",
"178 670 LINE",
"95 586 LINE",
"95 84 LINE",
"178 0 LINE"
);
},
{
closed = 1;
nodes = (
"115 578 LINE",
"186 650 LINE",
"444 650 LINE",
"515 578 LINE",
"515 92 LINE",
"444 20 LINE",
"186 20 LINE",
"115 92 LINE"
);
}
);
};
hints = (
{
origin = "{0, 0}";
type = Corner;
name = _corner.dia_esq;
options = 1;
},
{
origin = "{0, 2}";
type = Corner;
name = _corner.dia_esq;
options = 1;
},
{
origin = "{0, 1}";
type = Corner;
name = _corner.dia_dir;
options = 1;
},
{
origin = "{0, 3}";
type = Corner;
name = _corner.dia_dir;
options = 1;
},
{
origin = "{1, 2}";
type = Corner;
name = _corner.int_ESQ;
options = 1;
},
{
origin = "{1, 0}";
type = Corner;
name = _corner.int_ESQ;
options = 1;
},
{
origin = "{1, 1}";
type = Corner;
name = _corner.int_DIR;
options = 1;
},
{
origin = "{1, 3}";
type = Corner;
name = _corner.int_DIR;
options = 1;
}
);
layerId = "0018AAE5-3623-47DD-B976-BFE254BC69BD";
paths = (
{
closed = 1;
nodes = (
"535 0 LINE",
"535 670 LINE",
"95 670 LINE",
"95 0 LINE"
);
},
{
closed = 1;
nodes = (
"115 650 LINE",
"515 650 LINE",
"515 20 LINE",
"115 20 LINE"
);
}
);
width = 630;
},
{
hints = (
{
origin = "{0, 0}";
type = Corner;
name = _corner.dia_esq;
options = 1;
},
{
origin = "{0, 1}";
type = Corner;
name = _corner.dia_dir;
options = 1;
},
{
origin = "{0, 2}";
type = Corner;
name = _corner.dia_esq;
options = 1;
},
{
origin = "{0, 3}";
type = Corner;
name = _corner.dia_dir;
options = 1;
},
{
origin = "{1, 2}";
type = Corner;
name = _corner.int_ESQ;
options = 1;
},
{
origin = "{1, 0}";
type = Corner;
name = _corner.int_ESQ;
options = 1;
},
{
origin = "{1, 1}";
type = Corner;
name = _corner.int_DIR;
options = 1;
},
{
origin = "{1, 3}";
type = Corner;
name = _corner.int_DIR;
options = 1;
}
);
layerId = "20086791-C5B6-4597-997A-CAD8F8E58507";
paths = (
{
closed = 1;
nodes = (
"572 0 LINE",
"572 670 LINE",
"70 670 LINE",
"70 0 LINE"
);
},
{
closed = 1;
nodes = (
"184 570 LINE",
"458 570 LINE",
"458 100 LINE",
"184 100 LINE"
);
}
);
width = 642;
}
);
leftKerningGroup = zero;
leftMetricsKey = O;
rightKerningGroup = zero;
rightMetricsKey = O;
unicode = 0030;
},
{
glyphname = one;
lastChange = "2019-01-02 21:34:29 +0000";
layers = (
{
layerId = "0018AAE5-3623-47DD-B976-BFE254BC69BD";
paths = (
{
closed = 1;
nodes = (
"330 0 LINE",
"330 20 LINE",
"50 20 LINE",
"50 0 LINE"
);
},
{
closed = 1;
nodes = (
"193 650 LINE",
"193 670 LINE",
"57 670 LINE",
"57 650 LINE"
);
},
{
closed = 1;
nodes = (
"200 0 LINE",
"200 670 LINE",
"180 670 LINE",
"180 0 LINE"
);
}
);
width = 380;
},
{
layerId = "20086791-C5B6-4597-997A-CAD8F8E58507";
paths = (
{
closed = 1;
nodes = (
"352 0 LINE",
"352 104 LINE",
"60 104 LINE",
"60 0 LINE"
);
},
{
closed = 1;
nodes = (
"214 566 LINE",
"214 670 LINE",
"73 670 LINE",
"73 566 LINE"
);
},
{
closed = 1;
nodes = (
"263 0 LINE",
"263 670 LINE",
"149 670 LINE",
"149 0 LINE"
);
}
);
width = 402;
}
);
leftKerningGroup = one;
rightKerningGroup = one;
unicode = 0031;
},
{
glyphname = two;
lastChange = "2019-01-02 21:34:29 +0000";
layers = (
{
background = {
hints = (
{
origin = "{0, 5}";
type = Corner;
name = _corner.dia_dir;
options = 1;
}
);
paths = (
{
closed = 1;
nodes = (
"529 0 LINE",
"529 104 LINE",
"195 104 LINE",
"195 104 LINE",
"523 401 LINE",
"523 670 LINE",
"150 670 LINE",
"59 579 LINE",
"134 503 LINE",
"202 570 LINE",
"359 570 LINE",
"409 520 LINE",
"409 451 LINE",
"66 144 LINE",
"66 0 LINE"
);
}
);
};
guideLines = (
{
angle = 134.9784;
position = "{190.625, 456.625}";
showMeasurement = 1;
}
);
hints = (
{
origin = "{0, 5}";
type = Corner;
name = _corner.dia_dir;
options = 1;
},
{
origin = "{0, 10}";
type = Corner;
name = _corner.int_DIR;
options = 1;
}
);
layerId = "20086791-C5B6-4597-997A-CAD8F8E58507";
paths = (
{
closed = 1;
nodes = (
"529 0 LINE",
"529 104 LINE",
"195 104 LINE",
"195 104 LINE",
"523 401 LINE",
"523 670 LINE",
"151 670 LINE",
"60 579 LINE",
"134 504 LINE",
"201 570 LINE",
"409 570 LINE",
"409 448 LINE",
"66 139 LINE",
"66 0 LINE"
);
}
);
width = 604;
},
{
associatedMasterId = "0018AAE5-3623-47DD-B976-BFE254BC69BD";
guideLines = (
{
angle = -41.7355;
position = "{551, 376}";
showMeasurement = 1;
},
{
angle = -41.7355;
position = "{125, 41}";
showMeasurement = 1;
}
);
hints = (
{
origin = "{0, 5}";
type = Corner;
name = _corner.dia_dir;
options = 1;
},
{
origin = "{0, 10}";
type = Corner;
name = _corner.int_DIR;
options = 1;
}
);
layerId = "117DC6C5-5D9D-4264-ACC1-8D52F3900BDC";
name = "Light Nov 21 16, 11:22";
paths = (
{
closed = 1;
nodes = (
"498 0 LINE",
"498 20 LINE",
"90 20 LINE",
"90 38 LINE",
"480 476.276 LINE",
"480 670 LINE",
"164 670 LINE",
"70 575 LINE",
"83 562 LINE",
"170 650 LINE",
"460 650 LINE",
"460 482 LINE",
"70 43.715 LINE",
"70 0 LINE"
);
}
);
width = 558;
},
{
guideLines = (
{
angle = -41.7355;
position = "{551, 376}";
showMeasurement = 1;
},
{
angle = -41.7355;
position = "{125, 41}";
showMeasurement = 1;
}
);
hints = (
{
origin = "{0, 5}";
type = Corner;
name = _corner.dia_dir;
options = 1;
},
{
origin = "{0, 10}";
type = Corner;
name = _corner.int_DIR;
options = 1;
}
);
layerId = "0018AAE5-3623-47DD-B976-BFE254BC69BD";
paths = (
{
closed = 1;
nodes = (
"498 0 LINE",
"498 20 LINE",
"90 20 LINE",
"90 38 LINE",
"480 476.276 LINE",
"480 670 LINE",
"164 670 LINE",
"71 570 LINE",
"85 558 LINE",
"170.5 650 LINE",
"460 650 LINE",
"460 482 LINE",
"70 43.715 LINE",
"70 0 LINE"
);
}
);
width = 558;
}
);
leftKerningGroup = two;
rightKerningGroup = two;
unicode = 0032;
},
{
glyphname = three;
lastChange = "2019-01-02 21:34:29 +0000";
layers = (
{
background = {
hints = (
{
origin = "{0, 0}";
type = Corner;
name = _corner.dia_esq;
options = 1;
},
{
origin = "{0, 4}";
type = Corner;
name = _corner.dia_dir;
options = 1;
},
{
origin = "{0, 9}";
type = Corner;
name = _corner.int_DIR;
options = 1;
},
{
origin = "{0, 16}";
type = Corner;
name = _corner.int_ESQ;
options = 1;
}
);
paths = (
{
closed = 1;
nodes = (
"514 0 LINE",
"514 274 LINE",
"438 355 LINE",
"514 436 LINE",
"514 670 LINE",
"179 670 LINE",
"85 575 LINE",
"98 562 LINE",
"185 650 LINE",
"494 650 LINE",
"494 444 LINE",
"420 365 LINE",
"221 365 LINE",
"221 345 LINE",
"420 345 LINE",
"494 266 LINE",
"494 20 LINE",
"172 20 LINE",
"85 108 LINE",
"72 95 LINE",
"166 0 LINE"
);
}
);
};
hints = (
{
origin = "{0, 4}";
type = Corner;
name = _corner.dia_dir;
options = 1;
},
{
origin = "{0, 0}";
type = Corner;
name = _corner.dia_esq;
options = 1;
},
{
origin = "{0, 9}";
type = Corner;
name = _corner.int_DIR;
options = 1;
},
{
origin = "{0, 16}";
type = Corner;
name = _corner.int_ESQ;
options = 1;
}
);
layerId = "0018AAE5-3623-47DD-B976-BFE254BC69BD";
paths = (
{
closed = 1;
nodes = (
"514 0 LINE",
"514 274 LINE",
"438 355 LINE",
"514 436 LINE",
"514 670 LINE",
"179 670 LINE",
"85 575 LINE",
"98 562 LINE",
"185 650 LINE",
"494 650 LINE",
"494 441.5 LINE",
"422 365 LINE",
"221 365 LINE",
"221 345 LINE",
"422.25 345 LINE",
"494 268.5 LINE",
"494 20 LINE",
"172 20 LINE",
"85 108 LINE",
"72 95 LINE",
"166 0 LINE"
);
}
);
width = 609;
},
{
guideLines = (
{
angle = 44.4883;
position = "{207.875, 179.375}";
showMeasurement = 1;
}
);
hints = (
{
origin = "{0, 4}";
type = Corner;
name = _corner.dia_dir;
options = 1;
},
{
origin = "{0, 0}";
type = Corner;
name = _corner.dia_esq;
options = 1;
},
{
origin = "{0, 16}";
type = Corner;
name = _corner.int_ESQ;
options = 1;
},
{
origin = "{0, 9}";
type = Corner;
name = _corner.int_DIR;
options = 1;
}
);
layerId = "20086791-C5B6-4597-997A-CAD8F8E58507";
paths = (
{
closed = 1;
nodes = (
"535 0 LINE",
"535 289 LINE",
"474 350 LINE",
"535 411 LINE",
"535 670 LINE",
"148 670 LINE",
"57 579 LINE",
"131 504 LINE",
"198 570 LINE",
"421 570 LINE",
"421.25 440 LINE",
"381 399.875 LINE",
"185 400 LINE",
"185 300 LINE",
"381 300.25 LINE",
"421.125 260 LINE",
"421 100 LINE",
"181 100 LINE",
"114 166 LINE",
"40 91 LINE",
"131 0 LINE"
);
}
);
width = 605;
},
{
associatedMasterId = "0018AAE5-3623-47DD-B976-BFE254BC69BD";
background = {
paths = (
{
closed = 1;
nodes = (
"514 0 LINE",
"514 274 LINE",
"438 355 LINE",
"514 436 LINE",
"514 670 LINE",
"179 670 LINE",
"86 574 LINE",
"101 561 LINE",
"188 650 LINE",
"423 650 LINE",
"494 578 LINE",
"494 444 LINE",
"420 365 LINE",
"221 365 LINE",
"221 345 LINE",
"420 345 LINE",
"494 266 LINE",
"494 92 LINE",
"423 20 LINE",
"175 20 LINE",
"85 112 LINE",
"70 99 LINE",
"166 0 LINE"
);
}
);
};
hints = (
{
origin = "{0, 4}";
type = Corner;
name = _corner.dia_dir;
options = 1;
},
{
origin = "{0, 0}";
type = Corner;
name = _corner.dia_esq;
options = 1;
},
{
origin = "{0, 9}";
type = Corner;
name = _corner.int_DIR;
options = 1;
},
{
origin = "{0, 16}";
type = Corner;
name = _corner.int_ESQ;
options = 1;
}
);
layerId = "D49F2587-A8F4-4173-BD05-086F26032A3D";
name = "Nov 21 16, 11:14";
paths = (
{
closed = 1;
nodes = (
"514 0 LINE",
"514 274 LINE",
"438 355 LINE",
"514 436 LINE",
"514 670 LINE",
"179 670 LINE",
"86 570 LINE",
"100 558 LINE",
"185.5 650 LINE",
"494 650 LINE",
"494 444 LINE",
"420 365 LINE",
"221 365 LINE",
"221 345 LINE",
"420 345 LINE",
"494 266 LINE",
"494 20 LINE",
"172.5 20 LINE",
"87 112 LINE",
"73 100 LINE",
"166 0 LINE"
);
}
);
width = 609;
}
);
leftKerningGroup = three;
leftMetricsKey = five;
rightKerningGroup = three;
rightMetricsKey = O;
unicode = 0033;
},
{
glyphname = four;
lastChange = "2019-01-02 21:34:29 +0000";
layers = (
{
guideLines = (
{
angle = -35.1915;
position = "{196.709, 718}";
showMeasurement = 1;
}
);
layerId = "0018AAE5-3623-47DD-B976-BFE254BC69BD";
paths = (
{
closed = 1;
nodes = (
"377 0 LINE",
"377 148 LINE",
"472 148 LINE",
"472 168 LINE",
"377 168 LINE",
"377 670 LINE",
"358.673 670 LINE",
"10 193.143 LINE",
"10 148 LINE",
"357 148 LINE",
"357 0 LINE"
);
},
{
closed = 1;
nodes = (
"28 186 LINE",
"357 636 LINE",
"357 168 LINE",
"28 168 LINE"
);
}
);
width = 492;
},
{
layerId = "20086791-C5B6-4597-997A-CAD8F8E58507";
paths = (
{
closed = 1;
nodes = (
"466 0 LINE",
"466 130 LINE",
"544 130 LINE",
"544 234 LINE",
"466 234 LINE",
"466 670 LINE",
"352 670 LINE",
"30 234 LINE",
"30 130 LINE",
"352 130 LINE",
"352 0 LINE"
);
},
{
closed = 1;
nodes = (
"171 234 LINE",
"352 478 LINE",
"352 234 LINE",
"171 234 LINE"
);
}
);
width = 584;
}
);
leftKerningGroup = four;
rightKerningGroup = four;
unicode = 0034;
},
{
glyphname = five;
lastChange = "2019-01-02 21:34:29 +0000";
layers = (
{
background = {
paths = (
{
closed = 1;
nodes = (
"129 400 LINE",
"129 650 LINE",
"496 650 LINE",
"496 670 LINE",
"109 670 LINE",
"109 380 LINE",
"419 380 LINE",
"490 308 LINE",
"490 92 LINE",
"419 20 LINE",
"175 20 LINE",
"85 112 LINE",
"70 99 LINE",
"166 0 LINE",
"427 0 LINE",
"510 84 LINE",
"510 316 LINE",
"427 400 LINE"
);
}
);
};
hints = (
{
origin = "{0, 1}";
type = Corner;
name = _corner.dia_dir;
options = 1;
},
{
origin = "{0, 0}";
type = Corner;
name = _corner.dia_esq;
options = 1;
},
{
origin = "{0, 8}";
type = Corner;
name = _corner.int_DIR;
options = 1;
},
{
origin = "{0, 9}";
type = Corner;
name = _corner.int_ESQ;
options = 1;
}
);
layerId = "0018AAE5-3623-47DD-B976-BFE254BC69BD";
paths = (
{
closed = 1;
nodes = (
"510 0 LINE",
"510 400 LINE",
"129 400 LINE",
"129 650 LINE",
"496 650 LINE",
"496 670 LINE",
"109 670 LINE",
"109 380 LINE",
"490 380 LINE",
"490 20 LINE",
"172 20 LINE",
"85 108 LINE",
"72 95 LINE",
"166 0 LINE"
);
}
);
width = 605;
},
{
background = {
paths = (
{
closed = 1;
nodes = (
"434 0 LINE",
"525 91 LINE",
"525 336 LINE",
"434 427 LINE",
"178 427 LINE",
"178 566 LINE",
"488 566 LINE",
"488 670 LINE",
"64 670 LINE",
"64 327 LINE",
"361 327 LINE",
"411 277 LINE",
"411 150 LINE",
"361 100 LINE",
"183 100 LINE",
"115 167 LINE",
"40 91 LINE",
"131 0 LINE"
);
}
);
};
hints = (
{
origin = "{0, 0}";
type = Corner;
name = _corner.dia_esq;
options = 1;
},
{
origin = "{0, 1}";
type = Corner;
name = _corner.dia_dir;
options = 1;
},
{
origin = "{0, 8}";
type = Corner;
name = _corner.int_DIR;
options = 1;
},
{
origin = "{0, 9}";
type = Corner;
name = _corner.int_ESQ;
options = 1;
}
);
layerId = "20086791-C5B6-4597-997A-CAD8F8E58507";
paths = (
{
closed = 1;
nodes = (
"525 0 LINE",
"525 427 LINE",
"183 427 LINE",
"183 566 LINE",
"488 566 LINE",
"488 670 LINE",
"69 670 LINE",
"69 327 LINE",
"411 327 LINE",
"411 100 LINE",
"181 100 LINE",
"114 166 LINE",
"40 91 LINE",
"131 0 LINE"
);
}
);
width = 595;
}
);
leftKerningGroup = five;
rightKerningGroup = five;
rightMetricsKey = O;
unicode = 0035;
},
{
glyphname = six;
lastChange = "2019-01-02 21:34:29 +0000";
layers = (
{
background = {
paths = (
{
closed = 1;
nodes = (
"457 0 LINE",
"540 84 LINE",
"540 316 LINE",
"457 400 LINE",
"194 400 LINE",
"115 313 LINE",
"115 578 LINE",
"186 650 LINE",
"447 650 LINE",
"534 561 LINE",
"549 574 LINE",
"456 670 LINE",
"178 670 LINE",
"95 586 LINE",
"95 84 LINE",
"178 0 LINE"
);
},
{
closed = 1;
nodes = (
"115 92 LINE",
"115 287 LINE",
"202 380 LINE",
"449 380 LINE",
"520 308 LINE",
"520 92 LINE",
"449 20 LINE",
"186 20 LINE"
);
}
);
};
hints = (
{
origin = "{1, 9}";
type = Corner;
name = _corner.dia_esq;
options = 1;
},
{
origin = "{1, 0}";
type = Corner;
name = _corner.dia_esq;
options = 1;
},
{
origin = "{1, 10}";
type = Corner;
name = _corner.dia_dir;
options = 1;
},
{
origin = "{1, 1}";
type = Corner;
name = _corner.dia_dir;
options = 1;
},
{
origin = "{0, 2}";
type = Corner;
name = _corner.int_DIR;
options = 1;
},
{
origin = "{0, 4}";
type = Corner;
name = _corner.int_DIR;
options = 1;
},
{
origin = "{0, 3}";
type = Corner;
name = _corner.int_ESQ;
options = 1;
},
{
origin = "{1, 4}";
type = Corner;
name = _corner.int_ESQ;
options = 1;
}
);
layerId = "0018AAE5-3623-47DD-B976-BFE254BC69BD";
paths = (
{
closed = 1;
nodes = (
"115 287 LINE",
"202 380 LINE",
"520 380 LINE",
"520 20 LINE",
"115 20 LINE"
);
},
{
closed = 1;
nodes = (
"540 0 LINE",
"540 400 LINE",
"194 400 LINE",
"115 313 LINE",
"115 650 LINE",
"450 650 LINE",
"537 562 LINE",
"550 575 LINE",
"456 670 LINE",
"95 670 LINE",
"95 0 LINE"
);
}
);
width = 640;
},
{
background = {
paths = (
{
closed = 1;
nodes = (
"483 0 LINE",
"574 91 LINE",
"574 331 LINE",
"483 422 LINE",
"228 422 LINE",
"184 382 LINE",
"184 520 LINE",
"234 570 LINE",
"429 570 LINE",
"497 503 LINE",
"572 579 LINE",
"481 670 LINE",
"161 670 LINE",
"70 579 LINE",
"70 91 LINE",
"161 0 LINE"
);
},
{
closed = 1;
nodes = (
"184 150 LINE",
"184 272 LINE",
"239 322 LINE",
"410 322 LINE",
"460 272 LINE",
"460 150 LINE",
"410 100 LINE",
"234 100 LINE"
);
}
);
};
hints = (
{
origin = "{1, 9}";
type = Corner;
name = _corner.dia_esq;
options = 1;
},
{
origin = "{1, 0}";
type = Corner;
name = _corner.dia_esq;
options = 1;
},
{
origin = "{1, 10}";
type = Corner;
name = _corner.dia_dir;
options = 1;
},
{
origin = "{1, 1}";
type = Corner;
name = _corner.dia_dir;
options = 1;
},
{
origin = "{0, 2}";
type = Corner;
name = _corner.int_DIR;
options = 1;
},
{
origin = "{0, 4}";
type = Corner;
name = _corner.int_DIR;
options = 1;
},
{
origin = "{0, 3}";
type = Corner;
name = _corner.int_ESQ;
options = 1;
},
{
origin = "{1, 4}";
type = Corner;
name = _corner.int_ESQ;
options = 1;
}
);
layerId = "20086791-C5B6-4597-997A-CAD8F8E58507";
paths = (
{
closed = 1;
nodes = (
"183.75 277 LINE",
"229 322.125 LINE",
"460 322 LINE",
"460 100 LINE",
"184 100 LINE"
);
},
{
closed = 1;
nodes = (
"574 0 LINE",
"574 422 LINE",
"228 422 LINE",
"184 382 LINE",
"184 570 LINE",
"431 570 LINE",
"498 504 LINE",
"572 579 LINE",
"481 670 LINE",
"70 670 LINE",
"70 0 LINE"
);
}
);
width = 639;
},
{
associatedMasterId = "20086791-C5B6-4597-997A-CAD8F8E58507";
layerId = "0D51A1D3-8FA7-4B81-9994-1E8D949DF8B5";
name = "Nov 21 16, 11:49";
paths = (
{
closed = 1;
nodes = (
"483 0 LINE",
"574 91 LINE",
"574 331 LINE",
"483 422 LINE",
"228 422 LINE",
"184 382 LINE",
"184 520 LINE",
"234 570 LINE",
"429 570 LINE",
"497 503 LINE",
"572 579 LINE",
"481 670 LINE",
"161 670 LINE",
"70 579 LINE",
"70 91 LINE",
"161 0 LINE"
);
},
{
closed = 1;
nodes = (
"184 150 LINE",
"184 272 LINE",
"239 322 LINE",
"410 322 LINE",
"460 272 LINE",
"460 150 LINE",
"410 100 LINE",
"234 100 LINE"
);
}
);
width = 649;
}
);
leftKerningGroup = six;
leftMetricsKey = O;
rightKerningGroup = six;
unicode = 0036;
},
{
glyphname = seven;
lastChange = "2019-01-02 21:34:29 +0000";
layers = (
{
guideLines = (
{
position = "{109, 315}";
},
{
angle = -27.83;
position = "{257, -61}";
showMeasurement = 1;
},
{
angle = -27.83;
position = "{575, 537}";
showMeasurement = 1;
}
);
layerId = "0018AAE5-3623-47DD-B976-BFE254BC69BD";
paths = (
{
closed = 1;
nodes = (
"104 0 LINE",
"433 629.984 LINE",
"433 670 LINE",
"20 670 LINE",
"20 650 LINE",
"413 650 LINE",
"413 632 LINE",
"83 0 LINE"
);
}
);
width = 453;
},
{
layerId = "20086791-C5B6-4597-997A-CAD8F8E58507";
paths = (
{
closed = 1;
nodes = (
"195 0 LINE",
"460 542 LINE",
"460 670 LINE",
"20 670 LINE",
"20 566 LINE",
"333 566 LINE",
"333 544 LINE",
"64 0 LINE"
);
}
);
width = 490;
}
);
leftKerningGroup = seven;
rightKerningGroup = seven;
unicode = 0037;
},
{
glyphname = eight;
lastChange = "2019-01-02 21:34:29 +0000";
layers = (
{
background = {
paths = (
{
closed = 1;
nodes = (
"510 412 LINE",
"510 586 LINE",
"427 670 LINE",
"203 670 LINE",
"120 586 LINE",
"120 412 LINE",
"170 356 LINE",
"95 281 LINE",
"95 84 LINE",
"178 0 LINE",
"452 0 LINE",
"535 84 LINE",
"535 281 LINE",
"460 356 LINE"
);
},
{
closed = 1;
nodes = (
"211 650 LINE",
"419 650 LINE",
"490 578 LINE",
"490 420 LINE",
"441 365 LINE",
"189 365 LINE",
"140 420 LINE",
"140 578 LINE"
);
},
{
closed = 1;
nodes = (
"444 20 LINE",
"186 20 LINE",
"115 92 LINE",
"115 273 LINE",
"186 345 LINE",
"444 345 LINE",
"515 273 LINE",
"515 92 LINE"
);
}
);
};
guideLines = (
{
angle = 221.9799;
position = "{220, 419}";
showMeasurement = 1;
},
{
position = "{483, 363}";
}
);
hints = (
{
origin = "{0, 0}";
type = Corner;
name = _corner.dia_esq;
options = 1;
},
{
origin = "{0, 4}";
type = Corner;
name = _corner.dia_dir;
options = 1;
},
{
origin = "{0, 5}";
type = Corner;
name = _corner.dia_esq;
options = 1;
},
{
origin = "{0, 9}";
type = Corner;
name = _corner.dia_dir;
options = 1;
},
{
origin = "{1, 4}";
type = Corner;
name = _corner.int_ESQ;
options = 1;
},
{
origin = "{1, 5}";
type = Corner;
name = _corner.int_DIR;
options = 1;
},
{
origin = "{2, 1}";
type = Corner;
name = _corner.int_ESQ;
options = 1;
},
{
origin = "{2, 2}";
type = Corner;
name = _corner.int_DIR;
options = 1;
}
);
layerId = "0018AAE5-3623-47DD-B976-BFE254BC69BD";
paths = (
{
closed = 1;
nodes = (
"549 0 LINE",
"549 289 LINE",
"475 364 LINE",
"524 418 LINE",
"524 670 LINE",
"120 670 LINE",
"120 418 LINE",
"169 364 LINE",
"95 289 LINE",
"95 0 LINE"
);
},
{
closed = 1;
nodes = (
"115 281 LINE",
"186 353 LINE",
"458 353 LINE",
"529 281 LINE",
"529 20 LINE",
"115 20 LINE"
);
},
{
closed = 1;
nodes = (
"140 426 LINE",
"140 650 LINE",
"504 650 LINE",
"504 426 LINE",
"457 373 LINE",
"187 373 LINE"
);
}
);
width = 644;
},
{
background = {
paths = (
{
closed = 1;
nodes = (
"489 0 LINE",
"580 91 LINE",
"580 288 LINE",
"519 349 LINE",
"560 390 LINE",
"560 579 LINE",
"469 670 LINE",
"181 670 LINE",
"90 579 LINE",
"90 390 LINE",
"131 349 LINE",
"70 288 LINE",
"70 91 LINE",
"161 0 LINE"
);
},
{
closed = 1;
nodes = (
"184 150 LINE",
"184 249 LINE",
"234 299 LINE",
"416 299 LINE",
"466 249 LINE",
"466 150 LINE",
"416 100 LINE",
"234 100 LINE"
);
},
{
closed = 1;
nodes = (
"204 449 LINE",
"204 520 LINE",
"254 570 LINE",
"396 570 LINE",
"446 520 LINE",
"446 449 LINE",
"396 399 LINE",
"254 399 LINE"
);
}
);
};
guideLines = (
{
angle = 44.9832;
position = "{1101.875, 224.125}";
showMeasurement = 1;
}
);
hints = (
{
horizontal = 1;
place = "{0, 100}";
type = Stem;
},
{
horizontal = 1;
place = "{299, 100}";
type = Stem;
},
{
horizontal = 1;
place = "{570, 100}";
type = Stem;
},
{
place = "{95, 114}";
type = Stem;
},
{
place = "{451, 114}";
type = Stem;
},
{
place = "{75, 114}";
type = Stem;
},
{
place = "{471, 114}";
type = Stem;
},
{
origin = "{0, 0}";
type = Corner;
name = _corner.dia_esq;
options = 1;
},
{
origin = "{0, 4}";
type = Corner;
name = _corner.dia_dir;
options = 1;
},
{
origin = "{0, 5}";
type = Corner;
name = _corner.dia_esq;
options = 1;
},
{
origin = "{0, 9}";
type = Corner;
name = _corner.dia_dir;
options = 1;
},
{
origin = "{2, 1}";
type = Corner;
name = _corner.int_ESQ;
options = 1;
},
{
origin = "{1, 4}";
type = Corner;
name = _corner.int_ESQ;
options = 1;
},
{
origin = "{1, 5}";
type = Corner;
name = _corner.int_DIR;
options = 1;
},
{
origin = "{2, 2}";
type = Corner;
name = _corner.int_DIR;
options = 1;
}
);
layerId = "20086791-C5B6-4597-997A-CAD8F8E58507";
paths = (
{
closed = 1;
nodes = (
"580 0 LINE",
"580 294 LINE",
"519 355 LINE",
"560 396 LINE",
"560 670 LINE",
"90 670 LINE",
"90 396 LINE",
"131 355 LINE",
"70 294 LINE",
"70 0 LINE"
);
},
{
closed = 1;
nodes = (
"183.75 259 LINE",
"224 299.125 LINE",
"426 299.25 LINE",
"466.125 259 LINE",
"466 100 LINE",
"184 100 LINE"
);
},
{
closed = 1;
nodes = (
"203.875 429 LINE",
"204 570 LINE",
"446 570 LINE",
"446.25 429 LINE",
"416 398.875 LINE",
"234 398.75 LINE"
);
}
);
width = 650;
}
);
leftKerningGroup = eight;
leftMetricsKey = O;
rightKerningGroup = eight;
rightMetricsKey = O;
unicode = 0038;
},
{
glyphname = nine;
lastChange = "2019-01-02 21:34:29 +0000";
layers = (
{
background = {
paths = (
{
closed = 1;
nodes = (
"452 0 LINE",
"535 84 LINE",
"535 586 LINE",
"452 670 LINE",
"183 670 LINE",
"100 586 LINE",
"100 344 LINE",
"183 260 LINE",
"436 260 LINE",
"515 347 LINE",
"515 92 LINE",
"444 20 LINE",
"193 20 LINE",
"106 109 LINE",
"91 96 LINE",
"184 0 LINE"
);
},
{
closed = 1;
nodes = (
"120 352 LINE",
"120 578 LINE",
"191 650 LINE",
"444 650 LINE",
"515 578 LINE",
"515 373 LINE",
"428 280 LINE",
"191 280 LINE"
);
}
);
};
hints = (
{
origin = "{0, 2}";
type = Corner;
name = _corner.dia_esq;
options = 1;
},
{
origin = "{0, 0}";
type = Corner;
name = _corner.dia_esq;
options = 1;
},
{
origin = "{0, 3}";
type = Corner;
name = _corner.dia_dir;
options = 1;
},
{
origin = "{0, 1}";
type = Corner;
name = _corner.dia_dir;
options = 1;
},
{
origin = "{1, 1}";
type = Corner;
name = _corner.int_DIR;
options = 1;
},
{
origin = "{1, 4}";
type = Corner;
name = _corner.int_DIR;
options = 1;
},
{
origin = "{1, 0}";
type = Corner;
name = _corner.int_ESQ;
options = 1;
},
{
origin = "{0, 6}";
type = Corner;
name = _corner.int_ESQ;
options = 1;
}
);
layerId = "0018AAE5-3623-47DD-B976-BFE254BC69BD";
paths = (
{
closed = 1;
nodes = (
"535 0 LINE",
"535 670 LINE",
"100 670 LINE",
"100 260 LINE",
"436 260 LINE",
"515 347 LINE",
"515 20 LINE",
"190 20 LINE",
"103 108 LINE",
"90 95 LINE",
"184 0 LINE"
);
},
{
closed = 1;
nodes = (
"120 650 LINE",
"515 650 LINE",
"515 373 LINE",
"428.625 280 LINE",
"120 280 LINE"
);
}
);
width = 630;
},
{
background = {
paths = (
{
closed = 1;
nodes = (
"470 0 LINE",
"561 91 LINE",
"561 579 LINE",
"470 670 LINE",
"156 670 LINE",
"65 579 LINE",
"65 339 LINE",
"156 248 LINE",
"403 248 LINE",
"447 288 LINE",
"447 150 LINE",
"397 100 LINE",
"212 100 LINE",
"144 167 LINE",
"69 91 LINE",
"160 0 LINE"
);
},
{
closed = 1;
nodes = (
"179 398 LINE",
"179 520 LINE",
"229 570 LINE",
"397 570 LINE",
"447 520 LINE",
"447 398 LINE",
"392 348 LINE",
"229 348 LINE"
);
}
);
};
hints = (
{
origin = "{0, 2}";
type = Corner;
name = _corner.dia_esq;
options = 1;
},
{
origin = "{0, 0}";
type = Corner;
name = _corner.dia_esq;
options = 1;
},
{
origin = "{0, 1}";
type = Corner;
name = _corner.dia_dir;
options = 1;
},
{
origin = "{0, 3}";
type = Corner;
name = _corner.dia_dir;
options = 1;
},
{
origin = "{1, 1}";
type = Corner;
name = _corner.int_DIR;
options = 1;
},
{
origin = "{1, 4}";
type = Corner;
name = _corner.int_DIR;
options = 1;
},
{
origin = "{1, 0}";
type = Corner;
name = _corner.int_ESQ;
options = 1;
},
{
origin = "{0, 6}";
type = Corner;
name = _corner.int_ESQ;
options = 1;
}
);
layerId = "20086791-C5B6-4597-997A-CAD8F8E58507";
paths = (
{
closed = 1;
nodes = (
"561 0 LINE",
"561 670 LINE",
"65 670 LINE",
"65 248 LINE",
"403 248 LINE",
"447 288 LINE",
"447 100 LINE",
"210 100 LINE",
"143 166 LINE",
"69 91 LINE",
"160 0 LINE"
);
},
{
closed = 1;
nodes = (
"179 570 LINE",
"447 570 LINE",
"447.25 398 LINE",
"397 347.875 LINE",
"179 348 LINE"
);
}
);
width = 631;
}
);
leftKerningGroup = nine;
rightKerningGroup = nine;
rightMetricsKey = O;
unicode = 0039;
},
{
glyphname = zero.lf;
lastChange = "2019-01-02 21:34:29 +0000";
layers = (
{
hints = (
{
origin = "{0, 0}";
type = Corner;
name = _corner.dia_esq;
options = 1;
},
{
origin = "{0, 1}";
type = Corner;
name = _corner.dia_dir;
options = 1;
},
{
origin = "{0, 2}";
type = Corner;
name = _corner.dia_esq;
options = 1;
},
{
origin = "{0, 3}";
type = Corner;
name = _corner.dia_dir;
options = 1;
},
{
origin = "{1, 0}";
type = Corner;
name = _corner.int_ESQ;
options = 1;
},
{
origin = "{1, 1}";
type = Corner;
name = _corner.int_DIR;
options = 1;
},
{
origin = "{1, 2}";
type = Corner;
name = _corner.int_ESQ;
options = 1;
},
{
origin = "{1, 3}";
type = Corner;
name = _corner.int_DIR;
options = 1;
}
);
layerId = "0018AAE5-3623-47DD-B976-BFE254BC69BD";
paths = (
{
closed = 1;
nodes = (
"535 0 LINE",
"535 670 LINE",
"95 670 LINE",
"95 0 LINE"
);
},
{
closed = 1;
nodes = (
"115 650 LINE",
"515 650 LINE",
"515 20 LINE",
"115 20 LINE"
);
}
);
width = 600;
},
{
hints = (
{
origin = "{0, 0}";
type = Corner;
name = _corner.dia_esq;
options = 1;
},
{
origin = "{0, 1}";
type = Corner;
name = _corner.dia_dir;
options = 1;
},
{
origin = "{0, 2}";
type = Corner;
name = _corner.dia_esq;
options = 1;
},
{
origin = "{0, 3}";
type = Corner;
name = _corner.dia_dir;
options = 1;
},
{
origin = "{1, 0}";
type = Corner;
name = _corner.int_ESQ;
options = 1;
},
{
origin = "{1, 1}";
type = Corner;
name = _corner.int_DIR;
options = 1;
},
{
origin = "{1, 2}";
type = Corner;
name = _corner.int_ESQ;
options = 1;
},
{
origin = "{1, 3}";
type = Corner;
name = _corner.int_DIR;
options = 1;
}
);
layerId = "20086791-C5B6-4597-997A-CAD8F8E58507";
paths = (
{
closed = 1;
nodes = (
"572 0 LINE",
"572 670 LINE",
"70 670 LINE",
"70 0 LINE"
);
},
{
closed = 1;
nodes = (
"184 570 LINE",
"458 570 LINE",
"458 100 LINE",
"184 100 LINE"
);
}
);
width = 600;
}
);
},
{
glyphname = one.lf;
lastChange = "2019-01-02 21:34:29 +0000";
layers = (
{
layerId = "0018AAE5-3623-47DD-B976-BFE254BC69BD";
paths = (
{
closed = 1;
nodes = (
"330 0 LINE",
"330 20 LINE",
"50 20 LINE",
"50 0 LINE"
);
},
{
closed = 1;
nodes = (
"193 650 LINE",
"193 670 LINE",
"57 670 LINE",
"57 650 LINE"
);
},
{
closed = 1;
nodes = (
"200 0 LINE",
"200 670 LINE",
"180 670 LINE",
"180 0 LINE"
);
}
);
width = 600;
},
{
layerId = "20086791-C5B6-4597-997A-CAD8F8E58507";
paths = (
{
closed = 1;
nodes = (
"352 0 LINE",
"352 104 LINE",
"60 104 LINE",
"60 0 LINE"
);
},
{
closed = 1;
nodes = (
"214 566 LINE",
"214 670 LINE",
"73 670 LINE",
"73 566 LINE"
);
},
{
closed = 1;
nodes = (
"263 0 LINE",
"263 670 LINE",
"149 670 LINE",
"149 0 LINE"
);
}
);
width = 600;
}
);
},
{
glyphname = two.lf;
lastChange = "2019-01-02 21:34:29 +0000";
layers = (
{
hints = (
{
origin = "{0, 5}";
type = Corner;
name = _corner.dia_dir;
options = 1;
},
{
origin = "{0, 10}";
type = Corner;
name = _corner.int_DIR;
options = 1;
}
);
layerId = "0018AAE5-3623-47DD-B976-BFE254BC69BD";
paths = (
{
closed = 1;
nodes = (
"498 0 LINE",
"498 20 LINE",
"90 20 LINE",
"90 38 LINE",
"480 476.276 LINE",
"480 670 LINE",
"164 670 LINE",
"71 570 LINE",
"85 558 LINE",
"170.5 650 LINE",
"460 650 LINE",
"460 482 LINE",
"70 43.715 LINE",
"70 0 LINE"
);
}
);
width = 600;
},
{
hints = (
{
origin = "{0, 5}";
type = Corner;
name = _corner.dia_dir;
options = 1;
},
{
origin = "{0, 10}";
type = Corner;
name = _corner.int_DIR;
options = 1;
}
);
layerId = "20086791-C5B6-4597-997A-CAD8F8E58507";
paths = (
{
closed = 1;
nodes = (
"529 0 LINE",
"529 104 LINE",
"195 104 LINE",
"195 104 LINE",
"523 401 LINE",
"523 670 LINE",
"151 670 LINE",
"60 579 LINE",
"134 504 LINE",
"201 570 LINE",
"409 570 LINE",
"409 448 LINE",
"66 139 LINE",
"66 0 LINE"
);
}
);
width = 600;
}
);
},
{
glyphname = three.lf;
lastChange = "2019-01-02 21:34:29 +0000";
layers = (
{
hints = (
{
origin = "{0, 0}";
type = Corner;
name = _corner.dia_esq;
options = 1;
},
{
origin = "{0, 4}";
type = Corner;
name = _corner.dia_dir;
options = 1;
},
{
origin = "{0, 9}";
type = Corner;
name = _corner.int_DIR;
options = 1;
},
{
origin = "{0, 16}";
type = Corner;
name = _corner.int_ESQ;
options = 1;
}
);
layerId = "0018AAE5-3623-47DD-B976-BFE254BC69BD";
paths = (
{
closed = 1;
nodes = (
"514 0 LINE",
"514 274 LINE",
"438 355 LINE",
"514 436 LINE",
"514 670 LINE",
"179 670 LINE",
"85 575 LINE",
"98 562 LINE",
"185 650 LINE",
"494 650 LINE",
"494 441.5 LINE",
"422 365 LINE",
"221 365 LINE",
"221 345 LINE",
"422.25 345 LINE",
"494 268.5 LINE",
"494 20 LINE",
"172 20 LINE",
"85 108 LINE",
"72 95 LINE",
"166 0 LINE"
);
}
);
width = 600;
},
{
hints = (
{
origin = "{0, 0}";
type = Corner;
name = _corner.dia_esq;
options = 1;
},
{
origin = "{0, 4}";
type = Corner;
name = _corner.dia_dir;
options = 1;
},
{
origin = "{0, 9}";
type = Corner;
name = _corner.int_DIR;
options = 1;
},
{
origin = "{0, 16}";
type = Corner;
name = _corner.int_ESQ;
options = 1;
}
);
layerId = "20086791-C5B6-4597-997A-CAD8F8E58507";
paths = (
{
closed = 1;
nodes = (
"535 0 LINE",
"535 289 LINE",
"474 350 LINE",
"535 411 LINE",
"535 670 LINE",
"148 670 LINE",
"57 579 LINE",
"131 504 LINE",
"198 570 LINE",
"421 570 LINE",
"421.25 440 LINE",
"381 399.875 LINE",
"185 400 LINE",
"185 300 LINE",
"381 300.25 LINE",
"421.125 260 LINE",
"421 100 LINE",
"181 100 LINE",
"114 166 LINE",
"40 91 LINE",
"131 0 LINE"
);
}
);
width = 600;
}
);
},
{
glyphname = four.lf;
lastChange = "2019-01-02 21:34:29 +0000";
layers = (
{
layerId = "0018AAE5-3623-47DD-B976-BFE254BC69BD";
paths = (
{
closed = 1;
nodes = (
"377 0 LINE",
"377 148 LINE",
"472 148 LINE",
"472 168 LINE",
"377 168 LINE",
"377 670 LINE",
"358.673 670 LINE",
"10 193.143 LINE",
"10 148 LINE",
"357 148 LINE",
"357 0 LINE"
);
},
{
closed = 1;
nodes = (
"28 186 LINE",
"357 636 LINE",
"357 168 LINE",
"28 168 LINE"
);
}
);
width = 600;
},
{
layerId = "20086791-C5B6-4597-997A-CAD8F8E58507";
paths = (
{
closed = 1;
nodes = (
"466 0 LINE",
"466 130 LINE",
"544 130 LINE",
"544 234 LINE",
"466 234 LINE",
"466 670 LINE",
"352 670 LINE",
"30 234 LINE",
"30 130 LINE",
"352 130 LINE",
"352 0 LINE"
);
},
{
closed = 1;
nodes = (
"171 234 LINE",
"352 478 LINE",
"352 234 LINE",
"171 234 LINE"
);
}
);
width = 600;
}
);
},
{
glyphname = five.lf;
lastChange = "2019-01-02 21:34:29 +0000";
layers = (
{
hints = (
{
origin = "{0, 0}";
type = Corner;
name = _corner.dia_esq;
options = 1;
},
{
origin = "{0, 1}";
type = Corner;
name = _corner.dia_dir;
options = 1;
},
{
origin = "{0, 8}";
type = Corner;
name = _corner.int_DIR;
options = 1;
},
{
origin = "{0, 9}";
type = Corner;
name = _corner.int_ESQ;
options = 1;
}
);
layerId = "0018AAE5-3623-47DD-B976-BFE254BC69BD";
paths = (
{
closed = 1;
nodes = (
"510 0 LINE",
"510 400 LINE",
"129 400 LINE",
"129 650 LINE",
"496 650 LINE",
"496 670 LINE",
"109 670 LINE",
"109 380 LINE",
"490 380 LINE",
"490 20 LINE",
"172 20 LINE",
"85 108 LINE",
"72 95 LINE",
"166 0 LINE"
);
}
);
width = 600;
},
{
hints = (
{
origin = "{0, 0}";
type = Corner;
name = _corner.dia_esq;
options = 1;
},
{
origin = "{0, 1}";
type = Corner;
name = _corner.dia_dir;
options = 1;
},
{
origin = "{0, 8}";
type = Corner;
name = _corner.int_DIR;
options = 1;
},
{
origin = "{0, 9}";
type = Corner;
name = _corner.int_ESQ;
options = 1;
}
);
layerId = "20086791-C5B6-4597-997A-CAD8F8E58507";
paths = (
{
closed = 1;
nodes = (
"525 0 LINE",
"525 427 LINE",
"183 427 LINE",
"183 566 LINE",
"488 566 LINE",
"488 670 LINE",
"69 670 LINE",
"69 327 LINE",
"411 327 LINE",
"411 100 LINE",
"181 100 LINE",
"114 166 LINE",
"40 91 LINE",
"131 0 LINE"
);
}
);
width = 600;
}
);
},
{
glyphname = six.lf;
lastChange = "2019-01-02 21:34:29 +0000";
layers = (
{
hints = (
{
origin = "{0, 2}";
type = Corner;
name = _corner.int_DIR;
options = 1;
},
{
origin = "{0, 3}";
type = Corner;
name = _corner.int_ESQ;
options = 1;
},
{
origin = "{0, 4}";
type = Corner;
name = _corner.int_DIR;
options = 1;
},
{
origin = "{1, 0}";
type = Corner;
name = _corner.dia_esq;
options = 1;
},
{
origin = "{1, 1}";
type = Corner;
name = _corner.dia_dir;
options = 1;
},
{
origin = "{1, 4}";
type = Corner;
name = _corner.int_ESQ;
options = 1;
},
{
origin = "{1, 9}";
type = Corner;
name = _corner.dia_esq;
options = 1;
},
{
origin = "{1, 10}";
type = Corner;
name = _corner.dia_dir;
options = 1;
}
);
layerId = "0018AAE5-3623-47DD-B976-BFE254BC69BD";
paths = (
{
closed = 1;
nodes = (
"115 287 LINE",
"202 380 LINE",
"520 380 LINE",
"520 20 LINE",
"115 20 LINE"
);
},
{
closed = 1;
nodes = (
"540 0 LINE",
"540 400 LINE",
"194 400 LINE",
"115 313 LINE",
"115 650 LINE",
"450 650 LINE",
"537 562 LINE",
"550 575 LINE",
"456 670 LINE",
"95 670 LINE",
"95 0 LINE"
);
}
);
width = 600;
},
{
hints = (
{
origin = "{0, 2}";
type = Corner;
name = _corner.int_DIR;
options = 1;
},
{
origin = "{0, 3}";
type = Corner;
name = _corner.int_ESQ;
options = 1;
},
{
origin = "{0, 4}";
type = Corner;
name = _corner.int_DIR;
options = 1;
},
{
origin = "{1, 0}";
type = Corner;
name = _corner.dia_esq;
options = 1;
},
{
origin = "{1, 1}";
type = Corner;
name = _corner.dia_dir;
options = 1;
},
{
origin = "{1, 4}";
type = Corner;
name = _corner.int_ESQ;
options = 1;
},
{
origin = "{1, 9}";
type = Corner;
name = _corner.dia_esq;
options = 1;
},
{
origin = "{1, 10}";
type = Corner;
name = _corner.dia_dir;
options = 1;
}
);
layerId = "20086791-C5B6-4597-997A-CAD8F8E58507";
paths = (
{
closed = 1;
nodes = (
"183.75 277 LINE",
"229 322.125 LINE",
"460 322 LINE",
"460 100 LINE",
"184 100 LINE"
);
},
{
closed = 1;
nodes = (
"574 0 LINE",
"574 422 LINE",
"228 422 LINE",
"184 382 LINE",
"184 570 LINE",
"431 570 LINE",
"498 504 LINE",
"572 579 LINE",
"481 670 LINE",
"70 670 LINE",
"70 0 LINE"
);
}
);
width = 600;
}
);
},
{
glyphname = seven.lf;
lastChange = "2019-01-02 21:34:29 +0000";
layers = (
{
layerId = "0018AAE5-3623-47DD-B976-BFE254BC69BD";
paths = (
{
closed = 1;
nodes = (
"104 0 LINE",
"433 629.984 LINE",
"433 670 LINE",
"20 670 LINE",
"20 650 LINE",
"413 650 LINE",
"413 632 LINE",
"83 0 LINE"
);
}
);
width = 600;
},
{
layerId = "20086791-C5B6-4597-997A-CAD8F8E58507";
paths = (
{
closed = 1;
nodes = (
"195 0 LINE",
"460 542 LINE",
"460 670 LINE",
"20 670 LINE",
"20 566 LINE",
"333 566 LINE",
"333 544 LINE",
"64 0 LINE"
);
}
);
width = 600;
}
);
},
{
glyphname = eight.lf;
lastChange = "2019-01-02 21:34:29 +0000";
layers = (
{
hints = (
{
origin = "{0, 0}";
type = Corner;
name = _corner.dia_esq;
options = 1;
},
{
origin = "{0, 4}";
type = Corner;
name = _corner.dia_dir;
options = 1;
},
{
origin = "{0, 5}";
type = Corner;
name = _corner.dia_esq;
options = 1;
},
{
origin = "{0, 9}";
type = Corner;
name = _corner.dia_dir;
options = 1;
},
{
origin = "{1, 4}";
type = Corner;
name = _corner.int_ESQ;
options = 1;
},
{
origin = "{1, 5}";
type = Corner;
name = _corner.int_DIR;
options = 1;
},
{
origin = "{2, 1}";
type = Corner;
name = _corner.int_ESQ;
options = 1;
},
{
origin = "{2, 2}";
type = Corner;
name = _corner.int_DIR;
options = 1;
}
);
layerId = "0018AAE5-3623-47DD-B976-BFE254BC69BD";
paths = (
{
closed = 1;
nodes = (
"549 0 LINE",
"549 289 LINE",
"475 364 LINE",
"524 418 LINE",
"524 670 LINE",
"120 670 LINE",
"120 418 LINE",
"169 364 LINE",
"95 289 LINE",
"95 0 LINE"
);
},
{
closed = 1;
nodes = (
"115 281 LINE",
"186 353 LINE",
"458 353 LINE",
"529 281 LINE",
"529 20 LINE",
"115 20 LINE"
);
},
{
closed = 1;
nodes = (
"140 426 LINE",
"140 650 LINE",
"504 650 LINE",
"504 426 LINE",
"457 373 LINE",
"187 373 LINE"
);
}
);
width = 600;
},
{
hints = (
{
origin = "{0, 0}";
type = Corner;
name = _corner.dia_esq;
options = 1;
},
{
origin = "{0, 4}";
type = Corner;
name = _corner.dia_dir;
options = 1;
},
{
origin = "{0, 5}";
type = Corner;
name = _corner.dia_esq;
options = 1;
},
{
origin = "{0, 9}";
type = Corner;
name = _corner.dia_dir;
options = 1;
},
{
origin = "{1, 4}";
type = Corner;
name = _corner.int_ESQ;
options = 1;
},
{
origin = "{1, 5}";
type = Corner;
name = _corner.int_DIR;
options = 1;
},
{
origin = "{2, 1}";
type = Corner;
name = _corner.int_ESQ;
options = 1;
},
{
origin = "{2, 2}";
type = Corner;
name = _corner.int_DIR;
options = 1;
}
);
layerId = "20086791-C5B6-4597-997A-CAD8F8E58507";
paths = (
{
closed = 1;
nodes = (
"580 0 LINE",
"580 294 LINE",
"519 355 LINE",
"560 396 LINE",
"560 670 LINE",
"90 670 LINE",
"90 396 LINE",
"131 355 LINE",
"70 294 LINE",
"70 0 LINE"
);
},
{
closed = 1;
nodes = (
"183.75 259 LINE",
"224 299.125 LINE",
"426 299.25 LINE",
"466.125 259 LINE",
"466 100 LINE",
"184 100 LINE"
);
},
{
closed = 1;
nodes = (
"203.875 429 LINE",
"204 570 LINE",
"446 570 LINE",
"446.25 429 LINE",
"416 398.875 LINE",
"234 398.75 LINE"
);
}
);
width = 600;
}
);
},
{
glyphname = nine.lf;
lastChange = "2019-01-02 21:34:29 +0000";
layers = (
{
hints = (
{
origin = "{0, 0}";
type = Corner;
name = _corner.dia_esq;
options = 1;
},
{
origin = "{0, 1}";
type = Corner;
name = _corner.dia_dir;
options = 1;
},
{
origin = "{0, 2}";
type = Corner;
name = _corner.dia_esq;
options = 1;
},
{
origin = "{0, 3}";
type = Corner;
name = _corner.dia_dir;
options = 1;
},
{
origin = "{0, 6}";
type = Corner;
name = _corner.int_ESQ;
options = 1;
},
{
origin = "{1, 0}";
type = Corner;
name = _corner.int_ESQ;
options = 1;
},
{
origin = "{1, 1}";
type = Corner;
name = _corner.int_DIR;
options = 1;
},
{
origin = "{1, 4}";
type = Corner;
name = _corner.int_DIR;
options = 1;
}
);
layerId = "0018AAE5-3623-47DD-B976-BFE254BC69BD";
paths = (
{
closed = 1;
nodes = (
"535 0 LINE",
"535 670 LINE",
"100 670 LINE",
"100 260 LINE",
"436 260 LINE",
"515 347 LINE",
"515 20 LINE",
"190 20 LINE",
"103 108 LINE",
"90 95 LINE",
"184 0 LINE"
);
},
{
closed = 1;
nodes = (
"120 650 LINE",
"515 650 LINE",
"515 373 LINE",
"428.625 280 LINE",
"120 280 LINE"
);
}
);
width = 600;
},
{
hints = (
{
origin = "{0, 0}";
type = Corner;
name = _corner.dia_esq;
options = 1;
},
{
origin = "{0, 1}";
type = Corner;
name = _corner.dia_dir;
options = 1;
},
{
origin = "{0, 2}";
type = Corner;
name = _corner.dia_esq;
options = 1;
},
{
origin = "{0, 3}";
type = Corner;
name = _corner.dia_dir;
options = 1;
},
{
origin = "{0, 6}";
type = Corner;
name = _corner.int_ESQ;
options = 1;
},
{
origin = "{1, 0}";
type = Corner;
name = _corner.int_ESQ;
options = 1;
},
{
origin = "{1, 1}";
type = Corner;
name = _corner.int_DIR;
options = 1;
},
{
origin = "{1, 4}";
type = Corner;
name = _corner.int_DIR;
options = 1;
}
);
layerId = "20086791-C5B6-4597-997A-CAD8F8E58507";
paths = (
{
closed = 1;
nodes = (
"561 0 LINE",
"561 670 LINE",
"65 670 LINE",
"65 248 LINE",
"403 248 LINE",
"447 288 LINE",
"447 100 LINE",
"210 100 LINE",
"143 166 LINE",
"69 91 LINE",
"160 0 LINE"
);
},
{
closed = 1;
nodes = (
"179 570 LINE",
"447 570 LINE",
"447.25 398 LINE",
"397 347.875 LINE",
"179 348 LINE"
);
}
);
width = 600;
}
);
},
{
glyphname = onesuperior;
lastChange = "2019-02-10 12:04:04 +0000";
layers = (
{
layerId = "0018AAE5-3623-47DD-B976-BFE254BC69BD";
paths = (
{
closed = 1;
nodes = (
"192 333 LINE",
"192 353 LINE",
"50 353 LINE",
"50 333 LINE"
);
},
{
closed = 1;
nodes = (
"121.5 650 LINE",
"121.5 670 LINE",
"51.5 670 LINE",
"51.5 650 LINE"
);
},
{
closed = 1;
nodes = (
"131 333 LINE",
"131 670 LINE",
"111 670 LINE",
"111 333 LINE"
);
}
);
width = 242;
},
{
layerId = "20086791-C5B6-4597-997A-CAD8F8E58507";
paths = (
{
closed = 1;
nodes = (
"226 315 LINE",
"226 387 LINE",
"60 387 LINE",
"60 315 LINE"
);
},
{
closed = 1;
nodes = (
"157 598 LINE",
"157 670 LINE",
"66.5 670 LINE",
"66.5 598 LINE"
);
},
{
closed = 1;
nodes = (
"181.5 315 LINE",
"181.5 670 LINE",
"104.5 670 LINE",
"104.5 315 LINE"
);
}
);
width = 276;
}
);
leftMetricsKey = one;
rightMetricsKey = one;
unicode = 00B9;
},
{
glyphname = twosuperior;
lastChange = "2019-02-10 12:04:04 +0000";
layers = (
{
layerId = "0018AAE5-3623-47DD-B976-BFE254BC69BD";
paths = (
{
closed = 1;
nodes = (
"286 333 LINE",
"286 353 LINE",
"91 353 LINE",
"91 360.625 LINE",
"277 570.75 LINE",
"277 627.5 LINE",
"235 670 LINE",
"117.625 670 LINE",
"70.125 619 LINE",
"84.5 605.625 LINE",
"125.625 650 LINE",
"227 650 LINE",
"257 619.5 LINE",
"257 578.375 LINE",
"70 367.25 LINE",
"70 333 LINE"
);
}
);
width = 346;
},
{
layerId = "20086791-C5B6-4597-997A-CAD8F8E58507";
paths = (
{
closed = 1;
nodes = (
"318.625 315 LINE",
"318.625 387 LINE",
"141.625 387 LINE",
"141.625 363.5 LINE",
"315.625 521.125 LINE",
"315.625 613.625 LINE",
"259.25 670 LINE",
"115.5 670 LINE",
"60 614.5 LINE",
"111 562.875 LINE",
"148.75 600 LINE",
"224.5 600.125 LINE",
"238.5 585.875 LINE",
"238.625 553.5 LINE",
"67.125 399 LINE",
"67.125 315 LINE"
);
}
);
width = 393.625;
}
);
leftMetricsKey = two;
rightMetricsKey = two;
unicode = 00B2;
},
{
glyphname = threesuperior;
lastChange = "2019-02-10 12:04:04 +0000";
layers = (
{
background = {
paths = (
{
closed = 1;
nodes = (
"258 370 LINE",
"302 415 LINE",
"302 500 LINE",
"274 533 LINE",
"300 564 LINE",
"300 626 LINE",
"257 670 LINE",
"166 670 LINE",
"123 620 LINE",
"137 608 LINE",
"172 650 LINE",
"251 650 LINE",
"280 620 LINE",
"280 569.5 LINE",
"258 543 LINE",
"165 543 LINE",
"165 523 LINE",
"258.25 523 LINE",
"282 494.5 LINE",
"282 421 LINE",
"252 390 LINE",
"164 390 LINE",
"129 432 LINE",
"115 420 LINE",
"158 370 LINE"
);
}
);
};
layerId = "0018AAE5-3623-47DD-B976-BFE254BC69BD";
paths = (
{
closed = 1;
nodes = (
"253.375 333 LINE",
"295.375 375.5 LINE",
"295.375 471.375 LINE",
"257.75 511.5 LINE",
"295.375 551.625 LINE",
"295.375 627.5 LINE",
"253.375 670 LINE",
"126.375 670 LINE",
"78.5 621.5 LINE",
"92.375 607.625 LINE",
"134.375 650 LINE",
"245.375 650 LINE",
"275.375 619.5 LINE",
"275.375 559.125 LINE",
"240 521.5 LINE",
"144.875 521.5 LINE",
"144.875 501.5 LINE",
"240.125 501.5 LINE",
"275.375 463.875 LINE",
"275.375 383.5 LINE",
"245.375 353 LINE",
"127.875 353 LINE",
"85.875 395.375 LINE",
"72 381.5 LINE",
"119.875 333 LINE"
);
}
);
width = 390.375;
},
{
background = {
paths = (
{
closed = 1;
nodes = (
"251.125 335 LINE",
"301.625 385.5 LINE",
"301.625 479.5 LINE",
"271.125 510 LINE",
"301.625 540.5 LINE",
"301.625 619.5 LINE",
"251.125 670 LINE",
"108.125 670 LINE",
"62.625 624.5 LINE",
"99.625 587 LINE",
"133.125 620 LINE",
"224.625 620.125 LINE",
"244.625 600 LINE",
"244.75 555 LINE",
"224.625 535 LINE",
"126.625 535 LINE",
"126.625 485 LINE",
"224.625 485.125 LINE",
"244.75 465 LINE",
"244.75 405 LINE",
"224.625 385.125 LINE",
"124.625 385 LINE",
"91.125 418 LINE",
"54.125 380.5 LINE",
"99.625 335 LINE"
);
}
);
};
layerId = "20086791-C5B6-4597-997A-CAD8F8E58507";
paths = (
{
closed = 1;
nodes = (
"255.25 315 LINE",
"311.625 371.375 LINE",
"311.625 473.625 LINE",
"285.25 500 LINE",
"311.625 526.375 LINE",
"311.625 613.625 LINE",
"255.25 670 LINE",
"104 670 LINE",
"48.5 614.5 LINE",
"99.5 562.875 LINE",
"137.25 600 LINE",
"220.5 600.125 LINE",
"234.625 585.875 LINE",
"234.75 549.125 LINE",
"220.5 535 LINE",
"116.625 535 LINE",
"116.625 465 LINE",
"220.5 465.125 LINE",
"234.75 450.875 LINE",
"234.75 399.125 LINE",
"220.5 385.125 LINE",
"128.75 385 LINE",
"91 422.125 LINE",
"40 370.5 LINE",
"95.5 315 LINE"
);
}
);
width = 381.625;
}
);
leftMetricsKey = three;
rightMetricsKey = three;
unicode = 00B3;
},
{
glyphname = foursuperior;
lastChange = "2019-02-09 18:34:23 +0000";
layers = (
{
layerId = "0018AAE5-3623-47DD-B976-BFE254BC69BD";
paths = (
{
closed = 1;
nodes = (
"203.5 333 LINE",
"203.5 399 LINE",
"251 399 LINE",
"251 419 LINE",
"203.5 419 LINE",
"203.5 670 LINE",
"183.875 670 LINE",
"10 430.875 LINE",
"10 399 LINE",
"183.5 399 LINE",
"183.5 333 LINE"
);
},
{
closed = 1;
nodes = (
"31 426.75 LINE",
"183.5 636 LINE",
"183.5 419 LINE",
"31 419 LINE"
);
}
);
width = 271;
},
{
background = {
paths = (
{
closed = 1;
nodes = (
"258 335 LINE",
"258 400 LINE",
"297 400 LINE",
"297 452 LINE",
"258 452 LINE",
"258 670 LINE",
"201 670 LINE",
"40 452 LINE",
"40 400 LINE",
"201 400 LINE",
"201 335 LINE"
);
},
{
closed = 1;
nodes = (
"110.5 452 LINE",
"201 574 LINE",
"201 452 LINE",
"110.5 452 LINE"
);
}
);
};
layerId = "20086791-C5B6-4597-997A-CAD8F8E58507";
paths = (
{
closed = 1;
nodes = (
"268 315 LINE",
"268 380 LINE",
"307 380 LINE",
"307 452 LINE",
"268 452 LINE",
"268 670 LINE",
"196 670 LINE",
"30 445.25 LINE",
"30 380 LINE",
"191 380 LINE",
"191 315 LINE"
);
},
{
closed = 1;
nodes = (
"130.25 452 LINE",
"191 534.125 LINE",
"191 452 LINE",
"130.25 452 LINE"
);
}
);
width = 347;
}
);
leftMetricsKey = four;
rightMetricsKey = four;
unicode = 2074;
},
{
glyphname = onehalf;
lastChange = "2019-02-10 12:23:38 +0000";
layers = (
{
background = {
paths = (
{
closed = 1;
nodes = (
"607.125 720.125 LINE",
"591.75 730 LINE",
"95 -50.125 LINE",
"110.375 -60 LINE"
);
},
{
closed = 1;
nodes = (
"290 333 LINE",
"290 353 LINE",
"148 353 LINE",
"148 333 LINE"
);
},
{
closed = 1;
nodes = (
"219.5 650 LINE",
"219.5 670 LINE",
"149.5 670 LINE",
"149.5 650 LINE"
);
},
{
closed = 1;
nodes = (
"229 333 LINE",
"229 670 LINE",
"209 670 LINE",
"209 333 LINE"
);
},
{
closed = 1;
nodes = (
"597.5 0 LINE",
"597.5 20 LINE",
"402.5 20 LINE",
"402.5 27.625 LINE",
"588.5 237.75 LINE",
"588.5 294.5 LINE",
"546.5 337 LINE",
"429.125 337 LINE",
"381.625 286 LINE",
"396 272.625 LINE",
"437.125 317 LINE",
"538.5 317 LINE",
"568.5 286.5 LINE",
"568.5 245.375 LINE",
"381.5 34.25 LINE",
"381.5 0 LINE"
);
}
);
};
components = (
{
name = slashlongcomb;
},
{
name = onesuperior;
transform = "{1, 0, 0, 1, 98, 0}";
},
{
name = twosuperior;
transform = "{1, 0, 0, 1, 311.438, -333}";
}
);
layerId = "0018AAE5-3623-47DD-B976-BFE254BC69BD";
width = 702.125;
},
{
components = (
{
name = slashlongcomb;
transform = "{1, 0, 0, 1, 1.25, 0}";
},
{
name = onesuperior;
transform = "{1, 0, 0, 1, 14.998, 0}";
},
{
name = twosuperior;
transform = "{1, 0, 0, 1, 351.439, -315.051}";
}
);
layerId = "20086791-C5B6-4597-997A-CAD8F8E58507";
width = 745.125;
}
);
leftMetricsKey = i;
rightMetricsKey = i;
unicode = 00BD;
},
{
glyphname = onequarter;
lastChange = "2019-02-10 12:24:52 +0000";
layers = (
{
background = {
paths = (
{
closed = 1;
nodes = (
"290 333 LINE",
"290 353 LINE",
"148 353 LINE",
"148 333 LINE"
);
},
{
closed = 1;
nodes = (
"219.5 650 LINE",
"219.5 670 LINE",
"149.5 670 LINE",
"149.5 650 LINE"
);
},
{
closed = 1;
nodes = (
"229 333 LINE",
"229 670 LINE",
"209 670 LINE",
"209 333 LINE"
);
},
{
closed = 1;
nodes = (
"607.125 720.125 LINE",
"591.75 730 LINE",
"95 -50.125 LINE",
"110.375 -60 LINE"
);
},
{
closed = 1;
nodes = (
"509.125 0 LINE",
"509.125 66 LINE",
"556.625 66 LINE",
"556.625 86 LINE",
"509.125 86 LINE",
"509.125 337 LINE",
"489.5 337 LINE",
"315.625 97.875 LINE",
"315.625 66 LINE",
"489.125 66 LINE",
"489.125 0 LINE"
);
},
{
closed = 1;
nodes = (
"336.625 93.75 LINE",
"489.125 303 LINE",
"489.125 86 LINE",
"336.625 86 LINE"
);
}
);
};
components = (
{
name = slashlongcomb;
},
{
alignment = -1;
name = onesuperior;
transform = "{1, 0, 0, 1, 98, 0}";
},
{
alignment = -1;
name = foursuperior;
transform = "{1, 0, 0, 1, 305.625, -333}";
}
);
layerId = "0018AAE5-3623-47DD-B976-BFE254BC69BD";
width = 702.125;
},
{
components = (
{
alignment = -1;
name = slashlongcomb;
transform = "{1, 0, 0, 1, 1.25, 0}";
},
{
alignment = -1;
name = onesuperior;
transform = "{1, 0, 0, 1, 14.998, 0}";
},
{
alignment = -1;
name = foursuperior;
transform = "{1, 0, 0, 1, 305.625, -315}";
}
);
layerId = "20086791-C5B6-4597-997A-CAD8F8E58507";
width = 693.125;
}
);
leftMetricsKey = i;
rightMetricsKey = i;
unicode = 00BC;
},
{
glyphname = threequarters;
lastChange = "2019-02-10 12:24:24 +0000";
layers = (
{
background = {
paths = (
{
closed = 1;
nodes = (
"276.375 333 LINE",
"318.375 375.5 LINE",
"318.375 471.375 LINE",
"280.75 511.5 LINE",
"318.375 551.625 LINE",
"318.375 627.5 LINE",
"276.375 670 LINE",
"149.375 670 LINE",
"101.5 621.5 LINE",
"115.375 607.625 LINE",
"157.375 650 LINE",
"268.375 650 LINE",
"298.375 619.5 LINE",
"298.375 559.125 LINE",
"263 521.5 LINE",
"167.875 521.5 LINE",
"167.875 501.5 LINE",
"263.125 501.5 LINE",
"298.375 463.875 LINE",
"298.375 383.5 LINE",
"268.375 353 LINE",
"150.875 353 LINE",
"108.875 395.375 LINE",
"95 381.5 LINE",
"142.875 333 LINE"
);
},
{
closed = 1;
nodes = (
"625.125 720.125 LINE",
"609.75 730 LINE",
"113 -50.125 LINE",
"128.375 -60 LINE"
);
},
{
closed = 1;
nodes = (
"527.125 0 LINE",
"527.125 66 LINE",
"574.625 66 LINE",
"574.625 86 LINE",
"527.125 86 LINE",
"527.125 337 LINE",
"507.5 337 LINE",
"333.625 97.875 LINE",
"333.625 66 LINE",
"507.125 66 LINE",
"507.125 0 LINE"
);
},
{
closed = 1;
nodes = (
"354.625 93.75 LINE",
"507.125 303 LINE",
"507.125 86 LINE",
"354.625 86 LINE"
);
}
);
};
components = (
{
alignment = -1;
name = threesuperior;
transform = "{1, 0, 0, 1, 23, 0}";
},
{
alignment = -1;
name = slashlongcomb;
transform = "{1, 0, 0, 1, 18, 0}";
},
{
alignment = -1;
name = foursuperior;
transform = "{1, 0, 0, 1, 323.625, -333}";
}
);
layerId = "0018AAE5-3623-47DD-B976-BFE254BC69BD";
width = 720.125;
},
{
components = (
{
alignment = -1;
name = threesuperior;
transform = "{1, 0, 0, 1, 35, 0}";
},
{
name = slashlongcomb;
transform = "{1, 0, 0, 1, 88.25, 0}";
},
{
alignment = -1;
name = foursuperior;
transform = "{1, 0, 0, 1, 395.43, -315.051}";
}
);
layerId = "20086791-C5B6-4597-997A-CAD8F8E58507";
width = 780.125;
}
);
leftMetricsKey = i;
rightMetricsKey = i;
unicode = 00BE;
},
{
glyphname = period;
lastChange = "2019-01-02 21:34:29 +0000";
layers = (
{
layerId = "0018AAE5-3623-47DD-B976-BFE254BC69BD";
paths = (
{
closed = 1;
nodes = (
"70 0 LINE",
"70 94 LINE",
"50 94 LINE",
"50 0 LINE"
);
}
);
width = 130;
},
{
layerId = "20086791-C5B6-4597-997A-CAD8F8E58507";
paths = (
{
closed = 1;
nodes = (
"180 0 LINE",
"180 114 LINE",
"70 114 LINE",
"70 0 LINE"
);
}
);
width = 260;
}
);
leftKerningGroup = period;
rightKerningGroup = period;
unicode = 002E;
},
